<svg width="152" height="50" viewBox="0 0 152 50" fill="none" xmlns="http://www.w3.org/2000/svg">
<rect x="0.5" y="0.5" width="151" height="49" stroke="white" stroke-opacity="0.5"/>
<path d="M26.6245 14.7847C27.1915 14.1311 27.6238 13.372 27.8967 12.5509C28.1695 11.7298 28.2775 10.8629 28.2144 10C26.4735 10.1405 24.8576 10.9593 23.7147 12.2798C23.1673 12.9128 22.7526 13.6491 22.4949 14.4452C22.2373 15.2413 22.142 16.081 22.2148 16.9145C23.0639 16.9216 23.9033 16.7332 24.668 16.3639C25.4327 15.9945 26.1021 15.4542 26.6245 14.7847ZM30.4042 25.9439C30.4143 24.7946 30.717 23.6668 31.2839 22.667C31.8507 21.6671 32.663 20.8282 33.644 20.2293C33.0249 19.3372 32.2064 18.6017 31.2535 18.081C30.3006 17.5603 29.2395 17.2687 28.1544 17.2295C25.8145 16.9895 23.6547 18.5944 22.4097 18.5944C21.1648 18.5944 19.4099 17.2595 17.4601 17.2895C16.1853 17.3315 14.9433 17.7032 13.855 18.3682C12.7667 19.0333 11.8694 19.9691 11.2505 21.0843C8.61066 25.674 10.5755 32.4985 13.2154 36.2033C14.4153 38.0181 15.9152 40.073 17.895 39.998C19.8749 39.923 20.5199 38.7681 22.8147 38.7681C25.1096 38.7681 25.8145 39.998 27.7644 39.953C29.7143 39.908 31.0942 38.0931 32.3541 36.2783C33.2466 34.9606 33.9438 33.5208 34.4239 32.0035C33.2352 31.4966 32.2211 30.6526 31.5067 29.5757C30.7923 28.4988 30.409 27.2362 30.4042 25.9439Z" fill="white"/>
<path d="M48.125 18H45.8807V10.7273H48.2244C48.9299 10.7273 49.5336 10.8729 50.0355 11.1641C50.5374 11.4529 50.9221 11.8684 51.1896 12.4105C51.4571 12.9503 51.5909 13.5966 51.5909 14.3494C51.5909 15.107 51.456 15.7592 51.1861 16.3061C50.9162 16.8506 50.5232 17.2696 50.0071 17.5632C49.491 17.8544 48.8636 18 48.125 18ZM46.7614 17.2188H48.0682C48.6695 17.2188 49.1679 17.1027 49.5632 16.8707C49.9586 16.6387 50.2533 16.3085 50.4474 15.88C50.6416 15.4515 50.7386 14.9413 50.7386 14.3494C50.7386 13.7623 50.6428 13.2569 50.451 12.8331C50.2592 12.407 49.9728 12.0803 49.5916 11.853C49.2105 11.6233 48.7358 11.5085 48.1676 11.5085H46.7614V17.2188ZM55.1705 18.1136C54.678 18.1136 54.246 17.9964 53.8743 17.7621C53.505 17.5277 53.2161 17.1998 53.0078 16.7784C52.8018 16.357 52.6989 15.8646 52.6989 15.3011C52.6989 14.733 52.8018 14.237 53.0078 13.8132C53.2161 13.3894 53.505 13.0604 53.8743 12.826C54.246 12.5916 54.678 12.4744 55.1705 12.4744C55.6629 12.4744 56.0938 12.5916 56.4631 12.826C56.8348 13.0604 57.1236 13.3894 57.3295 13.8132C57.5379 14.237 57.642 14.733 57.642 15.3011C57.642 15.8646 57.5379 16.357 57.3295 16.7784C57.1236 17.1998 56.8348 17.5277 56.4631 17.7621C56.0938 17.9964 55.6629 18.1136 55.1705 18.1136ZM55.1705 17.3608C55.5445 17.3608 55.8523 17.2649 56.0938 17.0732C56.3352 16.8814 56.514 16.6293 56.63 16.3168C56.746 16.0043 56.804 15.6657 56.804 15.3011C56.804 14.9366 56.746 14.5968 56.63 14.282C56.514 13.9671 56.3352 13.7126 56.0938 13.5185C55.8523 13.3243 55.5445 13.2273 55.1705 13.2273C54.7964 13.2273 54.4886 13.3243 54.2472 13.5185C54.0057 13.7126 53.8269 13.9671 53.7109 14.282C53.5949 14.5968 53.5369 14.9366 53.5369 15.3011C53.5369 15.6657 53.5949 16.0043 53.7109 16.3168C53.8269 16.6293 54.0057 16.8814 54.2472 17.0732C54.4886 17.2649 54.7964 17.3608 55.1705 17.3608ZM59.9716 18L58.3097 12.5455H59.1903L60.3693 16.7216H60.4261L61.5909 12.5455H62.4858L63.6364 16.7074H63.6932L64.8722 12.5455H65.7528L64.0909 18H63.267L62.0739 13.8097H61.9886L60.7955 18H59.9716ZM67.6989 14.7188V18H66.8608V12.5455H67.6705V13.3977H67.7415C67.8693 13.1207 68.0634 12.8982 68.3239 12.7301C68.5843 12.5597 68.9205 12.4744 69.3324 12.4744C69.7017 12.4744 70.0249 12.5502 70.3018 12.7017C70.5788 12.8509 70.7943 13.0781 70.9482 13.3835C71.102 13.6866 71.179 14.0701 71.179 14.5341V18H70.3409V14.5909C70.3409 14.1624 70.2296 13.8286 70.0071 13.5895C69.7846 13.348 69.4792 13.2273 69.0909 13.2273C68.8234 13.2273 68.5843 13.2853 68.3736 13.4013C68.1652 13.5173 68.0007 13.6866 67.88 13.9091C67.7592 14.1316 67.6989 14.4015 67.6989 14.7188ZM73.5485 10.7273V18H72.7104V10.7273H73.5485ZM77.2994 18.1136C76.8069 18.1136 76.3749 17.9964 76.0032 17.7621C75.6339 17.5277 75.3451 17.1998 75.1367 16.7784C74.9308 16.357 74.8278 15.8646 74.8278 15.3011C74.8278 14.733 74.9308 14.237 75.1367 13.8132C75.3451 13.3894 75.6339 13.0604 76.0032 12.826C76.3749 12.5916 76.8069 12.4744 77.2994 12.4744C77.7918 12.4744 78.2227 12.5916 78.592 12.826C78.9637 13.0604 79.2525 13.3894 79.4585 13.8132C79.6668 14.237 79.771 14.733 79.771 15.3011C79.771 15.8646 79.6668 16.357 79.4585 16.7784C79.2525 17.1998 78.9637 17.5277 78.592 17.7621C78.2227 17.9964 77.7918 18.1136 77.2994 18.1136ZM77.2994 17.3608C77.6734 17.3608 77.9812 17.2649 78.2227 17.0732C78.4641 16.8814 78.6429 16.6293 78.7589 16.3168C78.8749 16.0043 78.9329 15.6657 78.9329 15.3011C78.9329 14.9366 78.8749 14.5968 78.7589 14.282C78.6429 13.9671 78.4641 13.7126 78.2227 13.5185C77.9812 13.3243 77.6734 13.2273 77.2994 13.2273C76.9253 13.2273 76.6175 13.3243 76.3761 13.5185C76.1346 13.7126 75.9558 13.9671 75.8398 14.282C75.7238 14.5968 75.6658 14.9366 75.6658 15.3011C75.6658 15.6657 75.7238 16.0043 75.8398 16.3168C75.9558 16.6293 76.1346 16.8814 76.3761 17.0732C76.6175 17.2649 76.9253 17.3608 77.2994 17.3608ZM82.6554 18.1278C82.3097 18.1278 81.996 18.0627 81.7143 17.9325C81.4326 17.8 81.2089 17.6094 81.0431 17.3608C80.8774 17.1098 80.7946 16.8068 80.7946 16.4517C80.7946 16.1392 80.8561 15.8859 80.9792 15.6918C81.1023 15.4953 81.2669 15.3414 81.4728 15.2301C81.6788 15.1188 81.9061 15.036 82.1547 14.9815C82.4056 14.9247 82.6577 14.8797 82.911 14.8466C83.2425 14.804 83.5112 14.772 83.7172 14.7507C83.9255 14.727 84.077 14.688 84.1717 14.6335C84.2688 14.5791 84.3173 14.4844 84.3173 14.3494V14.321C84.3173 13.9706 84.2214 13.6984 84.0297 13.5043C83.8403 13.3101 83.5526 13.2131 83.1667 13.2131C82.7666 13.2131 82.4529 13.3007 82.2257 13.4759C81.9984 13.651 81.8386 13.8381 81.7463 14.0369L80.9508 13.7528C81.0929 13.4214 81.2823 13.1634 81.519 12.9787C81.7581 12.7917 82.0185 12.6615 82.3002 12.5881C82.5843 12.5123 82.8637 12.4744 83.1383 12.4744C83.3135 12.4744 83.5147 12.4957 83.742 12.5384C83.9717 12.5786 84.193 12.6626 84.4061 12.7905C84.6215 12.9183 84.8002 13.1113 84.9423 13.3693C85.0843 13.6274 85.1554 13.973 85.1554 14.4062V18H84.3173V17.2614H84.2747C84.2179 17.3797 84.1232 17.5064 83.9906 17.6413C83.858 17.7763 83.6816 17.8911 83.4615 17.9858C83.2413 18.0805 82.9726 18.1278 82.6554 18.1278ZM82.7832 17.375C83.1146 17.375 83.394 17.3099 83.6213 17.1797C83.8509 17.0495 84.0237 16.8814 84.1397 16.6754C84.2581 16.4695 84.3173 16.2528 84.3173 16.0256V15.2585C84.2818 15.3011 84.2037 15.3402 84.0829 15.3757C83.9645 15.4089 83.8272 15.4384 83.671 15.4645C83.5171 15.4882 83.3668 15.5095 83.22 15.5284C83.0756 15.545 82.9584 15.5592 82.8684 15.571C82.6506 15.5994 82.447 15.6456 82.2576 15.7095C82.0706 15.7711 81.9191 15.8646 81.8031 15.9901C81.6895 16.1132 81.6326 16.2812 81.6326 16.4943C81.6326 16.7855 81.7404 17.0057 81.9558 17.1548C82.1736 17.3016 82.4494 17.375 82.7832 17.375ZM88.7447 18.1136C88.2901 18.1136 87.8888 17.9988 87.5408 17.7692C87.1928 17.5372 86.9206 17.2105 86.7241 16.7891C86.5276 16.3653 86.4293 15.8646 86.4293 15.2869C86.4293 14.714 86.5276 14.2169 86.7241 13.7955C86.9206 13.3741 87.194 13.0485 87.5444 12.8189C87.8948 12.5893 88.2996 12.4744 88.7589 12.4744C89.114 12.4744 89.3945 12.5336 89.6005 12.652C89.8088 12.768 89.9674 12.9006 90.0763 13.0497C90.1876 13.1965 90.274 13.3172 90.3356 13.4119H90.4066V10.7273H91.2447V18H90.435V17.1619H90.3356C90.274 17.2614 90.1864 17.3868 90.0728 17.5384C89.9592 17.6875 89.797 17.8213 89.5863 17.9396C89.3756 18.0556 89.0951 18.1136 88.7447 18.1136ZM88.8583 17.3608C89.1945 17.3608 89.4786 17.2732 89.7106 17.098C89.9426 16.9205 90.119 16.6754 90.2397 16.3629C90.3604 16.0481 90.4208 15.6847 90.4208 15.2727C90.4208 14.8655 90.3616 14.5092 90.2433 14.2038C90.1249 13.8961 89.9497 13.657 89.7177 13.4865C89.4857 13.3137 89.1992 13.2273 88.8583 13.2273C88.5032 13.2273 88.2073 13.3184 87.9705 13.5007C87.7362 13.6806 87.5598 13.9257 87.4414 14.2358C87.3254 14.5436 87.2674 14.8892 87.2674 15.2727C87.2674 15.661 87.3266 16.0137 87.445 16.331C87.5657 16.6458 87.7433 16.8968 87.9776 17.0838C88.2144 17.2685 88.5079 17.3608 88.8583 17.3608ZM97.9244 18.1136C97.4319 18.1136 96.9999 17.9964 96.6282 17.7621C96.2589 17.5277 95.9701 17.1998 95.7617 16.7784C95.5558 16.357 95.4528 15.8646 95.4528 15.3011C95.4528 14.733 95.5558 14.237 95.7617 13.8132C95.9701 13.3894 96.2589 13.0604 96.6282 12.826C96.9999 12.5916 97.4319 12.4744 97.9244 12.4744C98.4168 12.4744 98.8477 12.5916 99.217 12.826C99.5887 13.0604 99.8775 13.3894 100.083 13.8132C100.292 14.237 100.396 14.733 100.396 15.3011C100.396 15.8646 100.292 16.357 100.083 16.7784C99.8775 17.1998 99.5887 17.5277 99.217 17.7621C98.8477 17.9964 98.4168 18.1136 97.9244 18.1136ZM97.9244 17.3608C98.2984 17.3608 98.6062 17.2649 98.8477 17.0732C99.0891 16.8814 99.2679 16.6293 99.3839 16.3168C99.4999 16.0043 99.5579 15.6657 99.5579 15.3011C99.5579 14.9366 99.4999 14.5968 99.3839 14.282C99.2679 13.9671 99.0891 13.7126 98.8477 13.5185C98.6062 13.3243 98.2984 13.2273 97.9244 13.2273C97.5503 13.2273 97.2425 13.3243 97.0011 13.5185C96.7596 13.7126 96.5808 13.9671 96.4648 14.282C96.3488 14.5968 96.2908 14.9366 96.2908 15.3011C96.2908 15.6657 96.3488 16.0043 96.4648 16.3168C96.5808 16.6293 96.7596 16.8814 97.0011 17.0732C97.2425 17.2649 97.5503 17.3608 97.9244 17.3608ZM102.513 14.7188V18H101.675V12.5455H102.485V13.3977H102.556C102.684 13.1207 102.878 12.8982 103.138 12.7301C103.399 12.5597 103.735 12.4744 104.147 12.4744C104.516 12.4744 104.839 12.5502 105.116 12.7017C105.393 12.8509 105.609 13.0781 105.763 13.3835C105.916 13.6866 105.993 14.0701 105.993 14.5341V18H105.155V14.5909C105.155 14.1624 105.044 13.8286 104.822 13.5895C104.599 13.348 104.294 13.2273 103.905 13.2273C103.638 13.2273 103.399 13.2853 103.188 13.4013C102.98 13.5173 102.815 13.6866 102.694 13.9091C102.574 14.1316 102.513 14.4015 102.513 14.7188ZM112.71 12.5455V13.2557H109.883V12.5455H112.71ZM110.707 11.2386H111.545V16.4375C111.545 16.6742 111.579 16.8518 111.648 16.9702C111.719 17.0862 111.809 17.1643 111.918 17.2045C112.029 17.2424 112.146 17.2614 112.269 17.2614C112.362 17.2614 112.437 17.2566 112.496 17.2472C112.556 17.2353 112.603 17.2259 112.638 17.2188L112.809 17.9716C112.752 17.9929 112.673 18.0142 112.571 18.0355C112.469 18.0592 112.34 18.071 112.184 18.071C111.947 18.071 111.715 18.0201 111.488 17.9183C111.263 17.8165 111.076 17.6615 110.927 17.4531C110.78 17.2448 110.707 16.982 110.707 16.6648V11.2386ZM114.925 14.7188V18H114.087V10.7273H114.925V13.3977H114.996C115.124 13.116 115.316 12.8923 115.572 12.7266C115.83 12.5585 116.173 12.4744 116.602 12.4744C116.973 12.4744 117.299 12.549 117.578 12.6982C117.857 12.8449 118.074 13.071 118.228 13.3764C118.384 13.6795 118.462 14.0653 118.462 14.5341V18H117.624V14.5909C117.624 14.1577 117.512 13.8227 117.287 13.5859C117.064 13.3468 116.755 13.2273 116.36 13.2273C116.085 13.2273 115.839 13.2853 115.621 13.4013C115.406 13.5173 115.236 13.6866 115.11 13.9091C114.987 14.1316 114.925 14.4015 114.925 14.7188ZM122.282 18.1136C121.757 18.1136 121.304 17.9976 120.922 17.7656C120.544 17.5312 120.251 17.2045 120.045 16.7855C119.842 16.3641 119.74 15.8741 119.74 15.3153C119.74 14.7566 119.842 14.2642 120.045 13.8381C120.251 13.4096 120.538 13.0758 120.905 12.8366C121.274 12.5952 121.705 12.4744 122.197 12.4744C122.481 12.4744 122.762 12.5218 123.039 12.6165C123.316 12.7112 123.568 12.8651 123.795 13.0781C124.023 13.2888 124.204 13.5682 124.339 13.9162C124.474 14.2642 124.541 14.6927 124.541 15.2017V15.5568H120.336V14.8324H123.689C123.689 14.5246 123.627 14.25 123.504 14.0085C123.383 13.767 123.211 13.5765 122.986 13.4368C122.763 13.2971 122.5 13.2273 122.197 13.2273C121.863 13.2273 121.575 13.3101 121.331 13.4759C121.089 13.6392 120.903 13.8523 120.773 14.1151C120.643 14.3778 120.578 14.6596 120.578 14.9602V15.4432C120.578 15.8551 120.649 16.2043 120.791 16.4908C120.935 16.7749 121.135 16.9915 121.391 17.1406C121.647 17.2874 121.944 17.3608 122.282 17.3608C122.503 17.3608 122.702 17.33 122.879 17.2685C123.059 17.2045 123.214 17.1098 123.344 16.9844C123.474 16.8565 123.575 16.6979 123.646 16.5085L124.456 16.7358C124.371 17.0104 124.227 17.2519 124.026 17.4602C123.825 17.6662 123.576 17.8272 123.28 17.9432C122.984 18.0568 122.652 18.1136 122.282 18.1136Z" fill="white"/>
<path d="M47.544 38H45.4474L50.1584 24.9091H52.4403L57.1513 38H55.0547L51.3537 27.2869H51.2514L47.544 38ZM47.8956 32.8736H54.6967V34.5355H47.8956V32.8736ZM58.8883 41.6818V28.1818H60.7548V29.7734H60.9146C61.0254 29.5689 61.1852 29.3324 61.394 29.0639C61.6028 28.7955 61.8926 28.5611 62.2633 28.3608C62.6341 28.1562 63.1241 28.054 63.7335 28.054C64.5261 28.054 65.2335 28.2543 65.8556 28.6548C66.4778 29.0554 66.9657 29.6328 67.3194 30.3871C67.6774 31.1413 67.8564 32.049 67.8564 33.1101C67.8564 34.1712 67.6795 35.081 67.3258 35.8395C66.9721 36.5937 66.4863 37.1754 65.8684 37.5845C65.2505 37.9893 64.5453 38.1918 63.7527 38.1918C63.1561 38.1918 62.6681 38.0916 62.2889 37.8913C61.9139 37.6911 61.6199 37.4567 61.4068 37.1882C61.1937 36.9197 61.0297 36.6811 60.9146 36.4723H60.7995V41.6818H58.8883ZM60.7612 33.0909C60.7612 33.7812 60.8613 34.3864 61.0616 34.9062C61.2619 35.4261 61.5517 35.8331 61.9309 36.1271C62.3102 36.4169 62.7747 36.5618 63.3244 36.5618C63.8954 36.5618 64.3727 36.4105 64.7562 36.108C65.1397 35.8011 65.4295 35.3857 65.6255 34.8615C65.8258 34.3374 65.926 33.7472 65.926 33.0909C65.926 32.4432 65.8279 31.8615 65.6319 31.3459C65.4402 30.8303 65.1504 30.4233 64.7626 30.125C64.3791 29.8267 63.8997 29.6776 63.3244 29.6776C62.7704 29.6776 62.3017 29.8203 61.9181 30.1058C61.5389 30.3913 61.2512 30.7898 61.0552 31.3011C60.8592 31.8125 60.7612 32.4091 60.7612 33.0909ZM69.9977 41.6818V28.1818H71.8642V29.7734H72.024C72.1348 29.5689 72.2946 29.3324 72.5034 29.0639C72.7122 28.7955 73.002 28.5611 73.3727 28.3608C73.7434 28.1562 74.2335 28.054 74.8429 28.054C75.6355 28.054 76.3429 28.2543 76.965 28.6548C77.5872 29.0554 78.0751 29.6328 78.4288 30.3871C78.7868 31.1413 78.9657 32.049 78.9657 33.1101C78.9657 34.1712 78.7889 35.081 78.4352 35.8395C78.0815 36.5937 77.5957 37.1754 76.9778 37.5845C76.3599 37.9893 75.6547 38.1918 74.862 38.1918C74.2654 38.1918 73.7775 38.0916 73.3983 37.8913C73.0233 37.6911 72.7292 37.4567 72.5162 37.1882C72.3031 36.9197 72.139 36.6811 72.024 36.4723H71.9089V41.6818H69.9977ZM71.8706 33.0909C71.8706 33.7812 71.9707 34.3864 72.171 34.9062C72.3713 35.4261 72.661 35.8331 73.0403 36.1271C73.4196 36.4169 73.8841 36.5618 74.4338 36.5618C75.0048 36.5618 75.4821 36.4105 75.8656 36.108C76.2491 35.8011 76.5389 35.3857 76.7349 34.8615C76.9352 34.3374 77.0353 33.7472 77.0353 33.0909C77.0353 32.4432 76.9373 31.8615 76.7413 31.3459C76.5495 30.8303 76.2598 30.4233 75.872 30.125C75.4885 29.8267 75.0091 29.6776 74.4338 29.6776C73.8798 29.6776 73.411 29.8203 73.0275 30.1058C72.6483 30.3913 72.3606 30.7898 72.1646 31.3011C71.9686 31.8125 71.8706 32.4091 71.8706 33.0909ZM93.1641 28.348C93.0959 27.7429 92.8146 27.2741 92.3203 26.9418C91.826 26.6051 91.2038 26.4368 90.4538 26.4368C89.9169 26.4368 89.4524 26.522 89.0604 26.6925C88.6683 26.8587 88.3636 27.0888 88.1463 27.3828C87.9332 27.6726 87.8267 28.0028 87.8267 28.3736C87.8267 28.6847 87.8991 28.9531 88.044 29.179C88.1932 29.4048 88.3871 29.5945 88.6257 29.7479C88.8686 29.897 89.1286 30.0227 89.4055 30.125C89.6825 30.223 89.9489 30.304 90.2045 30.3679L91.483 30.7003C91.9006 30.8026 92.3288 30.9411 92.7678 31.1158C93.2067 31.2905 93.6136 31.5206 93.9886 31.8061C94.3636 32.0916 94.6662 32.4453 94.8963 32.8672C95.1307 33.2891 95.2479 33.794 95.2479 34.3821C95.2479 35.1236 95.0561 35.782 94.6726 36.3572C94.2933 36.9325 93.7415 37.3864 93.017 37.7188C92.2969 38.0511 91.4254 38.2173 90.4027 38.2173C89.4226 38.2173 88.5746 38.0618 87.8587 37.7507C87.1428 37.4396 86.5824 36.9986 86.1776 36.4276C85.7727 35.8523 85.549 35.1705 85.5064 34.3821H87.4879C87.5263 34.8551 87.6797 35.2493 87.9482 35.5646C88.2209 35.8757 88.5682 36.108 88.9901 36.2614C89.4162 36.4105 89.8828 36.4851 90.3899 36.4851C90.9482 36.4851 91.4446 36.3977 91.8793 36.223C92.3182 36.044 92.6634 35.7969 92.9148 35.4815C93.1662 35.1619 93.2919 34.7891 93.2919 34.3629C93.2919 33.9751 93.1811 33.6577 92.9595 33.4105C92.7422 33.1634 92.446 32.9588 92.071 32.7969C91.7003 32.6349 91.2805 32.4922 90.8118 32.3686L89.2649 31.9467C88.2166 31.6612 87.3857 31.2415 86.772 30.6875C86.1626 30.1335 85.858 29.4006 85.858 28.4886C85.858 27.7344 86.0625 27.076 86.4716 26.5135C86.8807 25.951 87.4347 25.5142 88.1335 25.2031C88.8324 24.8878 89.6207 24.7301 90.4986 24.7301C91.3849 24.7301 92.1669 24.8857 92.8445 25.1967C93.5263 25.5078 94.0632 25.9361 94.4553 26.4815C94.8473 27.0227 95.0518 27.6449 95.0689 28.348H93.1641ZM102.038 28.1818V29.7159H96.6749V28.1818H102.038ZM98.1131 25.8295H100.024V35.1172C100.024 35.4879 100.08 35.767 100.191 35.9545C100.301 36.1378 100.444 36.2635 100.619 36.3317C100.798 36.3956 100.992 36.4276 101.2 36.4276C101.354 36.4276 101.488 36.4169 101.603 36.3956C101.718 36.3743 101.808 36.3572 101.872 36.3445L102.217 37.9233C102.106 37.9659 101.948 38.0085 101.744 38.0511C101.539 38.098 101.284 38.1236 100.977 38.1278C100.474 38.1364 100.005 38.0469 99.5705 37.8594C99.1358 37.6719 98.7843 37.3821 98.5158 36.9901C98.2473 36.598 98.1131 36.1058 98.1131 35.5135V25.8295ZM108.182 38.1982C107.262 38.1982 106.458 37.9872 105.772 37.5653C105.086 37.1435 104.554 36.5533 104.174 35.7947C103.795 35.0362 103.605 34.1499 103.605 33.1357C103.605 32.1172 103.795 31.2266 104.174 30.4638C104.554 29.701 105.086 29.1087 105.772 28.6868C106.458 28.2649 107.262 28.054 108.182 28.054C109.103 28.054 109.906 28.2649 110.592 28.6868C111.278 29.1087 111.811 29.701 112.19 30.4638C112.569 31.2266 112.759 32.1172 112.759 33.1357C112.759 34.1499 112.569 35.0362 112.19 35.7947C111.811 36.5533 111.278 37.1435 110.592 37.5653C109.906 37.9872 109.103 38.1982 108.182 38.1982ZM108.189 36.5938C108.785 36.5938 109.279 36.4361 109.672 36.1207C110.064 35.8054 110.353 35.3857 110.541 34.8615C110.733 34.3374 110.828 33.7599 110.828 33.1293C110.828 32.5028 110.733 31.9276 110.541 31.4034C110.353 30.875 110.064 30.451 109.672 30.1314C109.279 29.8118 108.785 29.652 108.189 29.652C107.588 29.652 107.089 29.8118 106.693 30.1314C106.301 30.451 106.009 30.875 105.817 31.4034C105.63 31.9276 105.536 32.5028 105.536 33.1293C105.536 33.7599 105.63 34.3374 105.817 34.8615C106.009 35.3857 106.301 35.8054 106.693 36.1207C107.089 36.4361 107.588 36.5938 108.189 36.5938ZM114.892 38V28.1818H116.74V29.7415H116.842C117.021 29.2131 117.336 28.7976 117.788 28.495C118.244 28.1882 118.759 28.0348 119.335 28.0348C119.454 28.0348 119.595 28.0391 119.757 28.0476C119.923 28.0561 120.053 28.0668 120.146 28.0795V29.9077C120.07 29.8864 119.933 29.8629 119.737 29.8374C119.541 29.8075 119.345 29.7926 119.149 29.7926C118.698 29.7926 118.295 29.8885 117.941 30.0803C117.592 30.2678 117.315 30.5298 117.11 30.8665C116.906 31.1989 116.803 31.5781 116.803 32.0043V38H114.892ZM125.68 38.1982C124.713 38.1982 123.88 37.9915 123.181 37.5781C122.487 37.1605 121.95 36.5746 121.57 35.8203C121.195 35.0618 121.008 34.1733 121.008 33.1548C121.008 32.1491 121.195 31.2628 121.57 30.4957C121.95 29.7287 122.478 29.13 123.156 28.6996C123.837 28.2692 124.634 28.054 125.546 28.054C126.1 28.054 126.637 28.1456 127.157 28.3288C127.677 28.5121 128.143 28.7997 128.557 29.1918C128.97 29.5838 129.296 30.093 129.535 30.7195C129.773 31.3416 129.893 32.098 129.893 32.9886V33.6662H122.088V32.2344H128.02C128.02 31.7315 127.918 31.2862 127.713 30.8984C127.509 30.5064 127.221 30.1974 126.85 29.9716C126.484 29.7457 126.053 29.6328 125.559 29.6328C125.022 29.6328 124.553 29.7649 124.153 30.0291C123.756 30.2891 123.45 30.63 123.232 31.0518C123.019 31.4695 122.913 31.9233 122.913 32.4134V33.532C122.913 34.1882 123.028 34.7464 123.258 35.2067C123.492 35.6669 123.818 36.0185 124.236 36.2614C124.653 36.5 125.141 36.6193 125.7 36.6193C126.062 36.6193 126.392 36.5682 126.69 36.4659C126.989 36.3594 127.246 36.2017 127.464 35.9929C127.681 35.7841 127.847 35.5263 127.962 35.2195L129.771 35.5455C129.626 36.0781 129.366 36.5447 128.991 36.9453C128.621 37.3416 128.154 37.6506 127.592 37.8722C127.033 38.0895 126.396 38.1982 125.68 38.1982Z" fill="white"/>
</svg>
