<svg width="153" height="50" viewBox="0 0 153 50" fill="none" xmlns="http://www.w3.org/2000/svg">
<rect x="0.5" y="0.5" width="152" height="49" stroke="white" stroke-opacity="0.5"/>
<path d="M10 10L34.7826 25.0001L10 40V10Z" fill="#01D7FF"/>
<path d="M10.0117 10.0049L26.7109 29.8859L34.784 24.9997L10.0117 10.0049Z" fill="#01EA58"/>
<path d="M26.6889 20.1007L10 39.9716V39.9989L34.7825 24.999L26.6889 20.1001V20.1007Z" fill="#ED2045"/>
<path d="M26.6888 20.1006L22.5898 24.9817L26.7092 29.8857L34.7824 24.9995L26.6888 20.1006Z" fill="#FFD601"/>
<path d="M45.8523 13C45.7741 12.7609 45.6712 12.5466 45.5433 12.3572C45.4179 12.1655 45.2675 12.0021 45.0923 11.8672C44.9195 11.7322 44.723 11.6293 44.5028 11.5582C44.2827 11.4872 44.0412 11.4517 43.7784 11.4517C43.3475 11.4517 42.9557 11.563 42.603 11.7855C42.2502 12.008 41.9697 12.3359 41.7614 12.7692C41.553 13.2024 41.4489 13.7339 41.4489 14.3636C41.4489 14.9934 41.5542 15.5249 41.7649 15.9581C41.9756 16.3913 42.2609 16.7192 42.6207 16.9418C42.9806 17.1643 43.3854 17.2756 43.8352 17.2756C44.2519 17.2756 44.6188 17.1868 44.9361 17.0092C45.2557 16.8293 45.5043 16.576 45.6818 16.2493C45.8617 15.9202 45.9517 15.5331 45.9517 15.0881L46.2216 15.1449H44.0341V14.3636H46.804V15.1449C46.804 15.7438 46.6761 16.2647 46.4205 16.7074C46.1671 17.1501 45.8168 17.4934 45.3693 17.7372C44.9242 17.9787 44.4129 18.0994 43.8352 18.0994C43.1913 18.0994 42.6255 17.9479 42.1378 17.6449C41.6525 17.3419 41.2737 16.911 41.0014 16.3523C40.7315 15.7936 40.5966 15.1307 40.5966 14.3636C40.5966 13.7884 40.6735 13.2711 40.8274 12.8118C40.9837 12.3501 41.2038 11.9571 41.4879 11.6328C41.772 11.3085 42.1082 11.0599 42.4964 10.8871C42.8847 10.7143 43.312 10.6278 43.7784 10.6278C44.1619 10.6278 44.5194 10.6858 44.8509 10.8018C45.1847 10.9155 45.4818 11.0777 45.7422 11.2884C46.005 11.4967 46.224 11.7464 46.3991 12.0376C46.5743 12.3265 46.6951 12.6473 46.7614 13H45.8523ZM50.4856 18.1136C49.96 18.1136 49.5067 17.9976 49.1255 17.7656C48.7467 17.5312 48.4544 17.2045 48.2484 16.7855C48.0448 16.3641 47.943 15.8741 47.943 15.3153C47.943 14.7566 48.0448 14.2642 48.2484 13.8381C48.4544 13.4096 48.7408 13.0758 49.1078 12.8366C49.4771 12.5952 49.908 12.4744 50.4004 12.4744C50.6845 12.4744 50.965 12.5218 51.242 12.6165C51.519 12.7112 51.7711 12.8651 51.9984 13.0781C52.2257 13.2888 52.4068 13.5682 52.5417 13.9162C52.6767 14.2642 52.7441 14.6927 52.7441 15.2017V15.5568H48.5396V14.8324H51.8919C51.8919 14.5246 51.8303 14.25 51.7072 14.0085C51.5865 13.767 51.4136 13.5765 51.1887 13.4368C50.9662 13.2971 50.7034 13.2273 50.4004 13.2273C50.0666 13.2273 49.7778 13.3101 49.5339 13.4759C49.2924 13.6392 49.1066 13.8523 48.9764 14.1151C48.8462 14.3778 48.7811 14.6596 48.7811 14.9602V15.4432C48.7811 15.8551 48.8521 16.2043 48.9941 16.4908C49.1386 16.7749 49.3386 16.9915 49.5943 17.1406C49.85 17.2874 50.1471 17.3608 50.4856 17.3608C50.7058 17.3608 50.9047 17.33 51.0822 17.2685C51.2621 17.2045 51.4172 17.1098 51.5474 16.9844C51.6776 16.8565 51.7782 16.6979 51.8493 16.5085L52.6589 16.7358C52.5737 17.0104 52.4305 17.2519 52.2292 17.4602C52.028 17.6662 51.7794 17.8272 51.4835 17.9432C51.1876 18.0568 50.8549 18.1136 50.4856 18.1136ZM56.3912 12.5455V13.2557H53.5645V12.5455H56.3912ZM54.3883 11.2386H55.2264V16.4375C55.2264 16.6742 55.2607 16.8518 55.3294 16.9702C55.4004 17.0862 55.4904 17.1643 55.5993 17.2045C55.7105 17.2424 55.8277 17.2614 55.9508 17.2614C56.0431 17.2614 56.1189 17.2566 56.1781 17.2472C56.2373 17.2353 56.2846 17.2259 56.3201 17.2188L56.4906 17.9716C56.4338 17.9929 56.3545 18.0142 56.2527 18.0355C56.1509 18.0592 56.0218 18.071 55.8656 18.071C55.6288 18.071 55.3968 18.0201 55.1696 17.9183C54.9447 17.8165 54.7576 17.6615 54.6085 17.4531C54.4617 17.2448 54.3883 16.982 54.3883 16.6648V11.2386ZM61.4586 10.7273V18H60.5779V10.7273H61.4586ZM65.483 12.5455V13.2557H62.6562V12.5455H65.483ZM63.4801 11.2386H64.3182V16.4375C64.3182 16.6742 64.3525 16.8518 64.4212 16.9702C64.4922 17.0862 64.5821 17.1643 64.6911 17.2045C64.8023 17.2424 64.9195 17.2614 65.0426 17.2614C65.1349 17.2614 65.2107 17.2566 65.2699 17.2472C65.3291 17.2353 65.3764 17.2259 65.4119 17.2188L65.5824 17.9716C65.5256 17.9929 65.4463 18.0142 65.3445 18.0355C65.2427 18.0592 65.1136 18.071 64.9574 18.071C64.7206 18.071 64.4886 18.0201 64.2614 17.9183C64.0365 17.8165 63.8494 17.6615 63.7003 17.4531C63.5535 17.2448 63.4801 16.982 63.4801 16.6648V11.2386ZM75.8061 14.3636C75.8061 15.1307 75.6676 15.7936 75.3906 16.3523C75.1136 16.911 74.7337 17.3419 74.2507 17.6449C73.7678 17.9479 73.2161 18.0994 72.5959 18.0994C71.9756 18.0994 71.424 17.9479 70.9411 17.6449C70.4581 17.3419 70.0781 16.911 69.8011 16.3523C69.5241 15.7936 69.3857 15.1307 69.3857 14.3636C69.3857 13.5966 69.5241 12.9337 69.8011 12.375C70.0781 11.8163 70.4581 11.3854 70.9411 11.0824C71.424 10.7794 71.9756 10.6278 72.5959 10.6278C73.2161 10.6278 73.7678 10.7794 74.2507 11.0824C74.7337 11.3854 75.1136 11.8163 75.3906 12.375C75.6676 12.9337 75.8061 13.5966 75.8061 14.3636ZM74.9538 14.3636C74.9538 13.7339 74.8485 13.2024 74.6378 12.7692C74.4295 12.3359 74.1465 12.008 73.7891 11.7855C73.4339 11.563 73.0362 11.4517 72.5959 11.4517C72.1555 11.4517 71.7566 11.563 71.3991 11.7855C71.044 12.008 70.7611 12.3359 70.5504 12.7692C70.3421 13.2024 70.2379 13.7339 70.2379 14.3636C70.2379 14.9934 70.3421 15.5249 70.5504 15.9581C70.7611 16.3913 71.044 16.7192 71.3991 16.9418C71.7566 17.1643 72.1555 17.2756 72.5959 17.2756C73.0362 17.2756 73.4339 17.1643 73.7891 16.9418C74.1465 16.7192 74.4295 16.3913 74.6378 15.9581C74.8485 15.5249 74.9538 14.9934 74.9538 14.3636ZM78.0114 14.7188V18H77.1733V12.5455H77.983V13.3977H78.054C78.1818 13.1207 78.3759 12.8982 78.6364 12.7301C78.8968 12.5597 79.233 12.4744 79.6449 12.4744C80.0142 12.4744 80.3374 12.5502 80.6143 12.7017C80.8913 12.8509 81.1068 13.0781 81.2607 13.3835C81.4145 13.6866 81.4915 14.0701 81.4915 14.5341V18H80.6534V14.5909C80.6534 14.1624 80.5421 13.8286 80.3196 13.5895C80.0971 13.348 79.7917 13.2273 79.4034 13.2273C79.1359 13.2273 78.8968 13.2853 78.6861 13.4013C78.4777 13.5173 78.3132 13.6866 78.1925 13.9091C78.0717 14.1316 78.0114 14.4015 78.0114 14.7188Z" fill="white"/>
<path d="M50.2976 29.0447C50.174 28.657 50.0078 28.3097 49.799 28.0028C49.5945 27.6918 49.3494 27.4276 49.0639 27.2102C48.7784 26.9886 48.4524 26.8203 48.0859 26.7053C47.7237 26.5902 47.3253 26.5327 46.8906 26.5327C46.1534 26.5327 45.4886 26.7223 44.8963 27.1016C44.304 27.4808 43.8352 28.0369 43.4901 28.7699C43.1491 29.4986 42.9787 30.3913 42.9787 31.4482C42.9787 32.5092 43.1513 33.4062 43.4964 34.1392C43.8416 34.8722 44.3146 35.4283 44.9155 35.8075C45.5163 36.1868 46.2003 36.3764 46.9673 36.3764C47.679 36.3764 48.299 36.2315 48.8274 35.9418C49.3601 35.652 49.7713 35.2429 50.0611 34.7145C50.3551 34.1818 50.5021 33.5554 50.5021 32.8352L51.0135 32.9311H47.2678V31.3011H52.4134V32.7905C52.4134 33.8899 52.179 34.8445 51.7102 35.6541C51.2457 36.4595 50.6023 37.0817 49.7798 37.5206C48.9616 37.9595 48.0241 38.179 46.9673 38.179C45.7827 38.179 44.7429 37.9062 43.848 37.3608C42.9574 36.8153 42.2628 36.0419 41.7642 35.0405C41.2656 34.0348 41.0163 32.8416 41.0163 31.4609C41.0163 30.4169 41.1612 29.4794 41.451 28.6484C41.7408 27.8175 42.1477 27.1122 42.6719 26.5327C43.2003 25.9489 43.8203 25.5036 44.532 25.1967C45.2479 24.8857 46.0298 24.7301 46.8778 24.7301C47.5852 24.7301 48.2436 24.8345 48.853 25.0433C49.4666 25.2521 50.0121 25.5483 50.4893 25.9318C50.9709 26.3153 51.3693 26.7713 51.6847 27.2997C52 27.8239 52.2131 28.4055 52.3239 29.0447H50.2976ZM58.9029 38.1982C57.9824 38.1982 57.1792 37.9872 56.4931 37.5653C55.807 37.1435 55.2743 36.5533 54.8951 35.7947C54.5158 35.0362 54.3262 34.1499 54.3262 33.1357C54.3262 32.1172 54.5158 31.2266 54.8951 30.4638C55.2743 29.701 55.807 29.1087 56.4931 28.6868C57.1792 28.2649 57.9824 28.054 58.9029 28.054C59.8233 28.054 60.6266 28.2649 61.3127 28.6868C61.9988 29.1087 62.5314 29.701 62.9107 30.4638C63.29 31.2266 63.4796 32.1172 63.4796 33.1357C63.4796 34.1499 63.29 35.0362 62.9107 35.7947C62.5314 36.5533 61.9988 37.1435 61.3127 37.5653C60.6266 37.9872 59.8233 38.1982 58.9029 38.1982ZM58.9093 36.5938C59.5059 36.5938 60.0002 36.4361 60.3922 36.1207C60.7843 35.8054 61.074 35.3857 61.2615 34.8615C61.4533 34.3374 61.5492 33.7599 61.5492 33.1293C61.5492 32.5028 61.4533 31.9276 61.2615 31.4034C61.074 30.875 60.7843 30.451 60.3922 30.1314C60.0002 29.8118 59.5059 29.652 58.9093 29.652C58.3084 29.652 57.8098 29.8118 57.4135 30.1314C57.0215 30.451 56.7296 30.875 56.5378 31.4034C56.3503 31.9276 56.2566 32.5028 56.2566 33.1293C56.2566 33.7599 56.3503 34.3374 56.5378 34.8615C56.7296 35.3857 57.0215 35.8054 57.4135 36.1207C57.8098 36.4361 58.3084 36.5938 58.9093 36.5938ZM69.7486 38.1982C68.8281 38.1982 68.0249 37.9872 67.3388 37.5653C66.6527 37.1435 66.12 36.5533 65.7408 35.7947C65.3615 35.0362 65.1719 34.1499 65.1719 33.1357C65.1719 32.1172 65.3615 31.2266 65.7408 30.4638C66.12 29.701 66.6527 29.1087 67.3388 28.6868C68.0249 28.2649 68.8281 28.054 69.7486 28.054C70.669 28.054 71.4723 28.2649 72.1584 28.6868C72.8445 29.1087 73.3771 29.701 73.7564 30.4638C74.1357 31.2266 74.3253 32.1172 74.3253 33.1357C74.3253 34.1499 74.1357 35.0362 73.7564 35.7947C73.3771 36.5533 72.8445 37.1435 72.1584 37.5653C71.4723 37.9872 70.669 38.1982 69.7486 38.1982ZM69.755 36.5938C70.3516 36.5938 70.8459 36.4361 71.2379 36.1207C71.63 35.8054 71.9197 35.3857 72.1072 34.8615C72.299 34.3374 72.3949 33.7599 72.3949 33.1293C72.3949 32.5028 72.299 31.9276 72.1072 31.4034C71.9197 30.875 71.63 30.451 71.2379 30.1314C70.8459 29.8118 70.3516 29.652 69.755 29.652C69.1541 29.652 68.6555 29.8118 68.2592 30.1314C67.8672 30.451 67.5753 30.875 67.3835 31.4034C67.196 31.9276 67.1023 32.5028 67.1023 33.1293C67.1023 33.7599 67.196 34.3374 67.3835 34.8615C67.5753 35.3857 67.8672 35.8054 68.2592 36.1207C68.6555 36.4361 69.1541 36.5938 69.755 36.5938ZM80.5751 41.8864C79.7953 41.8864 79.1241 41.7841 78.5616 41.5795C78.0034 41.375 77.5474 41.1044 77.1937 40.7678C76.84 40.4311 76.5758 40.0625 76.4011 39.6619L78.0439 38.9844C78.1589 39.1719 78.3123 39.37 78.5041 39.5788C78.7001 39.7919 78.9643 39.973 79.2967 40.1222C79.6333 40.2713 80.0659 40.3459 80.5943 40.3459C81.3187 40.3459 81.9174 40.169 82.3904 39.8153C82.8635 39.4659 83.1 38.9077 83.1 38.1406V36.2102H82.9785C82.8635 36.419 82.6973 36.6513 82.4799 36.907C82.2669 37.1626 81.9728 37.3842 81.5978 37.5717C81.2228 37.7592 80.7349 37.853 80.1341 37.853C79.3585 37.853 78.6596 37.6719 78.0375 37.3097C77.4196 36.9432 76.9295 36.4041 76.5673 35.6925C76.2093 34.9766 76.0304 34.0966 76.0304 33.0526C76.0304 32.0085 76.2072 31.1136 76.5609 30.3679C76.9189 29.6222 77.4089 29.0511 78.0311 28.6548C78.6532 28.2543 79.3585 28.054 80.1468 28.054C80.7562 28.054 81.2484 28.1562 81.6234 28.3608C81.9984 28.5611 82.2903 28.7955 82.4991 29.0639C82.7122 29.3324 82.8762 29.5689 82.9913 29.7734H83.1319V28.1818H85.0048V38.2173C85.0048 39.0611 84.8088 39.7536 84.4167 40.2947C84.0247 40.8359 83.4941 41.2365 82.8251 41.4964C82.1603 41.7564 81.4103 41.8864 80.5751 41.8864ZM80.5559 36.2678C81.1056 36.2678 81.5701 36.1399 81.9494 35.8842C82.3329 35.6243 82.6227 35.2536 82.8187 34.772C83.019 34.2862 83.1191 33.7045 83.1191 33.027C83.1191 32.3665 83.0211 31.7848 82.8251 31.282C82.6291 30.7791 82.3414 30.3871 81.9622 30.1058C81.5829 29.8203 81.1142 29.6776 80.5559 29.6776C79.9806 29.6776 79.5012 29.8267 79.1177 30.125C78.7342 30.419 78.4444 30.8196 78.2484 31.3267C78.0566 31.8338 77.9608 32.4006 77.9608 33.027C77.9608 33.6705 78.0588 34.2351 78.2548 34.7209C78.4508 35.2067 78.7406 35.5859 79.1241 35.8587C79.5119 36.1314 79.9892 36.2678 80.5559 36.2678ZM89.4792 24.9091V38H87.568V24.9091H89.4792ZM96.282 38.1982C95.3146 38.1982 94.4815 37.9915 93.7827 37.5781C93.0881 37.1605 92.5511 36.5746 92.1719 35.8203C91.7969 35.0618 91.6094 34.1733 91.6094 33.1548C91.6094 32.1491 91.7969 31.2628 92.1719 30.4957C92.5511 29.7287 93.0795 29.13 93.7571 28.6996C94.4389 28.2692 95.2358 28.054 96.1477 28.054C96.7017 28.054 97.2386 28.1456 97.7585 28.3288C98.2784 28.5121 98.745 28.7997 99.1584 29.1918C99.5717 29.5838 99.8977 30.093 100.136 30.7195C100.375 31.3416 100.494 32.098 100.494 32.9886V33.6662H92.6896V32.2344H98.6214C98.6214 31.7315 98.5192 31.2862 98.3146 30.8984C98.1101 30.5064 97.8224 30.1974 97.4517 29.9716C97.0852 29.7457 96.6548 29.6328 96.1605 29.6328C95.6236 29.6328 95.1548 29.7649 94.7543 30.0291C94.358 30.2891 94.0511 30.63 93.8338 31.0518C93.6207 31.4695 93.5142 31.9233 93.5142 32.4134V33.532C93.5142 34.1882 93.6293 34.7464 93.8594 35.2067C94.0938 35.6669 94.4197 36.0185 94.8374 36.2614C95.255 36.5 95.7429 36.6193 96.3011 36.6193C96.6634 36.6193 96.9936 36.5682 97.2919 36.4659C97.5902 36.3594 97.848 36.2017 98.0653 35.9929C98.2827 35.7841 98.4489 35.5263 98.5639 35.2195L100.373 35.5455C100.228 36.0781 99.968 36.5447 99.593 36.9453C99.2223 37.3416 98.7557 37.6506 98.1932 37.8722C97.6349 38.0895 96.9979 38.1982 96.282 38.1982ZM107.532 38V24.9091H112.198C113.217 24.9091 114.06 25.0945 114.729 25.4652C115.398 25.8359 115.899 26.343 116.232 26.9865C116.564 27.6257 116.73 28.3459 116.73 29.147C116.73 29.9524 116.562 30.6768 116.225 31.3203C115.893 31.9595 115.39 32.4666 114.717 32.8416C114.048 33.2124 113.206 33.3977 112.192 33.3977H108.983V31.723H112.013C112.656 31.723 113.178 31.6122 113.579 31.3906C113.979 31.1648 114.273 30.858 114.461 30.4702C114.648 30.0824 114.742 29.6413 114.742 29.147C114.742 28.6527 114.648 28.2138 114.461 27.8303C114.273 27.4467 113.977 27.1463 113.572 26.929C113.172 26.7116 112.643 26.603 111.987 26.603H109.507V38H107.532ZM120.803 24.9091V38H118.892V24.9091H120.803ZM126.232 38.2173C125.61 38.2173 125.047 38.1023 124.544 37.8722C124.042 37.6378 123.643 37.299 123.349 36.8558C123.059 36.4126 122.914 35.8693 122.914 35.2259C122.914 34.6719 123.021 34.2159 123.234 33.858C123.447 33.5 123.735 33.2166 124.097 33.0078C124.459 32.799 124.864 32.6413 125.311 32.5348C125.759 32.4283 126.215 32.3473 126.679 32.2919C127.267 32.2237 127.745 32.1683 128.111 32.1257C128.478 32.0788 128.744 32.0043 128.91 31.902C129.076 31.7997 129.159 31.6335 129.159 31.4034V31.3587C129.159 30.8004 129.002 30.3679 128.686 30.0611C128.375 29.7543 127.911 29.6009 127.293 29.6009C126.65 29.6009 126.142 29.7436 125.772 30.0291C125.405 30.3104 125.152 30.6236 125.011 30.9688L123.215 30.5597C123.428 29.9631 123.739 29.4815 124.148 29.1151C124.561 28.7443 125.037 28.4759 125.574 28.3097C126.11 28.1392 126.675 28.054 127.267 28.054C127.659 28.054 128.075 28.1009 128.514 28.1946C128.957 28.2841 129.37 28.4503 129.754 28.6932C130.142 28.9361 130.459 29.2834 130.706 29.7351C130.953 30.1825 131.077 30.7642 131.077 31.4801V38H129.211V36.6577H129.134C129.01 36.9048 128.825 37.1477 128.578 37.3864C128.331 37.625 128.013 37.8232 127.625 37.9808C127.238 38.1385 126.773 38.2173 126.232 38.2173ZM126.647 36.6832C127.176 36.6832 127.627 36.5788 128.002 36.37C128.382 36.1612 128.669 35.8885 128.865 35.5518C129.066 35.2109 129.166 34.8466 129.166 34.4588V33.1932C129.098 33.2614 128.966 33.3253 128.77 33.3849C128.578 33.4403 128.358 33.4893 128.111 33.532C127.864 33.5703 127.623 33.6065 127.389 33.6406C127.154 33.6705 126.958 33.696 126.801 33.7173C126.43 33.7642 126.091 33.843 125.784 33.9538C125.482 34.0646 125.239 34.2244 125.056 34.4332C124.877 34.6378 124.787 34.9105 124.787 35.2514C124.787 35.7244 124.962 36.0824 125.311 36.3253C125.661 36.5639 126.106 36.6832 126.647 36.6832ZM134.479 41.6818C134.194 41.6818 133.934 41.6584 133.699 41.6115C133.465 41.5689 133.29 41.522 133.175 41.4709L133.635 39.9048C133.985 39.9986 134.296 40.0391 134.569 40.0263C134.841 40.0135 135.082 39.9112 135.291 39.7195C135.504 39.5277 135.692 39.2145 135.854 38.7798L136.09 38.1278L132.498 28.1818H134.543L137.03 35.8011H137.132L139.618 28.1818H141.67L137.624 39.3104C137.437 39.8217 137.198 40.2543 136.908 40.608C136.618 40.9659 136.273 41.2344 135.873 41.4134C135.472 41.5923 135.008 41.6818 134.479 41.6818Z" fill="white"/>
</svg>
