<svg width="85" height="20" viewBox="0 0 85 20" fill="none" xmlns="http://www.w3.org/2000/svg">
<path d="M39.1534 7.03977C39.0436 6.69508 38.8958 6.38636 38.7102 6.11364C38.5284 5.83712 38.3106 5.60227 38.0568 5.40909C37.803 5.21212 37.5133 5.0625 37.1875 4.96023C36.8655 4.85795 36.5114 4.80682 36.125 4.80682C35.4697 4.80682 34.8788 4.97538 34.3523 5.3125C33.8258 5.64962 33.4091 6.14394 33.1023 6.79545C32.7992 7.44318 32.6477 8.23674 32.6477 9.17614C32.6477 10.1193 32.8011 10.9167 33.108 11.5682C33.4148 12.2197 33.8352 12.714 34.3693 13.0511C34.9034 13.3883 35.5114 13.5568 36.1932 13.5568C36.8258 13.5568 37.3769 13.428 37.8466 13.1705C38.3201 12.9129 38.6856 12.5492 38.9432 12.0795C39.2045 11.6061 39.3352 11.0492 39.3352 10.4091L39.7898 10.4943H36.4602V9.04545H41.0341V10.3693C41.0341 11.3466 40.8258 12.1951 40.4091 12.9148C39.9962 13.6307 39.4242 14.1837 38.6932 14.5739C37.9659 14.964 37.1326 15.1591 36.1932 15.1591C35.1402 15.1591 34.2159 14.9167 33.4205 14.4318C32.6288 13.947 32.0114 13.2595 31.5682 12.3693C31.125 11.4754 30.9034 10.4148 30.9034 9.1875C30.9034 8.25947 31.0322 7.42614 31.2898 6.6875C31.5473 5.94886 31.9091 5.32197 32.375 4.80682C32.8447 4.28788 33.3958 3.89205 34.0284 3.61932C34.6648 3.3428 35.3598 3.20455 36.1136 3.20455C36.7424 3.20455 37.3277 3.29735 37.8693 3.48295C38.4148 3.66856 38.8996 3.93182 39.3239 4.27273C39.7519 4.61364 40.1061 5.01894 40.3864 5.48864C40.6667 5.95455 40.8561 6.47159 40.9545 7.03977H39.1534ZM46.8026 15.1761C45.9844 15.1761 45.2704 14.9886 44.6605 14.6136C44.0507 14.2386 43.5772 13.714 43.2401 13.0398C42.9029 12.3655 42.7344 11.5777 42.7344 10.6761C42.7344 9.77083 42.9029 8.97917 43.2401 8.30114C43.5772 7.62311 44.0507 7.09659 44.6605 6.72159C45.2704 6.34659 45.9844 6.15909 46.8026 6.15909C47.6207 6.15909 48.3348 6.34659 48.9446 6.72159C49.5545 7.09659 50.0279 7.62311 50.3651 8.30114C50.7022 8.97917 50.8707 9.77083 50.8707 10.6761C50.8707 11.5777 50.7022 12.3655 50.3651 13.0398C50.0279 13.714 49.5545 14.2386 48.9446 14.6136C48.3348 14.9886 47.6207 15.1761 46.8026 15.1761ZM46.8082 13.75C47.3385 13.75 47.7779 13.6098 48.1264 13.3295C48.4749 13.0492 48.7325 12.6761 48.8991 12.2102C49.0696 11.7443 49.1548 11.2311 49.1548 10.6705C49.1548 10.1136 49.0696 9.60227 48.8991 9.13636C48.7325 8.66667 48.4749 8.28977 48.1264 8.00568C47.7779 7.72159 47.3385 7.57955 46.8082 7.57955C46.2741 7.57955 45.831 7.72159 45.4787 8.00568C45.1302 8.28977 44.8707 8.66667 44.7003 9.13636C44.5336 9.60227 44.4503 10.1136 44.4503 10.6705C44.4503 11.2311 44.5336 11.7443 44.7003 12.2102C44.8707 12.6761 45.1302 13.0492 45.4787 13.3295C45.831 13.6098 46.2741 13.75 46.8082 13.75ZM56.4432 15.1761C55.625 15.1761 54.911 14.9886 54.3011 14.6136C53.6913 14.2386 53.2178 13.714 52.8807 13.0398C52.5436 12.3655 52.375 11.5777 52.375 10.6761C52.375 9.77083 52.5436 8.97917 52.8807 8.30114C53.2178 7.62311 53.6913 7.09659 54.3011 6.72159C54.911 6.34659 55.625 6.15909 56.4432 6.15909C57.2614 6.15909 57.9754 6.34659 58.5852 6.72159C59.1951 7.09659 59.6686 7.62311 60.0057 8.30114C60.3428 8.97917 60.5114 9.77083 60.5114 10.6761C60.5114 11.5777 60.3428 12.3655 60.0057 13.0398C59.6686 13.714 59.1951 14.2386 58.5852 14.6136C57.9754 14.9886 57.2614 15.1761 56.4432 15.1761ZM56.4489 13.75C56.9792 13.75 57.4186 13.6098 57.767 13.3295C58.1155 13.0492 58.3731 12.6761 58.5398 12.2102C58.7102 11.7443 58.7955 11.2311 58.7955 10.6705C58.7955 10.1136 58.7102 9.60227 58.5398 9.13636C58.3731 8.66667 58.1155 8.28977 57.767 8.00568C57.4186 7.72159 56.9792 7.57955 56.4489 7.57955C55.9148 7.57955 55.4716 7.72159 55.1193 8.00568C54.7708 8.28977 54.5114 8.66667 54.3409 9.13636C54.1742 9.60227 54.0909 10.1136 54.0909 10.6705C54.0909 11.2311 54.1742 11.7443 54.3409 12.2102C54.5114 12.6761 54.7708 13.0492 55.1193 13.3295C55.4716 13.6098 55.9148 13.75 56.4489 13.75ZM66.0668 18.4545C65.3736 18.4545 64.777 18.3636 64.277 18.1818C63.7808 18 63.3755 17.7595 63.0611 17.4602C62.7467 17.161 62.5118 16.8333 62.3565 16.4773L63.8168 15.875C63.919 16.0417 64.0554 16.2178 64.2259 16.4034C64.4001 16.5928 64.6349 16.7538 64.9304 16.8864C65.2296 17.0189 65.6141 17.0852 66.0838 17.0852C66.7277 17.0852 67.2599 16.928 67.6804 16.6136C68.1009 16.303 68.3111 15.8068 68.3111 15.125V13.4091H68.2031C68.1009 13.5947 67.9531 13.8011 67.7599 14.0284C67.5705 14.2557 67.3092 14.4527 66.9759 14.6193C66.6425 14.786 66.2088 14.8693 65.6747 14.8693C64.9853 14.8693 64.3641 14.7083 63.8111 14.3864C63.2618 14.0606 62.8262 13.5814 62.5043 12.9489C62.1861 12.3125 62.027 11.5303 62.027 10.6023C62.027 9.67424 62.1842 8.87879 62.4986 8.21591C62.8168 7.55303 63.2524 7.04545 63.8054 6.69318C64.3584 6.33712 64.9853 6.15909 65.6861 6.15909C66.2277 6.15909 66.6652 6.25 66.9986 6.43182C67.3319 6.60985 67.5914 6.81818 67.777 7.05682C67.9664 7.29545 68.1122 7.50568 68.2145 7.6875H68.3395V6.27273H70.0043V15.1932C70.0043 15.9432 69.83 16.5587 69.4815 17.0398C69.133 17.5208 68.6615 17.8769 68.0668 18.108C67.4759 18.339 66.8092 18.4545 66.0668 18.4545ZM66.0497 13.4602C66.5384 13.4602 66.9512 13.3466 67.2884 13.1193C67.6293 12.8883 67.8868 12.5587 68.0611 12.1307C68.2391 11.6989 68.3281 11.1818 68.3281 10.5795C68.3281 9.99242 68.241 9.47538 68.0668 9.02841C67.8925 8.58144 67.6368 8.23295 67.2997 7.98295C66.9626 7.72917 66.5459 7.60227 66.0497 7.60227C65.5384 7.60227 65.1122 7.73485 64.7713 8C64.4304 8.26136 64.1728 8.61742 63.9986 9.06818C63.8281 9.51894 63.7429 10.0227 63.7429 10.5795C63.7429 11.1515 63.83 11.6534 64.0043 12.0852C64.1785 12.517 64.4361 12.8542 64.777 13.0966C65.1217 13.339 65.5459 13.4602 66.0497 13.4602ZM73.9815 3.36364V15H72.2827V3.36364H73.9815ZM80.0284 15.1761C79.1686 15.1761 78.428 14.9924 77.8068 14.625C77.1894 14.2538 76.7121 13.733 76.375 13.0625C76.0417 12.3883 75.875 11.5985 75.875 10.6932C75.875 9.79924 76.0417 9.01136 76.375 8.32955C76.7121 7.64773 77.1818 7.11553 77.7841 6.73295C78.3902 6.35038 79.0985 6.15909 79.9091 6.15909C80.4015 6.15909 80.8788 6.24053 81.3409 6.40341C81.803 6.56629 82.2178 6.82197 82.5852 7.17045C82.9527 7.51894 83.2424 7.97159 83.4545 8.52841C83.6667 9.08144 83.7727 9.75379 83.7727 10.5455V11.1477H76.8352V9.875H82.108C82.108 9.42803 82.017 9.0322 81.8352 8.6875C81.6534 8.33902 81.3977 8.06439 81.0682 7.86364C80.7424 7.66288 80.3598 7.5625 79.9205 7.5625C79.4432 7.5625 79.0265 7.67992 78.6705 7.91477C78.3182 8.14583 78.0455 8.44886 77.8523 8.82386C77.6629 9.19508 77.5682 9.59848 77.5682 10.0341V11.0284C77.5682 11.6117 77.6705 12.108 77.875 12.517C78.0833 12.9261 78.3731 13.2386 78.7443 13.4545C79.1155 13.6667 79.5492 13.7727 80.0455 13.7727C80.3674 13.7727 80.661 13.7273 80.9261 13.6364C81.1913 13.5417 81.4205 13.4015 81.6136 13.2159C81.8068 13.0303 81.9545 12.8011 82.0568 12.5284L83.6648 12.8182C83.536 13.2917 83.3049 13.7064 82.9716 14.0625C82.642 14.4148 82.2273 14.6894 81.7273 14.8864C81.2311 15.0795 80.6648 15.1761 80.0284 15.1761Z" fill="black"/>
<path d="M19.6 10.2222C19.6 9.39995 19.5333 8.79995 19.3889 8.17773H10V11.8888H15.5111C15.4 12.8111 14.8 14.1999 13.4666 15.1332L13.448 15.2575L16.4165 17.5572L16.6222 17.5777C18.5111 15.8333 19.6 13.2666 19.6 10.2222Z" fill="#4285F4"/>
<path d="M10.0037 20.0002C12.7036 20.0002 14.9703 19.1113 16.6259 17.578L13.4703 15.1335C12.6259 15.7224 11.4925 16.1335 10.0037 16.1335C7.35924 16.1335 5.11482 14.3891 4.31474 11.978L4.19747 11.988L1.11068 14.3769L1.07031 14.4891C2.71474 17.7557 6.09253 20.0002 10.0037 20.0002Z" fill="#34A853"/>
<path d="M4.31107 11.9778C4.09996 11.3555 3.97779 10.6888 3.97779 9.99997C3.97779 9.31104 4.09996 8.6444 4.29996 8.02219L4.29437 7.88967L1.1689 5.4624L1.06664 5.51104C0.388893 6.86662 0 8.38887 0 9.99997C0 11.6111 0.388893 13.1333 1.06664 14.4888L4.31107 11.9778Z" fill="#FBBC05"/>
<path d="M10.0037 3.86664C11.8814 3.86664 13.1481 4.67775 13.8703 5.35557L16.6925 2.6C14.9592 0.988893 12.7036 0 10.0037 0C6.09253 0 2.71474 2.24443 1.07031 5.51107L4.30363 8.02221C5.11482 5.61111 7.35924 3.86664 10.0037 3.86664Z" fill="#EB4335"/>
</svg>
