<svg width="19" height="17" viewBox="0 0 19 17" fill="none" xmlns="http://www.w3.org/2000/svg">
<mask id="path-1-outside-1_2202_13462" maskUnits="userSpaceOnUse" x="0" y="0" width="19" height="17" fill="black">
<rect fill="white" width="19" height="17"/>
<path d="M1 5.48817C1.07258 5.05722 1.13974 4.62462 1.29492 4.2134C1.9148 2.56402 3.05487 1.46402 4.82191 1.1038C6.47965 0.766191 7.8992 1.26006 9.06221 2.46985C9.18889 2.59982 9.30757 2.73713 9.41762 2.88107C9.50647 2.99909 9.5582 2.97729 9.63954 2.87408C10.1193 2.26507 10.6937 1.7638 11.4016 1.42701C12.2359 1.02772 13.1144 0.926975 14.0271 1.06514C15.019 1.20664 15.9339 1.67218 16.6255 2.3872C17.3952 3.16851 17.8352 4.1143 17.9996 5.19004C18.1231 5.95885 18.0813 6.74467 17.877 7.49654C17.6492 8.32802 17.2366 9.06697 16.7177 9.75041C15.9314 10.7854 14.9824 11.6679 13.9992 12.5142C12.7577 13.5833 11.505 14.6377 10.2573 15.6986C9.78638 16.0992 9.26787 16.1004 8.80066 15.7027C7.44868 14.5513 6.07669 13.4226 4.74682 12.2465C3.87081 11.4713 3.02317 10.6662 2.31819 9.72985C1.72 8.93497 1.26906 8.07019 1.07801 7.0882C1.04881 6.93852 1.02586 6.7872 1 6.63587V5.48817ZM5.7972 2.02492C5.70334 2.03232 5.60948 2.04137 5.5152 2.04671C4.6734 2.09112 3.93755 2.3946 3.32518 2.96125C2.36574 3.8503 2.00074 4.97168 2.03536 6.24727C2.06081 7.19306 2.40412 8.02701 2.92889 8.79968C3.5859 9.76686 4.42228 10.5753 5.29203 11.3492C6.64317 12.552 8.04521 13.6985 9.4172 14.8758C9.50439 14.9506 9.5557 14.9465 9.63913 14.8758C11.1559 13.5694 12.7189 12.3152 14.1915 10.959C14.9306 10.2776 15.6252 9.55631 16.1846 8.71867C16.948 7.57673 17.2158 6.33815 16.9079 4.99636C16.5016 3.22813 14.9982 1.90114 13.0113 2.04671C12.3022 2.09894 11.6827 2.36582 11.1384 2.81281C10.7154 3.15987 10.3875 3.5826 10.0863 4.03288C9.79931 4.46301 9.2662 4.45725 8.96835 4.03288C8.83528 3.84454 8.71181 3.64839 8.56622 3.46952C7.85373 2.59569 6.9673 2.04301 5.79511 2.02451L5.7972 2.02492Z"/>
</mask>
<path d="M1 5.48817C1.07258 5.05722 1.13974 4.62462 1.29492 4.2134C1.9148 2.56402 3.05487 1.46402 4.82191 1.1038C6.47965 0.766191 7.8992 1.26006 9.06221 2.46985C9.18889 2.59982 9.30757 2.73713 9.41762 2.88107C9.50647 2.99909 9.5582 2.97729 9.63954 2.87408C10.1193 2.26507 10.6937 1.7638 11.4016 1.42701C12.2359 1.02772 13.1144 0.926975 14.0271 1.06514C15.019 1.20664 15.9339 1.67218 16.6255 2.3872C17.3952 3.16851 17.8352 4.1143 17.9996 5.19004C18.1231 5.95885 18.0813 6.74467 17.877 7.49654C17.6492 8.32802 17.2366 9.06697 16.7177 9.75041C15.9314 10.7854 14.9824 11.6679 13.9992 12.5142C12.7577 13.5833 11.505 14.6377 10.2573 15.6986C9.78638 16.0992 9.26787 16.1004 8.80066 15.7027C7.44868 14.5513 6.07669 13.4226 4.74682 12.2465C3.87081 11.4713 3.02317 10.6662 2.31819 9.72985C1.72 8.93497 1.26906 8.07019 1.07801 7.0882C1.04881 6.93852 1.02586 6.7872 1 6.63587V5.48817ZM5.7972 2.02492C5.70334 2.03232 5.60948 2.04137 5.5152 2.04671C4.6734 2.09112 3.93755 2.3946 3.32518 2.96125C2.36574 3.8503 2.00074 4.97168 2.03536 6.24727C2.06081 7.19306 2.40412 8.02701 2.92889 8.79968C3.5859 9.76686 4.42228 10.5753 5.29203 11.3492C6.64317 12.552 8.04521 13.6985 9.4172 14.8758C9.50439 14.9506 9.5557 14.9465 9.63913 14.8758C11.1559 13.5694 12.7189 12.3152 14.1915 10.959C14.9306 10.2776 15.6252 9.55631 16.1846 8.71867C16.948 7.57673 17.2158 6.33815 16.9079 4.99636C16.5016 3.22813 14.9982 1.90114 13.0113 2.04671C12.3022 2.09894 11.6827 2.36582 11.1384 2.81281C10.7154 3.15987 10.3875 3.5826 10.0863 4.03288C9.79931 4.46301 9.2662 4.45725 8.96835 4.03288C8.83528 3.84454 8.71181 3.64839 8.56622 3.46952C7.85373 2.59569 6.9673 2.04301 5.79511 2.02451L5.7972 2.02492Z" fill="black"/>
<path d="M1 5.48817L0.901389 5.47156L0.9 5.47981V5.48817H1ZM1.29492 4.2134L1.38848 4.24871L1.38853 4.24858L1.29492 4.2134ZM4.82191 1.1038L4.80195 1.00581L4.80193 1.00581L4.82191 1.1038ZM9.06221 2.46985L8.99012 2.53916L8.9906 2.53965L9.06221 2.46985ZM9.41762 2.88107L9.49751 2.82092L9.49706 2.82033L9.41762 2.88107ZM9.63954 2.87408L9.71808 2.93598L9.7181 2.93596L9.63954 2.87408ZM11.4016 1.42701L11.4445 1.51731L11.4447 1.51721L11.4016 1.42701ZM14.0271 1.06514L14.0121 1.16402L14.013 1.16414L14.0271 1.06514ZM16.6255 2.3872L16.5536 2.45672L16.5543 2.45738L16.6255 2.3872ZM17.9996 5.19004L17.9007 5.20514L17.9009 5.2059L17.9996 5.19004ZM17.877 7.49654L17.9734 7.52296L17.9735 7.52277L17.877 7.49654ZM16.7177 9.75041L16.7973 9.8109L16.7973 9.81088L16.7177 9.75041ZM13.9992 12.5142L13.9339 12.4384L13.9339 12.4384L13.9992 12.5142ZM10.2573 15.6986L10.1926 15.6224L10.1926 15.6225L10.2573 15.6986ZM8.80066 15.7027L8.73582 15.7789L8.73585 15.7789L8.80066 15.7027ZM4.74682 12.2465L4.68055 12.3214L4.68057 12.3214L4.74682 12.2465ZM2.31819 9.72985L2.23828 9.78998L2.2383 9.79L2.31819 9.72985ZM1.07801 7.0882L1.17617 7.06911L1.17616 7.06906L1.07801 7.0882ZM1 6.63587H0.9V6.64435L0.901429 6.65272L1 6.63587ZM5.7972 2.02492L5.80506 2.12461L5.81653 1.92681L5.7972 2.02492ZM5.5152 2.04671L5.52047 2.14657L5.52087 2.14655L5.5152 2.04671ZM3.32518 2.96125L3.25726 2.88786L3.25721 2.8879L3.32518 2.96125ZM2.03536 6.24727L2.13532 6.24458L2.13532 6.24456L2.03536 6.24727ZM2.92889 8.79968L2.84617 8.85586L2.84617 8.85587L2.92889 8.79968ZM5.29203 11.3492L5.35852 11.2745L5.35851 11.2745L5.29203 11.3492ZM9.4172 14.8758L9.48234 14.7999L9.48232 14.7999L9.4172 14.8758ZM9.63913 14.8758L9.70379 14.9521L9.70439 14.9516L9.63913 14.8758ZM14.1915 10.959L14.2592 11.0325L14.2592 11.0325L14.1915 10.959ZM16.1846 8.71867L16.1015 8.6631L16.1014 8.66313L16.1846 8.71867ZM16.9079 4.99636L17.0054 4.97399L17.0054 4.97396L16.9079 4.99636ZM13.0113 2.04671L13.004 1.94698L13.004 1.94698L13.0113 2.04671ZM11.1384 2.81281L11.2018 2.89011L11.2018 2.89009L11.1384 2.81281ZM10.0863 4.03288L10.0032 3.97728L10.0031 3.97738L10.0863 4.03288ZM8.96835 4.03288L9.05021 3.97543L9.05002 3.97517L8.96835 4.03288ZM8.56622 3.46952L8.64378 3.40639L8.64373 3.40632L8.56622 3.46952ZM5.79511 2.02451L5.79669 1.92452L5.77577 2.12262L5.79511 2.02451ZM1.09861 5.50478C1.17168 5.07092 1.23745 4.64893 1.38848 4.24871L1.20136 4.1781C1.04204 4.6003 0.973483 5.04352 0.901389 5.47156L1.09861 5.50478ZM1.38853 4.24858C1.99783 2.62736 3.11259 1.55431 4.84188 1.20178L4.80193 1.00581C2.99715 1.37373 1.83178 2.50068 1.20132 4.17822L1.38853 4.24858ZM4.84186 1.20179C6.46377 0.871477 7.84921 1.35235 8.99012 2.53916L9.1343 2.40055C7.9492 1.16777 6.49553 0.660904 4.80195 1.00581L4.84186 1.20179ZM8.9906 2.53965C9.1145 2.66676 9.23056 2.80105 9.33818 2.94181L9.49706 2.82033C9.38458 2.67322 9.26328 2.53287 9.13382 2.40005L8.9906 2.53965ZM9.33773 2.94121C9.38208 3.00012 9.44809 3.06985 9.54186 3.05999C9.58618 3.05532 9.62124 3.03362 9.64702 3.01217C9.67278 2.99072 9.69638 2.96352 9.71808 2.93598L9.561 2.81218C9.54204 2.83625 9.52866 2.85047 9.51907 2.85845C9.50949 2.86642 9.51083 2.86215 9.52094 2.86108C9.53348 2.85976 9.5397 2.86514 9.53542 2.86217C9.52936 2.85795 9.51692 2.84671 9.49751 2.82092L9.33773 2.94121ZM9.7181 2.93596C10.1902 2.33665 10.753 1.8463 11.4445 1.51731L11.3586 1.33671C10.6343 1.6813 10.0483 2.19349 9.56099 2.8122L9.7181 2.93596ZM11.4447 1.51721C12.2589 1.12756 13.1168 1.02849 14.0121 1.16402L14.0421 0.96627C13.1119 0.825463 12.2128 0.927888 11.3584 1.33681L11.4447 1.51721ZM14.013 1.16414C14.983 1.30253 15.8776 1.7578 16.5536 2.45672L16.6974 2.31768C15.9903 1.58657 15.0549 1.11076 14.0412 0.966146L14.013 1.16414ZM16.5543 2.45738C17.3078 3.22232 17.7393 4.14823 17.9007 5.20514L18.0985 5.17493C17.9312 4.08037 17.4825 3.11469 16.6968 2.31702L16.5543 2.45738ZM17.9009 5.2059C18.0221 5.96067 17.9811 6.73214 17.7805 7.47031L17.9735 7.52277C18.1816 6.7572 18.2241 5.95703 18.0983 5.17417L17.9009 5.2059ZM17.7805 7.47012C17.557 8.28619 17.1515 9.01377 16.6381 9.68994L16.7973 9.81088C17.3218 9.12017 17.7414 8.36984 17.9734 7.52296L17.7805 7.47012ZM16.6381 9.68991C15.8583 10.7163 14.9157 11.5933 13.9339 12.4384L14.0644 12.59C15.049 11.7425 16.0045 10.8545 16.7973 9.8109L16.6381 9.68991ZM13.9339 12.4384C12.6928 13.5073 11.4408 14.5611 10.1926 15.6224L10.3221 15.7748C11.5693 14.7143 12.8227 13.6594 14.0644 12.59L13.9339 12.4384ZM10.1926 15.6225C9.97095 15.8109 9.74566 15.8994 9.52732 15.9C9.30907 15.9006 9.08494 15.8134 8.86547 15.6266L8.73585 15.7789C8.98358 15.9897 9.25232 16.1007 9.52786 16.1C9.80332 16.0993 10.0728 15.9869 10.3221 15.7748L10.1926 15.6225ZM8.8655 15.6266C7.51171 14.4737 6.14208 13.3469 4.81307 12.1716L4.68057 12.3214C6.01129 13.4982 7.38565 14.629 8.73582 15.7789L8.8655 15.6266ZM4.81309 12.1716C3.9383 11.3975 3.09682 10.5977 2.39807 9.6697L2.2383 9.79C2.94952 10.7346 3.80332 11.5452 4.68055 12.3214L4.81309 12.1716ZM2.39809 9.66972C1.80632 8.88337 1.36357 8.03235 1.17617 7.06911L0.979847 7.1073C1.17455 8.10802 1.63367 8.98657 2.23828 9.78998L2.39809 9.66972ZM1.17616 7.06906C1.14724 6.92083 1.12487 6.7729 1.09857 6.61902L0.901429 6.65272C0.926857 6.80149 0.950372 6.95621 0.979857 7.10735L1.17616 7.06906ZM1.1 6.63587V5.48817H0.9V6.63587H1.1ZM5.78934 1.92523C5.69311 1.93282 5.60241 1.94161 5.50954 1.94687L5.52087 2.14655C5.61655 2.14113 5.71357 2.13182 5.80506 2.12461L5.78934 1.92523ZM5.50994 1.94685C4.64554 1.99245 3.88732 2.30484 3.25726 2.88786L3.3931 3.03465C3.98778 2.48436 4.70126 2.18979 5.52047 2.14657L5.50994 1.94685ZM3.25721 2.8879C2.27265 3.80023 1.90015 4.95157 1.9354 6.24998L2.13532 6.24456C2.10132 4.9918 2.45883 3.90037 3.39315 3.0346L3.25721 2.8879ZM1.9354 6.24996C1.96149 7.21985 2.31385 8.07208 2.84617 8.85586L3.01161 8.7435C2.49439 7.98193 2.16012 7.16628 2.13532 6.24458L1.9354 6.24996ZM2.84617 8.85587C3.5104 9.83367 4.35445 10.6488 5.22556 11.4239L5.35851 11.2745C4.49011 10.5018 3.6614 9.70004 3.01161 8.74349L2.84617 8.85587ZM5.22554 11.4239C6.57729 12.6273 7.98279 13.7767 9.35208 14.9517L9.48232 14.7999C8.10763 13.6203 6.70905 12.4768 5.35852 11.2745L5.22554 11.4239ZM9.35207 14.9517C9.40061 14.9933 9.45916 15.0314 9.53108 15.0304C9.60193 15.0293 9.65863 14.9904 9.70379 14.9521L9.57446 14.7995C9.53619 14.832 9.52553 14.8304 9.52807 14.8304C9.53168 14.8303 9.52098 14.8331 9.48234 14.7999L9.35207 14.9517ZM9.70439 14.9516C11.2174 13.6484 12.7853 12.39 14.2592 11.0325L14.1237 10.8854C12.6526 12.2403 11.0944 13.4903 9.57386 14.8L9.70439 14.9516ZM14.2592 11.0325C15.001 10.3488 15.702 9.62132 16.2677 8.77421L16.1014 8.66313C15.5484 9.49131 14.8603 10.2064 14.1237 10.8854L14.2592 11.0325ZM16.2677 8.77425C17.0452 7.61129 17.3199 6.34476 17.0054 4.97399L16.8105 5.01872C17.1117 6.33154 16.8508 7.54217 16.1015 8.6631L16.2677 8.77425ZM17.0054 4.97396C16.5894 3.16356 15.046 1.79738 13.004 1.94698L13.0187 2.14645C14.9505 2.00491 16.4139 3.29271 16.8105 5.01875L17.0054 4.97396ZM13.004 1.94698C12.2726 2.00085 11.6338 2.27656 11.0749 2.73552L11.2018 2.89009C11.7316 2.45507 12.3318 2.19703 13.0187 2.14644L13.004 1.94698ZM11.0749 2.7355C10.6409 3.09162 10.3066 3.52363 10.0032 3.97728L10.1694 4.08848C10.4684 3.64157 10.7898 3.22812 11.2018 2.89011L11.0749 2.7355ZM10.0031 3.97738C9.87636 4.16736 9.70132 4.25391 9.53175 4.25332C9.36159 4.25273 9.18275 4.16428 9.05021 3.97543L8.8865 4.09033C9.0518 4.32585 9.28844 4.45247 9.53105 4.45332C9.77424 4.45417 10.0093 4.32853 10.1695 4.08838L10.0031 3.97738ZM9.05002 3.97517C8.92118 3.79282 8.79211 3.58865 8.64378 3.40639L8.48866 3.53264C8.6315 3.70814 8.74938 3.89627 8.88668 4.09058L9.05002 3.97517ZM8.64373 3.40632C7.91735 2.51546 7.00515 1.9436 5.79669 1.92452L5.79353 2.1245C6.92945 2.14243 7.79012 2.67591 8.48872 3.53271L8.64373 3.40632ZM5.77577 2.12262L5.77786 2.12303L5.81653 1.92681L5.81445 1.92639L5.77577 2.12262Z" fill="#D5BFB3" mask="url(#path-1-outside-1_2202_13462)"/>
</svg>
