<svg width="15" height="18" viewBox="0 0 15 18" fill="none" xmlns="http://www.w3.org/2000/svg">
<path d="M7.54981 16.9957C5.81545 16.9957 4.08154 16.9852 2.34718 16.9999C1.41576 17.0075 0.896985 16.2775 1.01714 15.5674C1.10046 15.0765 1.09476 14.5716 1.13159 14.0727C1.18246 13.3854 1.2364 12.6985 1.28771 12.0111C1.32411 11.5283 1.357 11.0454 1.39295 10.5625C1.44558 9.85912 1.49995 9.15657 1.5517 8.45318C1.58853 7.94919 1.62099 7.44519 1.65694 6.9412C1.67843 6.64759 1.69071 6.35229 1.7293 6.06037C1.80253 5.50484 2.32174 5.06633 2.90673 5.05957C3.35023 5.05422 3.79343 5.05422 4.23633 5.05957C4.37008 5.05957 4.4078 5.01732 4.42139 4.89058C4.47928 4.35744 4.46524 3.81712 4.57838 3.28904C4.84983 2.00223 6.11014 1.03692 7.47263 1.00101C8.89125 0.963408 10.3669 1.98111 10.5611 3.63208C10.6116 4.05454 10.6366 4.48122 10.662 4.90664C10.6695 5.03338 10.7203 5.06464 10.8418 5.06633C11.3066 5.07266 11.7715 5.04013 12.2354 5.08618C12.5188 5.1132 12.7842 5.23198 12.9885 5.42312C13.1927 5.61426 13.3236 5.86646 13.3598 6.13853C13.4072 6.53015 13.4286 6.92472 13.4593 7.31803C13.5114 7.98439 13.5627 8.65061 13.6133 9.31668C13.6505 9.80969 13.6847 10.3035 13.7216 10.7953C13.7729 11.4826 13.8268 12.17 13.8773 12.8573C13.915 13.3643 13.9487 13.8759 13.9856 14.3849C14.0176 14.831 14.0426 15.2776 14.086 15.7228C14.1456 16.3371 13.6602 17.0021 12.7853 16.9978C11.04 16.989 9.29513 16.9957 7.54981 16.9957ZM7.53446 16.1897H12.7691C13.1269 16.1897 13.2594 16.0629 13.2462 15.725C13.2392 15.5463 13.2239 15.368 13.2111 15.1893C13.1765 14.6857 13.1445 14.1813 13.1059 13.6777C13.0454 12.8751 12.9778 12.0724 12.9178 11.2697C12.8682 10.6086 12.8279 9.94657 12.7788 9.28416C12.706 8.30321 12.6275 7.32268 12.5547 6.34131C12.5323 6.04052 12.3525 5.86646 12.0394 5.86435C11.6675 5.86182 11.2939 5.86435 10.9238 5.86435C10.7366 5.86435 10.7221 5.88252 10.7392 6.06882C10.7594 6.28892 10.7857 6.5086 10.7979 6.72912C10.8164 7.07681 10.6787 7.261 10.4033 7.27241C10.1279 7.28381 9.97747 7.09582 9.95993 6.75616C9.94765 6.50945 9.91608 6.26358 9.90731 6.01644C9.90161 5.8897 9.83846 5.86224 9.71962 5.86224C8.27045 5.86506 6.82099 5.86506 5.37123 5.86224C5.24581 5.86224 5.17916 5.88801 5.17302 6.02277C5.16074 6.2961 5.13969 6.56901 5.11426 6.8415C5.08882 7.11398 4.91166 7.2855 4.66916 7.27156C4.41876 7.25678 4.27054 7.08484 4.28326 6.8001C4.29466 6.54662 4.32141 6.29653 4.34553 6.04516C4.35693 5.92561 4.33369 5.85844 4.18283 5.86139C3.75615 5.86984 3.32947 5.8614 2.90279 5.86689C2.72036 5.86689 2.60152 5.9763 2.55767 6.1474C2.51776 6.30329 2.5318 6.46171 2.51908 6.61929C2.46558 7.29522 2.41398 7.97186 2.36428 8.6492C2.32657 9.15615 2.29412 9.66733 2.25597 10.1764C2.20641 10.8375 2.1516 11.4983 2.10292 12.1594C2.06433 12.6786 2.03276 13.1987 1.99417 13.7183C1.94505 14.379 1.88629 15.0397 1.842 15.7009C1.81788 16.0587 1.95733 16.1892 2.33183 16.1892L7.53446 16.1897ZM7.53446 5.0583C8.24005 5.0583 8.94563 5.05492 9.65121 5.06126C9.80294 5.06126 9.85074 5.00845 9.82092 4.87495C9.79549 4.76047 9.80162 4.64429 9.79329 4.52896C9.76917 4.20916 9.75909 3.88682 9.71085 3.56998C9.55693 2.55608 8.5514 1.69849 7.32397 1.81213C6.38773 1.89831 5.56023 2.58987 5.38702 3.48337C5.29931 3.94428 5.3037 4.41574 5.25239 4.88087C5.2366 5.02197 5.2923 5.0621 5.43569 5.06084C6.13601 5.05492 6.8359 5.05788 7.53622 5.05788L7.53446 5.0583Z" fill="black" stroke="#D5BFB3" stroke-width="0.1"/>
</svg>
