<svg width="22" height="26" viewBox="0 0 22 26" fill="none" xmlns="http://www.w3.org/2000/svg">
<path d="M10.6434 25.993C7.82511 25.993 5.00749 25.9759 2.18916 25.9999C0.675603 26.0123 -0.167399 24.826 0.0278526 23.672C0.163247 22.8743 0.153983 22.0539 0.213841 21.2432C0.296503 20.1263 0.384152 19.01 0.467524 17.8931C0.526673 17.1084 0.580114 16.3238 0.638554 15.5391C0.724064 14.3961 0.812424 13.2544 0.896514 12.1114C0.956374 11.2924 1.0091 10.4734 1.06753 9.6544C1.10245 9.1773 1.1224 8.6975 1.18511 8.2231C1.30411 7.3204 2.14783 6.60778 3.09844 6.5968C3.81911 6.5881 4.53931 6.5881 5.25904 6.5968C5.47638 6.5968 5.53767 6.52815 5.55976 6.3222C5.65382 5.45584 5.63102 4.57782 5.81487 3.7197C6.25597 1.62863 8.30398 0.0599866 10.518 0.00163662C12.8232 -0.0594634 15.2211 1.59431 15.5368 4.27713C15.6188 4.96363 15.6594 5.65699 15.7007 6.34829C15.7128 6.55424 15.7955 6.60504 15.9929 6.60778C16.7482 6.61808 17.5036 6.56522 18.2575 6.64005C18.718 6.68395 19.1493 6.87697 19.4812 7.1876C19.8131 7.4982 20.0258 7.908 20.0846 8.3501C20.1616 8.9865 20.1965 9.6277 20.2464 10.2668C20.331 11.3496 20.4143 12.4322 20.4965 13.5146C20.5571 14.3158 20.6127 15.1183 20.6725 15.9173C20.7559 17.0343 20.8435 18.1512 20.9255 19.2681C20.9868 20.0919 21.0416 20.9233 21.1015 21.7505C21.1535 22.4754 21.1941 23.2011 21.2647 23.9246C21.3616 24.9228 20.5728 26.0033 19.1511 25.9965C16.315 25.9821 13.4795 25.993 10.6434 25.993ZM10.6185 24.6832H19.1248C19.7062 24.6832 19.9214 24.4773 19.9001 23.9281C19.8887 23.6377 19.8637 23.348 19.8431 23.0576C19.7868 22.2393 19.7347 21.4196 19.672 20.6013C19.5737 19.297 19.464 17.9926 19.3663 16.6883C19.2858 15.6139 19.2202 14.5382 19.1404 13.4618C19.0221 11.8677 18.8946 10.2744 18.7763 8.6796C18.74 8.1908 18.4478 7.908 17.939 7.9046C17.3347 7.9005 16.7276 7.9046 16.1261 7.9046C15.8219 7.9046 15.7983 7.9341 15.8261 8.2368C15.8589 8.5945 15.9017 8.9515 15.9216 9.3098C15.9516 9.8748 15.7278 10.1741 15.2803 10.1927C14.8328 10.2112 14.5883 9.9057 14.5598 9.3538C14.5399 8.9529 14.4886 8.5533 14.4743 8.1517C14.4651 7.9458 14.3625 7.9011 14.1693 7.9011C11.8144 7.9057 9.45914 7.9057 7.10325 7.9011C6.89944 7.9011 6.79113 7.943 6.78115 8.162C6.7612 8.6062 6.72699 9.0496 6.68566 9.4924C6.64433 9.9352 6.35644 10.2139 5.96238 10.1913C5.55548 10.1673 5.31462 9.8879 5.33529 9.4252C5.35382 9.0133 5.39728 8.6069 5.43648 8.1984C5.455 8.0041 5.41724 7.895 5.1721 7.8998C4.47874 7.9135 3.78538 7.8998 3.09203 7.9087C2.79558 7.9087 2.60247 8.0865 2.53121 8.3645C2.46636 8.6178 2.48917 8.8753 2.4685 9.1313C2.38156 10.2297 2.29771 11.3293 2.21695 12.4299C2.15567 13.2537 2.10294 14.0844 2.04094 14.9116C1.96042 15.986 1.87134 17.0597 1.79224 18.134C1.72954 18.9777 1.67823 19.8228 1.61552 20.6672C1.53571 21.7409 1.44022 22.8146 1.36825 23.8889C1.32906 24.4704 1.55566 24.6825 2.16422 24.6825L10.6185 24.6832ZM10.6185 6.59474C11.765 6.59474 12.9116 6.58925 14.0582 6.59954C14.3047 6.59954 14.3824 6.51373 14.334 6.2968C14.2926 6.11076 14.3026 5.92197 14.2891 5.73456C14.2499 5.21488 14.2335 4.69109 14.1551 4.17622C13.905 2.52863 12.271 1.13504 10.2764 1.31971C8.75505 1.45975 7.41038 2.58355 7.1289 4.03548C6.98638 4.78445 6.99351 5.55058 6.91013 6.30641C6.88448 6.5357 6.97498 6.60092 7.208 6.59886C8.34602 6.58925 9.48334 6.59405 10.6213 6.59405L10.6185 6.59474Z" fill="white"/>
</svg>
