<svg width="20" height="18" viewBox="0 0 20 18" fill="none" xmlns="http://www.w3.org/2000/svg">
<path fill-rule="evenodd" clip-rule="evenodd" d="M17.8383 1.39441C18.1387 1.07539 18.1387 0.558155 17.8383 0.239139C17.5379 -0.0798759 17.051 -0.0798759 16.7506 0.239139L2.15889 15.7354C1.8585 16.0545 1.8585 16.5716 2.15889 16.8906C2.45928 17.2097 2.94632 17.2097 3.24672 16.8906L5.25744 14.7553C6.65874 15.4558 8.27272 15.917 9.99862 15.917C12.7514 15.917 15.2193 14.7438 16.9939 13.2975C17.8829 12.5728 18.6171 11.7645 19.1357 10.9708C19.64 10.199 19.9984 9.35207 19.9984 8.56491C19.9984 7.77775 19.64 6.93079 19.1357 6.15903C18.6171 5.36532 17.8829 4.55696 16.9939 3.83237C16.7251 3.61325 16.4403 3.40039 16.141 3.19694L17.8383 1.39441ZM15.0236 4.38362L13.2075 6.3124C13.6101 6.95812 13.8447 7.73243 13.8447 8.56491C13.8447 10.8207 12.1228 12.6494 9.99862 12.6494C9.21475 12.6494 8.48564 12.4003 7.87761 11.9727L6.4246 13.5158C7.51743 13.9886 8.72902 14.2832 9.99862 14.2832C12.3437 14.2832 14.491 13.278 16.0572 12.0013C16.8387 11.3645 17.4563 10.6751 17.8719 10.0392C18.3017 9.38148 18.4599 8.86694 18.4599 8.56491C18.4599 8.26287 18.3017 7.74834 17.8719 7.09057C17.4563 6.4547 16.8387 5.76536 16.0572 5.12846C15.736 4.86666 15.3904 4.61626 15.0236 4.38362ZM9.00368 10.7767C9.305 10.9299 9.64233 11.0156 9.99862 11.0156C11.2731 11.0156 12.3063 9.91835 12.3063 8.56491C12.3063 8.18652 12.2255 7.82828 12.0813 7.50828L9.00368 10.7767Z" fill="#666666"/>
<path d="M9.99974 1.21289C11.0585 1.21289 12.0752 1.38644 13.0264 1.68235C13.2095 1.73928 13.264 1.98254 13.1292 2.12575L12.2835 3.02385C12.22 3.09122 12.1281 3.1182 12.0407 3.09685C11.3849 2.93662 10.7012 2.84669 9.99974 2.84669C7.65462 2.84669 5.50732 3.85193 3.9411 5.12853C3.15969 5.76544 2.54206 6.45477 2.12654 7.09064C1.69668 7.74841 1.53842 8.26295 1.53842 8.56498C1.53842 8.86702 1.69668 9.38155 2.12654 10.0393C2.48942 10.5947 3.00647 11.1907 3.65212 11.7571C3.77095 11.8613 3.78227 12.0521 3.6733 12.1678L2.94623 12.94C2.85361 13.0383 2.70581 13.0469 2.60544 12.9576C1.89471 12.3246 1.30153 11.6425 0.862644 10.9709C0.358319 10.1991 0 9.35215 0 8.56498C0 7.77782 0.358319 6.93086 0.862644 6.15911C1.38131 5.3654 2.11545 4.55704 3.00445 3.83245C4.779 2.38604 7.24697 1.21289 9.99974 1.21289Z" fill="#666666"/>
<path d="M9.9984 4.48083C10.1199 4.48083 10.2401 4.48681 10.3587 4.49852C10.5606 4.51845 10.6337 4.77482 10.4903 4.92708L9.24703 6.24747C8.577 6.49237 8.04645 7.05581 7.81585 7.76738L6.57254 9.08771C6.42917 9.23998 6.18776 9.16243 6.169 8.94797C6.15797 8.82205 6.15234 8.6944 6.15234 8.56533C6.15234 6.30952 7.87428 4.48083 9.9984 4.48083Z" fill="#666666"/>
</svg>
