<svg width="48" height="48" viewBox="0 0 48 48" fill="none" xmlns="http://www.w3.org/2000/svg">
<path d="M0.0125046 34.6413C0.0775442 33.4081 0.781723 32.5376 1.63849 31.7533C1.98496 31.4381 2.31016 31.1004 2.64911 30.779C3.57843 29.9035 4.65909 29.622 5.88483 30.006C5.98916 30.053 6.10604 30.0644 6.21747 30.0384C6.3289 30.0124 6.42868 29.9505 6.50146 29.8622C7.32112 29.0283 8.14912 28.2016 8.98547 27.3819C9.2006 27.1718 9.24563 27.0342 9.033 26.7678C7.61964 25.0005 8.07491 22.7203 10.0511 21.6397C10.3013 21.5033 10.3363 21.4108 10.2137 21.1394C9.34569 19.2632 10.1324 17.2983 12.0561 16.5341C12.3438 16.4202 12.4025 16.3014 12.3625 15.9912C12.1561 14.4065 12.9942 13.0132 14.4888 12.4291C14.799 12.304 14.8766 12.1677 14.8228 11.84C14.4613 9.64737 16.5889 7.67867 18.7777 8.17397C18.9073 8.2144 19.0449 8.22243 19.1783 8.19735C19.3118 8.17227 19.437 8.11486 19.5431 8.03013C20.2361 7.52232 21.0528 7.56235 21.8421 7.70118C23.9896 8.07641 26.1297 8.49667 28.2747 8.89566C28.4426 8.92715 28.6129 8.94431 28.7838 8.94694C30.9038 8.97571 32.3835 10.6405 32.1158 12.7342C32.0783 13.0294 32.1283 13.147 32.4085 13.2346C33.1233 13.4791 33.731 13.9643 34.1279 14.6071C34.5248 15.2499 34.6863 16.0106 34.5848 16.7592C34.5423 17.0806 34.6198 17.2595 34.96 17.3846C35.6731 17.6448 36.2726 18.1463 36.6548 18.8021C37.037 19.458 37.1777 20.2268 37.0526 20.9755C37.0125 21.2469 37.0851 21.377 37.3377 21.4646C39.6366 22.2575 40.262 25.1606 38.6998 26.8291C38.5322 27.0079 38.5447 27.1305 38.7123 27.2969C39.5895 28.1624 40.4613 29.0338 41.3277 29.911C41.3857 29.9841 41.4676 30.0345 41.559 30.0535C41.6504 30.0724 41.7456 30.0587 41.828 30.0148C43.2176 29.4757 44.422 29.7809 45.4552 30.834C45.9367 31.3243 46.4295 31.8021 46.9111 32.2912C48.2544 33.6545 48.2719 35.5657 46.9336 36.9352C45.8542 38.0409 44.7523 39.1228 43.6591 40.2147C41.4627 42.4094 39.2656 44.6036 37.0676 46.7975C35.5667 48.2909 33.6805 48.2984 32.1771 46.8062C31.6218 46.2584 31.0514 45.7181 30.5436 45.1315C29.7256 44.1959 29.543 43.1077 29.9632 41.942C30.0758 41.6306 30.047 41.4417 29.8094 41.2103C28.7325 40.1685 27.6744 39.1091 26.61 38.0547C26.4536 37.8996 26.3035 37.7445 26.0534 37.7582C24.8351 37.827 23.6231 37.6669 22.4074 37.6607C22.1353 37.6505 21.8642 37.6998 21.613 37.805C21.3618 37.9102 21.1365 38.0688 20.9528 38.2698C20.0422 39.2166 19.1116 40.1372 18.1661 41.054C17.8859 41.3254 17.8071 41.5455 17.9634 41.9433C18.4375 43.1465 18.2474 44.2785 17.3893 45.2578C16.7746 45.9645 16.1095 46.6258 15.3994 47.2365C14.8442 47.7156 14.139 47.9855 13.4059 47.9997C12.6727 48.0138 11.9577 47.7713 11.3844 47.3141C10.5089 46.6074 9.75844 45.7694 8.98297 44.9526C8.88914 44.862 8.81506 44.753 8.76539 44.6324C8.71572 44.5118 8.69154 44.3823 8.69436 44.2519C8.69718 44.1215 8.72693 43.9931 8.78177 43.8748C8.8366 43.7564 8.91533 43.6507 9.01299 43.5643C9.10542 43.4735 9.21487 43.4018 9.33507 43.3534C9.45526 43.305 9.58383 43.2808 9.7134 43.2822C9.84297 43.2836 9.97099 43.3105 10.0901 43.3615C10.2092 43.4125 10.3171 43.4865 10.4076 43.5793C11.0655 44.2047 11.6921 44.8551 12.3363 45.4904C13.0029 46.1471 13.6796 46.1508 14.3375 45.5017C14.7953 45.0539 15.248 44.6016 15.6958 44.1446C16.3737 43.4567 16.3537 42.8676 15.6795 42.1709C12.5864 38.9752 9.39572 35.8771 6.26382 32.7214C5.07559 31.5257 4.70286 31.5307 3.49963 32.7327C3.14691 33.0854 2.78544 33.4306 2.44273 33.7946C1.9024 34.3674 1.90616 35.0591 2.45774 35.6232C3.09063 36.2711 3.74227 36.899 4.37391 37.5469C4.77665 37.9584 4.84295 38.5087 4.56528 38.9077C4.48829 39.027 4.38569 39.1276 4.26495 39.2022C4.1442 39.2769 4.00834 39.3237 3.86724 39.3393C3.72613 39.3549 3.58333 39.3388 3.44921 39.2923C3.31509 39.2457 3.19302 39.1699 3.09188 39.0703C2.25728 38.3169 1.46397 37.519 0.715432 36.6801C0.255152 36.1548 0.103813 35.5006 0 34.8327L0.0125046 34.6413ZM25.6931 15.6173C25.6931 17.322 24.5675 18.6541 22.8952 18.9455C22.6375 18.9906 22.4349 19.0418 22.3799 19.3708C22.1035 21.0068 21.1291 21.9699 19.4969 22.2613C19.3886 22.2685 19.2866 22.3144 19.2094 22.3906C19.1322 22.4669 19.0851 22.5684 19.0766 22.6766C18.7977 24.3213 17.8121 25.2656 16.1861 25.5533C15.9259 25.5996 15.8209 25.7247 15.7759 25.9748C15.3556 28.2987 13.2743 29.4507 11.108 28.5514C10.8579 28.4488 10.7153 28.4826 10.5377 28.6627C9.72842 29.4857 8.91168 30.3062 8.08492 31.1092C7.84228 31.3443 7.87479 31.4844 8.09868 31.7071C10.767 34.3587 13.4269 37.0165 16.0785 39.6807C16.3287 39.9308 16.47 39.9371 16.7164 39.6807C17.607 38.7638 18.5588 37.9021 19.4156 36.9527C20.2911 35.9784 21.3705 35.6132 22.6325 35.6432C23.6919 35.6682 24.7476 35.7833 25.8107 35.747C26.5962 35.7207 27.2754 35.4969 27.8119 34.8877C27.9984 34.6775 28.1999 34.481 28.4148 34.2999C28.8738 33.9096 29.4704 33.9309 29.8444 34.3336C30.2184 34.7364 30.1971 35.3017 29.7969 35.727C29.4624 36.0978 29.1039 36.4463 28.7237 36.7701C28.4736 36.9728 28.4598 37.0791 28.69 37.303C29.5188 38.1059 30.3356 38.9219 31.1402 39.7507C31.3741 39.9921 31.5079 39.9696 31.7343 39.7432C34.3759 37.0891 37.025 34.442 39.6817 31.8021C39.9518 31.5344 39.9793 31.3606 39.6904 31.0879C39.0325 30.4625 38.4046 29.8146 37.7642 29.1755C37.1239 28.5364 37.1226 28.5339 36.4422 29.0905C36.2905 29.2285 36.0993 29.3155 35.8955 29.339C35.6917 29.3626 35.4857 29.3216 35.3065 29.2218C34.9025 29.0154 34.7474 28.6602 34.8062 28.2074C34.8437 27.8872 35.0401 27.6708 35.2502 27.457C35.8994 26.8028 36.5623 26.1637 37.1951 25.4958C37.4299 25.251 37.561 24.925 37.561 24.5858C37.561 24.2467 37.4299 23.9207 37.1951 23.6759C36.9563 23.4357 36.6346 23.2959 36.296 23.2852C35.9574 23.2745 35.6276 23.3937 35.374 23.6184C35.1139 23.841 34.8837 24.0974 34.6373 24.3363C34.137 24.8266 33.5217 24.8841 33.0989 24.4827C32.6374 24.0449 32.6749 23.4733 33.2127 22.9204C33.6918 22.4289 34.1896 21.9549 34.6649 21.4596C35.2402 20.8592 35.249 20.0837 34.7036 19.5396C34.2033 19.0393 33.3741 19.0606 32.8087 19.5934C32.5248 19.8598 32.2621 20.15 31.9732 20.4114C31.4542 20.883 30.8888 20.8955 30.4723 20.4652C30.0821 20.0612 30.1271 19.4421 30.5974 18.9643C31.1327 18.419 31.6868 17.8911 32.2146 17.3383C32.7675 16.7592 32.7762 15.9625 32.2621 15.4497C31.7481 14.9368 30.9376 14.9318 30.361 15.4497C30.1046 15.6773 29.8707 15.9299 29.6268 16.1713C29.0352 16.7567 28.5011 16.8242 28.0346 16.3727C27.568 15.9212 27.6293 15.3721 28.2072 14.783C28.7237 14.2627 29.2566 13.7574 29.7581 13.2233C30.2897 12.658 30.2934 11.8224 29.7956 11.3209C29.2978 10.8193 28.4198 10.8206 27.8607 11.3734C27.069 12.1476 26.296 12.9419 25.5043 13.7161C25.3204 13.8962 25.2779 14.045 25.3967 14.2864C25.6088 14.697 25.7109 15.1555 25.6931 15.6173ZM45.8829 34.6376C45.8919 34.456 45.8603 34.2746 45.7904 34.1067C45.7205 33.9388 45.6141 33.7886 45.4789 33.667C44.9911 33.1842 44.5146 32.6901 44.0193 32.2149C43.3752 31.597 42.7285 31.6032 42.0906 32.2299C41.4015 32.9078 40.7223 33.5944 40.0381 34.2786C37.4349 36.8794 34.832 39.4805 32.2296 42.0821C31.593 42.7188 31.5905 43.3729 32.2109 44.0058C32.7112 44.5186 33.2115 45.0314 33.7368 45.523C34.2621 46.0145 34.9775 46.0333 35.4954 45.523C38.8424 42.1876 42.1857 38.8497 45.5252 35.5094C45.6461 35.3999 45.7409 35.2648 45.8028 35.114C45.8647 34.9632 45.8921 34.8004 45.8829 34.6376ZM14.3562 15.626C14.357 15.7943 14.3927 15.9606 14.4612 16.1144C14.5297 16.2681 14.6294 16.4059 14.754 16.5191C15.8622 17.6364 16.9749 18.7492 18.0923 19.8573C18.1935 19.9556 18.3075 20.0397 18.4312 20.1075C18.7023 20.2677 19.0224 20.324 19.3319 20.2658C19.6414 20.2076 19.9192 20.0388 20.1135 19.791C20.5 19.307 20.5212 18.5665 20.0797 18.1113C18.9073 16.9039 17.7158 15.7156 16.505 14.5466C16.0973 14.1539 15.5632 14.1489 15.0617 14.384C14.5801 14.6066 14.3537 15.0181 14.3562 15.6248V15.626ZM18.1298 10.1377C17.9088 10.1208 17.6878 10.1695 17.4944 10.2778C16.6852 10.7218 16.5601 11.7086 17.2442 12.4153C18.2136 13.4059 19.2017 14.379 20.1835 15.3571C20.6251 15.7974 21.0503 16.2564 21.5181 16.6654C21.672 16.8042 21.8571 16.904 22.0578 16.9562C22.2584 17.0083 22.4686 17.0114 22.6707 16.9652C22.8728 16.9189 23.0607 16.8247 23.2187 16.6904C23.3766 16.5562 23.4999 16.3858 23.5781 16.1939C23.857 15.5422 23.6444 15.0757 23.009 14.7767C21.1654 13.9112 19.7658 12.5879 18.9728 10.6893C18.8014 10.2677 18.5413 10.1127 18.1298 10.1364V10.1377ZM13.2393 18.3689C12.6339 18.3539 12.2287 18.6128 11.9986 19.1081C11.7484 19.6622 11.8597 20.1838 12.2787 20.609C13.0942 21.4458 13.9235 22.2701 14.7552 23.0906C15.3631 23.6897 16.1686 23.7234 16.7139 23.1894C17.2593 22.6553 17.2643 21.8873 16.6739 21.2682C15.8672 20.4227 15.0279 19.6084 14.1974 18.7879C13.9222 18.519 13.5995 18.3389 13.2393 18.3677V18.3689ZM12.6852 26.8466C13.0429 26.8378 13.4482 26.5964 13.6858 26.0961C13.8054 25.874 13.8514 25.6197 13.8172 25.3698C13.7831 25.1198 13.6705 24.8872 13.4957 24.7053C13.1444 24.3069 12.7684 23.9309 12.37 23.5796C11.9535 23.2131 11.4557 23.2044 10.9679 23.4245C10.4801 23.6446 10.2512 24.0499 10.2437 24.5827C10.2312 25.4195 11.6621 26.8491 12.6852 26.8453V26.8466ZM21.5244 9.67614C20.8027 9.65112 20.7064 9.7762 20.9553 10.254C21.4943 11.2896 22.3198 12.0588 23.2854 12.6892C23.5106 12.8356 23.6607 12.7292 23.8107 12.5729C24.2248 12.1501 24.6538 11.7411 25.0615 11.3134C25.2942 11.0632 25.7707 10.8231 25.6869 10.5729C25.5881 10.2552 25.0678 10.3528 24.7313 10.2828C23.6106 10.0501 22.4774 9.85249 21.5244 9.67488V9.67614Z" fill="black"/>
<path d="M24.2617 0C24.732 0.240146 24.9146 0.649145 24.9159 1.1507C24.9159 2.41272 24.9246 3.67349 24.9159 4.9355C24.9159 5.39078 24.7908 5.80353 24.3393 6.03117C24.1931 6.10715 24.03 6.14447 23.8653 6.1396C23.7007 6.13472 23.54 6.08781 23.3986 6.00332C23.2572 5.91883 23.1398 5.79958 23.0575 5.6569C22.9752 5.51422 22.9308 5.35286 22.9284 5.18816C22.9084 3.75604 22.9222 2.32266 22.9284 0.889292C22.9284 0.465283 23.1886 0.208877 23.5188 0H24.2617Z" fill="black"/>
<path d="M35.7534 5.6334C35.5595 5.62812 35.371 5.56767 35.2102 5.45912C35.0494 5.35057 34.9228 5.19843 34.8454 5.02053C34.654 4.59652 34.7616 4.22254 35.0705 3.9086C35.8347 3.12937 36.6102 2.36266 37.3819 1.59094C37.7346 1.23822 38.0798 0.876752 38.4438 0.536545C38.9066 0.105032 39.4619 0.092525 39.8697 0.484013C40.2774 0.875502 40.3249 1.4421 39.8797 1.90363C38.7627 3.05683 37.617 4.18251 36.4776 5.3132C36.2848 5.50689 36.0264 5.62116 35.7534 5.6334Z" fill="black"/>
<path d="M13.0363 4.6568C13.0256 4.83941 12.9662 5.01585 12.8644 5.16781C12.7626 5.31978 12.622 5.44175 12.4572 5.52108C12.0819 5.70494 11.7067 5.66742 11.4128 5.38599C10.2083 4.20903 9.01381 3.0233 7.8406 1.81632C7.46537 1.43109 7.53791 0.826968 7.92314 0.470501C8.30838 0.114034 8.88498 0.0952725 9.31149 0.515528C10.4572 1.64121 11.5866 2.78066 12.7211 3.91635C12.7868 3.98263 12.8443 4.05653 12.8924 4.13648C12.9885 4.29289 13.0383 4.47327 13.0363 4.6568Z" fill="black"/>
<path d="M5.59911 41.2275C5.59196 41.0986 5.61123 40.9695 5.65573 40.8483C5.70024 40.727 5.76905 40.6162 5.85795 40.5225C5.94684 40.4288 6.05394 40.3542 6.17268 40.3034C6.29142 40.2526 6.41928 40.2266 6.54844 40.2269C6.68076 40.2213 6.81281 40.2435 6.93606 40.2919C7.05932 40.3404 7.17107 40.4141 7.26413 40.5084C7.35719 40.6026 7.42951 40.7153 7.47642 40.8391C7.52334 40.963 7.54381 41.0953 7.53654 41.2275C7.53689 41.487 7.43491 41.7361 7.25274 41.9209C7.07056 42.1056 6.82289 42.2111 6.56345 42.2144C6.30574 42.2082 6.06067 42.1015 5.8805 41.9172C5.70034 41.7328 5.59936 41.4853 5.59911 41.2275Z" fill="black"/>
<path d="M32.1064 31.055C32.3651 31.0582 32.6123 31.1627 32.7949 31.346C32.9775 31.5293 33.081 31.7768 33.0832 32.0356C33.08 32.303 32.9711 32.5582 32.7804 32.7456C32.5896 32.9331 32.3325 33.0375 32.0651 33.0362C31.8071 33.0227 31.5633 32.9135 31.3815 32.7298C31.1997 32.5461 31.0929 32.3013 31.082 32.0431C31.0836 31.9107 31.1115 31.78 31.164 31.6584C31.2165 31.5369 31.2926 31.427 31.3879 31.3351C31.4832 31.2432 31.5957 31.1711 31.7191 31.123C31.8424 31.075 31.9741 31.0518 32.1064 31.055Z" fill="black"/>
</svg>
