<svg width="18" height="18" viewBox="0 0 18 18" fill="none" xmlns="http://www.w3.org/2000/svg">
<path d="M8.02816 0.00157568C12.0369 0.00213627 15.4241 2.86507 16.0579 6.76286C16.4253 9.02204 15.9003 11.0749 14.5474 12.9165C14.4386 13.0645 14.4386 13.1463 14.5721 13.2786C15.6225 14.3146 16.6671 15.3567 17.7058 16.405C18.1388 16.84 18.0856 17.5161 17.6004 17.8429C17.2302 18.0924 16.7473 18.0425 16.4119 17.7089C15.4748 16.7769 14.54 15.8426 13.6074 14.906C13.484 14.7827 13.3533 14.6649 13.2383 14.5338C13.1424 14.4216 13.0661 14.4345 12.9579 14.5181C11.7503 15.4408 10.3856 15.9891 8.87567 16.1281C6.64724 16.3338 4.65045 15.7194 2.92683 14.291C1.36249 12.9944 0.402799 11.3255 0.101038 9.31747C-0.264104 6.88843 0.362415 4.71222 1.94862 2.83648C3.21569 1.33802 4.84396 0.4422 6.77624 0.106406C7.18863 0.0270139 7.60831 -0.00812863 8.02816 0.00157568ZM1.85327 8.06903C1.81401 11.4926 4.62578 14.3067 8.05789 14.3219C11.5158 14.3364 14.3124 11.5111 14.3242 8.09931C14.3354 4.80303 11.7329 1.8689 8.14258 1.83863C7.31773 1.82554 6.49857 1.97734 5.73324 2.28511C4.96791 2.59289 4.27184 3.05043 3.68592 3.63086C3.10001 4.21128 2.63606 4.90289 2.32135 5.66505C2.00663 6.42721 1.84749 7.24454 1.85327 8.06903Z" fill="#666666"/>
</svg>
