<svg width="64" height="82" viewBox="0 0 64 82" fill="none" xmlns="http://www.w3.org/2000/svg">
<path d="M59.5541 29.2902L58.2099 69.2649C58.0954 72.6885 56.6276 75.9335 54.1179 78.3112C51.6083 80.6889 48.2544 82.0121 44.7681 81.9999H19.2286C15.7445 82.0122 12.3926 80.6908 9.88327 78.3159C7.37398 75.9411 5.90463 72.6994 5.78671 69.2781L4.44253 29.2902C4.41312 28.4145 4.73896 27.5632 5.34837 26.9236C5.95779 26.2839 6.80085 25.9083 7.6921 25.8794C8.58335 25.8505 9.44978 26.1707 10.1008 26.7695C10.7518 27.3682 11.134 28.1966 11.1635 29.0723L12.5076 69.0569C12.5746 70.7639 13.3121 72.3789 14.5653 73.5628C15.8186 74.7468 17.49 75.4075 19.2286 75.4062H44.7681C46.5089 75.4074 48.1822 74.7448 49.4358 73.5581C50.6894 72.3713 51.4255 70.753 51.489 69.0437L52.8332 29.0723C52.8626 28.1966 53.2448 27.3682 53.8959 26.7695C54.5469 26.1707 55.4133 25.8505 56.3045 25.8794C57.1958 25.9083 58.0388 26.2839 58.6483 26.9236C59.2577 27.5632 59.5835 28.4145 59.5541 29.2902ZM64 15.9873C64 16.863 63.6459 17.7028 63.0157 18.322C62.3855 18.9412 61.5308 19.2891 60.6395 19.2891H3.36046C2.46921 19.2891 1.61446 18.9412 0.984256 18.322C0.354047 17.7028 0 16.863 0 15.9873C0 15.1116 0.354047 14.2718 0.984256 13.6526C1.61446 13.0334 2.46921 12.6855 3.36046 12.6855H13.7779C14.8426 12.6883 15.8704 12.3018 16.6611 11.6012C17.4518 10.9006 17.949 9.93594 18.0558 8.89505C18.3037 6.45333 19.468 4.18977 21.3218 2.54541C23.1755 0.901039 25.5859 -0.00635036 28.0834 3.34566e-05H35.9133C38.4107 -0.00635036 40.8211 0.901039 42.6749 2.54541C44.5286 4.18977 45.6929 6.45333 45.9409 8.89505C46.0477 9.93594 46.5448 10.9006 47.3355 11.6012C48.1263 12.3018 49.154 12.6883 50.2187 12.6855H60.6362C61.5274 12.6855 62.3822 13.0334 63.0124 13.6526C63.6426 14.2718 63.9966 15.1116 63.9966 15.9873H64ZM23.8895 12.6855H40.1138C39.6722 11.6941 39.3834 10.6436 39.2569 9.56861C39.1737 8.75475 38.7859 8.00022 38.1688 7.45121C37.5517 6.90221 36.7491 6.59781 35.9166 6.597H28.0867C27.2542 6.59781 26.4517 6.90221 25.8346 7.45121C25.2174 8.00022 24.8297 8.75475 24.7464 9.56861C24.6189 10.6438 24.3289 11.6943 23.8862 12.6855H23.8895ZM27.2735 62.7109V34.5962C27.2735 33.7205 26.9195 32.8806 26.2893 32.2614C25.659 31.6422 24.8043 31.2944 23.913 31.2944C23.0218 31.2944 22.167 31.6422 21.5368 32.2614C20.9066 32.8806 20.5526 33.7205 20.5526 34.5962V62.7241C20.5526 63.5998 20.9066 64.4396 21.5368 65.0588C22.167 65.678 23.0218 66.0259 23.913 66.0259C24.8043 66.0259 25.659 65.678 26.2893 65.0588C26.9195 64.4396 27.2735 63.5998 27.2735 62.7241V62.7109ZM43.4508 62.7109V34.5962C43.4508 33.7205 43.0967 32.8806 42.4665 32.2614C41.8363 31.6422 40.9816 31.2944 40.0903 31.2944C39.1991 31.2944 38.3443 31.6422 37.7141 32.2614C37.0839 32.8806 36.7299 33.7205 36.7299 34.5962V62.7241C36.7299 63.5998 37.0839 64.4396 37.7141 65.0588C38.3443 65.678 39.1991 66.0259 40.0903 66.0259C40.9816 66.0259 41.8363 65.678 42.4665 65.0588C43.0967 64.4396 43.4508 63.5998 43.4508 62.7241V62.7109Z" fill="#E83647"/>
</svg>
