<svg width="45" height="50" viewBox="0 0 45 50" fill="none" xmlns="http://www.w3.org/2000/svg">
<path d="M27.4937 1C28.9091 2.14776 29.6567 3.66965 29.9447 5.43782C30.0197 5.89561 30.1323 6.2735 30.5384 6.58088C31.029 6.95031 31.316 7.50586 31.5308 8.08491C31.6012 8.27574 31.6098 8.48397 31.5552 8.67994C31.3554 9.46486 31.18 10.2554 30.9746 11.0403C30.8311 11.6043 30.4643 11.8779 30.0216 11.7735C29.5526 11.6636 29.3519 11.2443 29.4897 10.6559C29.6145 10.1248 29.7252 9.58894 29.8846 9.06817C30.1004 8.36598 29.9465 8.01159 29.2684 7.52748C28.5902 7.04337 27.8023 7.05183 27.0172 7.15147C25.6412 7.33008 24.3609 7.80949 23.1452 8.45998C22.6762 8.7072 22.301 8.68746 21.8321 8.45246C20.3519 7.70045 18.8202 7.08661 17.1196 7.11669C16.3767 7.12986 15.7127 7.3611 15.2437 7.98715C15.1455 8.10618 15.0784 8.24775 15.0483 8.39918C15.0182 8.5506 15.026 8.70714 15.0711 8.85479C15.6038 11.0027 16.1244 13.1535 16.4387 15.3475C16.4669 15.4691 16.4839 15.5931 16.4893 15.7179C16.4724 16.0807 16.6703 16.1672 16.9864 16.1615C17.5624 16.1512 18.1383 16.1615 18.7151 16.1615C21.7514 16.1615 24.7886 16.1559 27.8248 16.1681C28.2544 16.1681 28.5067 16.1268 28.5321 15.5863C28.5621 14.9536 28.7281 14.3276 28.8435 13.6996C28.8614 13.5507 28.9244 13.4109 29.024 13.299C29.1237 13.1871 29.2551 13.1084 29.4006 13.0736C29.5134 13.0395 29.6329 13.0338 29.7484 13.0572C29.864 13.0805 29.9719 13.1321 30.0627 13.2074C30.1535 13.2827 30.2243 13.3793 30.2689 13.4886C30.3134 13.5979 30.3303 13.7166 30.318 13.8341C30.2542 14.6246 30.1079 15.4076 30.0169 16.1954C29.8724 17.44 29.9775 18.6893 29.9587 19.9357C29.9587 20.1322 30.0722 20.291 30.166 20.4508C34.0118 27.046 38.3152 33.3028 43.6373 38.8094C44.1467 39.3367 44.1232 39.7767 43.5435 40.2194C42.2537 41.204 40.8831 42.0776 39.4464 42.8308C39.1866 42.969 39.0384 43.1006 39.0966 43.4343C39.1688 43.8469 38.8818 44.0848 38.5675 44.2906C36.5978 45.5794 34.4807 46.5467 32.269 47.3231C28.604 48.6188 24.7189 49.1728 20.8387 48.9531C18.0703 48.7918 15.3384 48.2392 12.7242 47.3118C12.1736 47.1238 11.941 46.7413 12.0808 46.2957C12.2262 45.8332 12.6511 45.6584 13.2289 45.8586C15.6377 46.7112 18.1517 47.2293 20.7008 47.3983C23.9229 47.6062 27.1563 47.2461 30.2542 46.3342C32.5277 45.6695 34.718 44.7467 36.7826 43.5837C37.1324 43.3863 37.2131 43.2566 36.9467 42.8956C33.5343 38.2745 30.7645 33.2736 28.2769 28.1073C27.858 27.2362 27.4481 26.3589 27.0472 25.4752C26.7461 24.8116 26.8521 24.3585 27.3221 24.1592C27.792 23.9599 28.1466 24.1865 28.4476 24.8417C30.8658 30.1603 33.5915 35.3097 36.8735 40.1508C37.1887 40.6152 37.5301 41.0635 37.8425 41.5279C37.9888 41.7441 38.1239 41.8099 38.3762 41.6699C39.5424 41.0388 40.6746 40.3529 41.7726 39.6122C42.0203 39.4458 42.0221 39.3302 41.8176 39.113C36.8313 33.817 32.737 27.8657 29.0714 21.6042C28.8397 21.2076 28.5968 21.0402 28.1231 21.0468C24.3543 21.0681 20.5855 21.0681 16.8167 21.0468C16.4011 21.0468 16.1816 21.1822 15.9725 21.5394C13.1839 26.3504 10.0848 30.9508 6.57295 35.2636C5.51022 36.5693 4.42121 37.8543 3.23467 39.051C2.98704 39.301 2.95985 39.4326 3.27876 39.6441C4.31898 40.3332 5.38734 40.9724 6.47446 41.5834C6.83465 41.7855 7.02412 41.7338 7.26331 41.3954C9.46288 38.3018 11.3989 35.0484 13.1839 31.701C14.3732 29.4703 15.48 27.2002 16.5259 24.8999C16.582 24.7715 16.6446 24.646 16.7135 24.5239C16.9395 24.1367 17.3354 23.9975 17.7049 24.1686C17.7951 24.2066 17.8767 24.2624 17.9448 24.3328C18.0128 24.4032 18.066 24.4866 18.101 24.5781C18.1361 24.6696 18.1523 24.7673 18.1487 24.8653C18.1451 24.9632 18.1218 25.0594 18.0801 25.1481C17.6868 26.0656 17.2741 26.9743 16.842 27.8742C14.3029 33.1383 11.4955 38.2397 8.01838 42.953C7.81859 43.2246 7.83079 43.375 8.13188 43.5292C8.90947 43.924 9.67955 44.3339 10.4534 44.7362C10.6119 44.806 10.7419 44.9278 10.822 45.0816C10.9022 45.2354 10.9276 45.412 10.8942 45.5822C10.8492 45.9187 10.6325 46.0964 10.3314 46.1951C10.1185 46.2647 9.92999 46.1866 9.74708 46.1011C8.58653 45.5671 7.46531 44.9511 6.39192 44.2577C6.03642 44.0227 5.80381 43.7351 5.91449 43.2876C5.99422 42.9624 5.72689 42.9285 5.55617 42.8345C4.18329 42.0968 2.86488 41.2615 1.61102 40.335C0.826871 39.7503 0.809046 39.3743 1.49096 38.6721C4.54034 35.5325 7.23048 32.0986 9.72927 28.5106C11.5383 25.9117 13.2336 23.2396 14.815 20.4941C14.9632 20.2225 15.044 19.9191 15.0504 19.6095C15.2784 16.0647 14.482 12.6628 13.5759 9.2872C13.3086 8.29078 13.5337 7.50116 14.2091 6.86383C14.7719 6.33836 15.0082 5.75649 15.1424 5.02798C15.4175 3.44521 16.2531 2.01502 17.4958 1H18.1523C18.3416 1.11086 18.495 1.27404 18.5941 1.47001C19.2901 2.78603 19.8595 4.14436 20.0565 5.63335C20.064 5.76478 20.1119 5.89065 20.1937 5.99366C20.2755 6.09667 20.3871 6.17177 20.5133 6.20864C21.0957 6.42578 21.6651 6.67865 22.2354 6.92399C22.3097 6.96407 22.392 6.98691 22.4762 6.99082C22.5605 6.99472 22.6446 6.97959 22.7222 6.94655C23.3347 6.67865 23.951 6.41826 24.5719 6.17198C24.6748 6.13746 24.7649 6.07277 24.8307 5.98628C24.8964 5.89978 24.9347 5.79549 24.9405 5.68693C25.1281 4.1782 25.7069 2.80671 26.4047 1.47565C26.5062 1.2829 26.6571 1.12068 26.8418 1.00564L27.4937 1ZM22.4464 19.5127H27.3014C28.4092 19.5127 28.4092 19.5127 28.4045 18.3978C28.4045 17.7558 28.4045 17.7539 27.7479 17.753C24.4171 17.753 21.0882 17.7474 17.7565 17.753C16.3805 17.753 16.6253 17.565 16.5756 18.9506C16.5587 19.4206 16.7341 19.524 17.1675 19.5146C18.9281 19.4995 20.6877 19.5118 22.4464 19.5118V19.5127ZM18.4722 5.44722C18.3195 4.70363 18.0812 3.98031 17.7621 3.29176C17.6308 3.00976 17.522 3.22972 17.447 3.34722C17.0768 3.92243 16.8116 4.55901 16.6638 5.22726C16.6094 5.4726 16.6638 5.57507 16.9227 5.57036C17.3551 5.5619 17.7884 5.54028 18.218 5.63429C18.3812 5.66907 18.4938 5.60608 18.4722 5.44628V5.44722ZM27.6119 5.54122V5.56754H28.124C28.3276 5.56754 28.3932 5.47354 28.3473 5.26768C28.1864 4.57 27.9086 3.90474 27.5256 3.30022C27.4046 3.1047 27.2986 3.12726 27.2086 3.34158C26.9214 3.9957 26.6966 4.67553 26.537 5.37202C26.4891 5.59481 26.582 5.65967 26.7808 5.63805C27.0594 5.60609 27.3361 5.57131 27.6119 5.5384V5.54122Z" fill="black" stroke="black" stroke-width="0.2"/>
</svg>
