<svg width="15" height="15" viewBox="0 0 15 15" fill="none" xmlns="http://www.w3.org/2000/svg">
<path d="M2.24935 12.0009H5.42843C5.5271 12.0014 5.62492 11.9825 5.71627 11.9452C5.80762 11.9079 5.89071 11.8529 5.96077 11.7834L11.1493 6.58744L13.2786 4.50304C13.3489 4.43334 13.4047 4.35041 13.4428 4.25905C13.4808 4.16768 13.5004 4.06968 13.5004 3.9707C13.5004 3.87172 13.4808 3.77372 13.4428 3.68235C13.4047 3.59098 13.3489 3.50805 13.2786 3.43835L10.0996 0.221784C10.0299 0.151508 9.94694 0.0957289 9.85557 0.0576635C9.76421 0.019598 9.66621 0 9.56723 0C9.46825 0 9.37024 0.019598 9.27888 0.0576635C9.18751 0.0957289 9.10458 0.151508 9.03488 0.221784L6.92049 2.34367L1.717 7.53966C1.64751 7.60972 1.59253 7.69281 1.55522 7.78416C1.51791 7.87551 1.49899 7.97333 1.49957 8.07201V11.2511C1.49957 11.4499 1.57856 11.6407 1.71917 11.7813C1.85978 11.9219 2.05049 12.0009 2.24935 12.0009ZM9.56723 1.81132L11.6891 3.93321L10.6244 4.9979L8.50253 2.87601L9.56723 1.81132ZM2.99913 8.37942L7.44534 3.93321L9.56723 6.05509L5.12102 10.5013H2.99913V8.37942ZM14.2459 13.5004H0.749783C0.550928 13.5004 0.360218 13.5794 0.219606 13.72C0.0789947 13.8607 0 14.0514 0 14.2502C0 14.4491 0.0789947 14.6398 0.219606 14.7804C0.360218 14.921 0.550928 15 0.749783 15H14.2459C14.4447 15 14.6354 14.921 14.776 14.7804C14.9167 14.6398 14.9957 14.4491 14.9957 14.2502C14.9957 14.0514 14.9167 13.8607 14.776 13.72C14.6354 13.5794 14.4447 13.5004 14.2459 13.5004Z" fill="#00AB11"/>
</svg>
