<svg width="21" height="18" viewBox="0 0 21 18" fill="none" xmlns="http://www.w3.org/2000/svg">
<path d="M17.8889 1H3.66667C2.194 1 1 2.194 1 3.66667V14.3333C1 15.806 2.194 17 3.66667 17H17.8889C19.3616 17 20.5556 15.806 20.5556 14.3333V3.66667C20.5556 2.194 19.3616 1 17.8889 1ZM17.8889 2.77778C17.9916 2.77778 18.0902 2.79511 18.1818 2.82733L10.7778 8.75067L3.37378 2.82733C3.4679 2.79435 3.56694 2.7776 3.66667 2.77778H17.8889ZM17.8889 15.2222H3.66667C3.43092 15.2222 3.20483 15.1286 3.03813 14.9619C2.87143 14.7952 2.77778 14.5691 2.77778 14.3333V4.62711L10.2224 10.5829C10.3847 10.7129 10.5811 10.7778 10.7778 10.7778C10.9744 10.7778 11.1709 10.7129 11.3331 10.5829L18.7778 4.62711V14.3333C18.7778 14.5691 18.6841 14.7952 18.5174 14.9619C18.3507 15.1286 18.1246 15.2222 17.8889 15.2222Z" fill="black" stroke="white" stroke-width="0.2"/>
</svg>
