<svg width="55" height="38" viewBox="0 0 55 38" fill="none" xmlns="http://www.w3.org/2000/svg">
<path d="M1 16.3117C1.40653 15.6991 1.97456 15.5334 2.70131 15.5362C9.42164 15.5543 16.142 15.5459 22.8623 15.5487C23.8884 15.5487 24.4453 16.0903 24.3854 17.0189C24.3701 17.3253 24.2439 17.6156 24.0302 17.8357C23.8165 18.0557 23.5301 18.1905 23.2243 18.2148C23.0336 18.2315 22.8414 18.2232 22.6507 18.2232C16.0004 18.2232 9.34971 18.2269 2.69852 18.2343C1.97874 18.2343 1.40236 18.077 1 17.4575V16.3117Z" fill="black" stroke="#F9F9F9" stroke-width="0.1"/>
<path d="M25.5669 1.00247H36.2468C36.4208 1.00247 36.5949 1.00247 36.7689 1.00247C38.3477 1.06234 38.9686 1.68329 38.9547 3.25791C38.9547 3.72709 39.0758 3.89973 39.5687 3.88302C40.592 3.84822 41.6181 3.87188 42.6427 3.87327C44.9942 3.87327 46.8014 5.13742 47.6228 7.35386C48.4173 9.50255 49.209 11.6522 49.9979 13.8027C50.1744 14.2928 50.4724 14.7302 50.8639 15.0738C51.8608 15.9663 52.8339 16.8837 53.8071 17.7998C53.995 17.9688 54.1446 18.1759 54.2459 18.4074C54.3472 18.6388 54.3979 18.8893 54.3946 19.1419C54.3946 23.0848 54.3946 27.0262 54.3946 30.976C54.4033 31.4067 54.2488 31.8248 53.9622 32.1465C53.6756 32.4682 53.2781 32.6697 52.8492 32.7107C51.7591 32.8388 50.6634 32.7636 49.5705 32.7594C49.1166 32.7594 48.905 32.907 48.7435 33.34C47.9082 35.5676 45.8658 36.9278 43.538 36.9974C41.2742 37.0656 38.9436 35.5829 38.1583 33.3637C37.9996 32.9154 37.7741 32.7538 37.291 32.758C34.8249 32.7812 32.3588 32.7812 29.8926 32.758C29.4123 32.758 29.1965 32.9154 29.028 33.365C28.2609 35.4966 26.0445 37.0907 23.5454 36.996C22.4206 36.9538 21.3334 36.5792 20.4213 35.9196C19.5092 35.26 18.813 34.3449 18.4206 33.2899C18.273 32.8945 18.0795 32.7511 17.666 32.7594C16.6246 32.7831 15.5776 32.7719 14.5404 32.7594C14.2611 32.759 13.9821 32.7409 13.7051 32.7051C12.9561 32.6063 12.505 32.0577 12.5342 31.3031C12.5444 30.9603 12.6889 30.6352 12.9366 30.398C13.1843 30.1607 13.5153 30.0303 13.8582 30.0348C15.1252 30.0181 16.3935 30.0139 17.6618 30.0348C18.0586 30.0348 18.2313 29.9067 18.358 29.5308C19.21 27.1097 21.3123 25.6326 23.8322 25.6534C26.2143 25.6701 28.3278 27.2225 29.1227 29.574C29.2397 29.9192 29.4012 30.0334 29.7492 30.032C32.3026 30.0209 34.855 30.0209 37.4065 30.032C37.7616 30.032 37.9244 29.9137 38.0428 29.5809C38.9088 27.1292 40.9762 25.6437 43.4725 25.6507C45.9173 25.6507 47.9862 27.1821 48.8299 29.6213C48.9343 29.922 49.0791 30.039 49.3867 30.0292C49.9938 30.0139 50.6022 30.0111 51.2092 30.0292C51.5572 30.0404 51.7076 29.936 51.7062 29.5601C51.6969 26.3468 51.6969 23.1335 51.7062 19.9202C51.7082 19.8078 51.684 19.6966 51.6357 19.5951C51.5874 19.4936 51.5162 19.4048 51.4278 19.3355C50.5562 18.5642 49.6833 17.7943 48.8299 17.0049C48.5834 16.7765 48.3175 16.7529 48.0168 16.7529C44.7868 16.7529 41.5554 16.7181 38.3268 16.7737C37.0557 16.796 36.1855 16.0052 36.1911 14.6576C36.2009 12.3993 36.1911 10.1411 36.1911 7.88431C36.1911 6.7204 36.1661 5.55509 36.2022 4.39257C36.219 3.86491 36.0533 3.71595 35.5242 3.71734C28.4702 3.73404 21.4195 3.73777 14.372 3.72849C14.1631 3.72849 13.9543 3.72849 13.7469 3.72849C13.4223 3.71597 13.1145 3.58086 12.8856 3.3504C12.6567 3.11994 12.5237 2.81126 12.5133 2.4866C12.4813 1.75846 12.931 1.17511 13.6188 1.07348C13.98 1.02379 14.3443 1.00052 14.7089 1.00387C18.3343 0.999227 21.9536 0.998762 25.5669 1.00247ZM43.0757 14.0895C44.3079 14.0895 45.54 14.0895 46.7721 14.0895C47.0506 14.0895 47.2079 14.0714 47.0742 13.7178C46.3781 11.8689 45.7126 10.0047 44.997 8.16137C44.61 7.16174 43.8442 6.62155 42.7472 6.61599C41.671 6.61599 40.5948 6.62572 39.5186 6.60344C39.08 6.59509 38.9547 6.76913 38.9617 7.18959C38.9784 9.30764 38.9784 11.4252 38.9617 13.5424C38.9617 13.9893 39.1232 14.0993 39.5394 14.0993C40.7131 14.0756 41.8951 14.0867 43.0799 14.0867L43.0757 14.0895ZM43.4544 28.4142C41.7837 28.4142 40.5182 29.6547 40.514 31.3254C40.5079 31.7125 40.5785 32.097 40.7218 32.4566C40.865 32.8163 41.078 33.1441 41.3485 33.421C41.619 33.698 41.9416 33.9187 42.2978 34.0704C42.654 34.2221 43.0367 34.3017 43.4238 34.3048C45.0137 34.3048 46.3962 32.9362 46.4004 31.3546C46.4024 30.9675 46.3276 30.5839 46.1802 30.2259C46.0328 29.868 45.8157 29.5428 45.5417 29.2694C45.2676 28.996 44.942 28.7798 44.5837 28.6332C44.2254 28.4866 43.8415 28.4127 43.4544 28.4156V28.4142ZM20.8138 31.3115C20.8059 31.6986 20.8747 32.0834 21.0162 32.4438C21.1577 32.8042 21.3692 33.133 21.6384 33.4112C21.9076 33.6895 22.2292 33.9117 22.5847 34.0651C22.9402 34.2185 23.3226 34.2999 23.7097 34.3048C25.3052 34.3201 26.7155 32.9126 26.7016 31.3129C26.695 30.5399 26.3825 29.801 25.8325 29.2578C25.2825 28.7146 24.5398 28.4113 23.7668 28.4142C22.0891 28.4017 20.8208 29.645 20.8138 31.3087V31.3115Z" fill="black" stroke="#F9F9F9" stroke-width="0.1"/>
<path d="M15.6733 11.0283C13.2619 11.0283 10.8506 11.0283 8.43366 11.0283C7.31152 11.0283 6.63628 10.0287 7.09433 9.07915C7.35885 8.53478 7.835 8.31899 8.40443 8.28279C8.76641 8.26052 9.13256 8.27304 9.49594 8.27304C13.8341 8.27304 18.1719 8.27304 22.5092 8.27304C22.7686 8.26753 23.0279 8.28806 23.2833 8.33431C24.0434 8.49163 24.4374 9.03043 24.3804 9.79894C24.3596 10.1327 24.2107 10.4454 23.9647 10.6719C23.7188 10.8984 23.3948 11.0211 23.0605 11.0144C21.898 11.038 20.7355 11.0227 19.5799 11.0241L15.6733 11.0283Z" fill="black" stroke="#F9F9F9" stroke-width="0.1"/>
<path d="M10.315 22.7423C11.7908 22.7423 13.2666 22.7298 14.7423 22.7423C15.7072 22.7548 16.2961 23.4788 16.1346 24.4005C16.0204 25.059 15.4301 25.4836 14.5683 25.4906C13.2485 25.5031 11.9231 25.4906 10.6102 25.4906H6.3917C6.26918 25.4906 6.14806 25.4906 6.02693 25.4906C5.09692 25.4586 4.43421 24.8878 4.42586 24.1151C4.41751 23.2923 5.06351 22.7381 6.04364 22.7354C7.46929 22.7395 8.89217 22.7423 10.315 22.7423Z" fill="black" stroke="#F9F9F9" stroke-width="0.1"/>
</svg>
