<svg width="24" height="24" viewBox="0 0 24 24" fill="none" xmlns="http://www.w3.org/2000/svg">
<g clip-path="url(#clip0_2472_12018)">
<path d="M22.4053 2.17256e-06H1.00877C0.82362 -0.000382711 0.641959 0.050378 0.483825 0.146686C0.325692 0.242993 0.19723 0.381105 0.112609 0.545789C0.0268453 0.712755 -0.0111447 0.900162 0.00282828 1.08735C0.0168012 1.27453 0.0821944 1.45422 0.191797 1.6066L8.03066 12.6493C8.03328 12.6532 8.03614 12.6567 8.03876 12.6605C8.32362 13.0451 8.47773 13.5109 8.4785 13.9894V22.9925C8.47768 23.1245 8.50294 23.2553 8.55284 23.3775C8.60273 23.4997 8.67627 23.6108 8.76924 23.7044C8.86229 23.798 8.97292 23.8723 9.09476 23.9231C9.2166 23.9738 9.34727 23.9999 9.47925 24C9.61475 23.9998 9.74887 23.9729 9.87397 23.9208L14.2788 22.2414C14.6734 22.1208 14.9354 21.7483 14.9354 21.3001V13.9894C14.9361 13.5109 15.0901 13.0452 15.3748 12.6605C15.3774 12.6567 15.3803 12.6532 15.3829 12.6493L23.222 1.60636C23.3316 1.45408 23.397 1.27448 23.4109 1.08738C23.4249 0.900285 23.3869 0.712965 23.3012 0.546093C23.2167 0.381355 23.0883 0.243173 22.9302 0.146805C22.7721 0.0504377 22.5905 -0.000366559 22.4053 2.17256e-06Z" fill="black"/>
</g>
<defs>
<clipPath id="clip0_2472_12018">
<rect width="24" height="24" fill="white"/>
</clipPath>
</defs>
</svg>
