<svg width="20" height="15" viewBox="0 0 20 15" fill="none" xmlns="http://www.w3.org/2000/svg">
<path d="M10.3529 3.97052H0.882353C0.648338 3.97052 0.423908 3.87755 0.258435 3.71208C0.0929618 3.54661 0 3.32218 0 3.08816C0 2.85415 0.0929618 2.62972 0.258435 2.46425C0.423908 2.29877 0.648338 2.20581 0.882353 2.20581H10.3529C10.587 2.20581 10.8114 2.29877 10.9769 2.46425C11.1423 2.62972 11.2353 2.85415 11.2353 3.08816C11.2353 3.32218 11.1423 3.54661 10.9769 3.71208C10.8114 3.87755 10.587 3.97052 10.3529 3.97052ZM18.2941 3.97052H14.7647C14.5307 3.97052 14.3063 3.87755 14.1408 3.71208C13.9753 3.54661 13.8823 3.32218 13.8823 3.08816C13.8823 2.85415 13.9753 2.62972 14.1408 2.46425C14.3063 2.29877 14.5307 2.20581 14.7647 2.20581H18.2941C18.5281 2.20581 18.7526 2.29877 18.918 2.46425C19.0835 2.62972 19.1765 2.85415 19.1765 3.08816C19.1765 3.32218 19.0835 3.54661 18.918 3.71208C18.7526 3.87755 18.5281 3.97052 18.2941 3.97052Z" fill="black"/>
<path d="M12.5588 6.17647C11.948 6.17647 11.3509 5.99535 10.8431 5.65601C10.3352 5.31667 9.9394 4.83435 9.70566 4.27005C9.47192 3.70575 9.41076 3.08481 9.52992 2.48575C9.64908 1.88669 9.94321 1.33642 10.3751 0.904524C10.807 0.472627 11.3573 0.178501 11.9563 0.0593409C12.5554 -0.0598193 13.1763 0.00133808 13.7406 0.235079C14.3049 0.46882 14.7873 0.864647 15.1266 1.3725C15.4659 1.88036 15.6471 2.47744 15.6471 3.08824C15.6471 3.90729 15.3217 4.69279 14.7425 5.27195C14.1634 5.8511 13.3779 6.17647 12.5588 6.17647ZM12.5588 1.76471C12.297 1.76471 12.0412 1.84233 11.8235 1.98776C11.6059 2.13319 11.4362 2.3399 11.336 2.58174C11.2359 2.82359 11.2097 3.0897 11.2607 3.34644C11.3118 3.60318 11.4378 3.83901 11.6229 4.02411C11.808 4.20921 12.0439 4.33526 12.3006 4.38633C12.5574 4.4374 12.8235 4.41119 13.0653 4.31102C13.3072 4.21084 13.5139 4.0412 13.6593 3.82355C13.8047 3.6059 13.8823 3.35 13.8823 3.08824C13.8823 2.73721 13.7429 2.40057 13.4947 2.15236C13.2465 1.90415 12.9098 1.76471 12.5588 1.76471ZM18.2941 12.7941H8.82353C8.58951 12.7941 8.36508 12.7012 8.19961 12.5357C8.03414 12.3702 7.94117 12.1458 7.94117 11.9118C7.94117 11.6777 8.03414 11.4533 8.19961 11.2878C8.36508 11.1224 8.58951 11.0294 8.82353 11.0294H18.2941C18.5281 11.0294 18.7526 11.1224 18.918 11.2878C19.0835 11.4533 19.1765 11.6777 19.1765 11.9118C19.1765 12.1458 19.0835 12.3702 18.918 12.5357C18.7526 12.7012 18.5281 12.7941 18.2941 12.7941ZM4.41176 12.7941H0.882353C0.648338 12.7941 0.423908 12.7012 0.258435 12.5357C0.0929618 12.3702 0 12.1458 0 11.9118C0 11.6777 0.0929618 11.4533 0.258435 11.2878C0.423908 11.1224 0.648338 11.0294 0.882353 11.0294H4.41176C4.64578 11.0294 4.87021 11.1224 5.03568 11.2878C5.20115 11.4533 5.29412 11.6777 5.29412 11.9118C5.29412 12.1458 5.20115 12.3702 5.03568 12.5357C4.87021 12.7012 4.64578 12.7941 4.41176 12.7941Z" fill="black"/>
<path d="M6.61949 15C6.00869 15 5.41161 14.8188 4.90375 14.4795C4.3959 14.1402 4.00007 13.6578 3.76633 13.0935C3.53259 12.5292 3.47143 11.9083 3.59059 11.3092C3.70975 10.7102 4.00388 10.1599 4.43577 9.72801C4.86767 9.29611 5.41794 9.00199 6.017 8.88283C6.61606 8.76367 7.237 8.82483 7.8013 9.05857C8.3656 9.29231 8.84792 9.68813 9.18726 10.196C9.5266 10.7038 9.70772 11.3009 9.70772 11.9117C9.70772 12.7308 9.38235 13.5163 8.8032 14.0954C8.22404 14.6746 7.43854 15 6.61949 15ZM6.61949 10.5882C6.35772 10.5882 6.10183 10.6658 5.88417 10.8112C5.66652 10.9567 5.49688 11.1634 5.3967 11.4052C5.29653 11.6471 5.27032 11.9132 5.32139 12.1699C5.37246 12.4267 5.49851 12.6625 5.68361 12.8476C5.86871 13.0327 6.10454 13.1588 6.36128 13.2098C6.61802 13.2609 6.88414 13.2347 7.12598 13.1345C7.36782 13.0343 7.57453 12.8647 7.71996 12.647C7.86539 12.4294 7.94301 12.1735 7.94301 11.9117C7.94301 11.5607 7.80357 11.2241 7.55536 10.9758C7.30715 10.7276 6.97051 10.5882 6.61949 10.5882Z" fill="black"/>
</svg>
