<svg width="37" height="25" viewBox="0 0 37 25" fill="none" xmlns="http://www.w3.org/2000/svg">
<path d="M0 9.4192C0.243584 8.83517 0.700068 8.60791 1.3119 8.6175C1.8873 8.62709 2.46269 8.6175 3.03809 8.6175C3.26249 8.6175 3.36606 8.5427 3.36127 8.30487C3.35168 7.82537 3.35168 7.34588 3.36127 6.86638C3.36702 6.62951 3.26536 6.5432 3.03904 6.55663C2.89563 6.56478 2.75187 6.56478 2.60845 6.55663C1.99758 6.52978 1.53151 6.10974 1.48931 5.55161C1.44328 4.92635 1.82304 4.44397 2.45406 4.32794C2.50137 4.31977 2.54906 4.31401 2.59695 4.31068C3.35934 4.25026 3.35935 4.25026 3.35935 3.46964C3.35935 2.78684 3.35935 2.10467 3.35935 1.42315C3.35935 0.417169 3.77267 0 4.77098 0C9.85554 0 14.9401 0 20.0247 0C21.4248 0 22.8246 0 24.2241 0C25.1677 0 25.583 0.417173 25.583 1.35507C25.583 2.65929 25.583 3.9632 25.583 5.26679C25.583 5.7319 25.583 5.73285 26.0625 5.73381C27.1385 5.73381 28.2154 5.74435 29.2924 5.72901C29.5076 5.71953 29.7223 5.75758 29.9212 5.84045C30.1201 5.92332 30.2983 6.04898 30.4431 6.2085C32.4251 8.26841 34.4121 10.3239 36.4042 12.3748C36.5286 12.496 36.6268 12.6414 36.6928 12.8021C36.7588 12.9628 36.7911 13.1352 36.7878 13.3089C36.7821 15.7495 36.7878 18.1901 36.7878 20.6308C36.7878 21.3826 36.3409 21.8285 35.5814 21.8448C35.1978 21.8535 34.8142 21.8554 34.4306 21.8448C34.3369 21.8314 34.2414 21.8522 34.1618 21.9034C34.0821 21.9547 34.0237 22.033 33.9972 22.1239C33.2798 23.8348 31.9833 24.8033 30.1459 24.975C29.2072 25.051 28.2688 24.8252 27.4675 24.3304C26.6662 23.8357 26.0439 23.0979 25.6914 22.2246C25.5676 21.9311 25.4152 21.841 25.1083 21.841C21.9973 21.8519 18.8867 21.8519 15.7764 21.841C15.4599 21.841 15.2969 21.9216 15.1626 22.2342C14.8196 23.0571 14.2396 23.7593 13.4965 24.2518C12.7533 24.7443 11.8806 25.0047 10.9891 24.9999C10.0973 24.9842 9.23015 24.7052 8.49646 24.1981C7.76278 23.691 7.19533 22.9784 6.86541 22.1498C6.77527 21.9264 6.65827 21.8333 6.41661 21.8391C5.86615 21.8516 5.31568 21.8439 4.76618 21.8391C3.78322 21.8391 3.36126 21.4152 3.36031 20.4409V11.3612C3.36031 10.8654 3.36031 10.8644 2.87026 10.8634C2.38022 10.8625 1.88825 10.8424 1.39917 10.8682C0.774867 10.9018 0.301128 10.6937 0.00479963 10.1289L0 9.4192ZM14.5028 2.25843C11.6795 2.25843 8.85724 2.25842 6.03493 2.25171C5.70887 2.25171 5.58133 2.34763 5.60243 2.67848C5.62544 3.06207 5.60243 3.44567 5.60818 3.82927C5.60818 4.30876 5.60818 4.3145 6.08 4.3145C7.93405 4.3145 9.7881 4.3145 11.6421 4.3145C11.8578 4.30561 12.0735 4.32987 12.2818 4.38642C12.4619 4.44328 12.6245 4.54523 12.7542 4.68259C12.8839 4.81995 12.9763 4.98818 13.0227 5.17129C13.0691 5.3544 13.0679 5.54631 13.0193 5.72884C12.9707 5.91138 12.8763 6.07848 12.745 6.21426C12.4755 6.49333 12.137 6.57004 11.7639 6.56908C9.86225 6.56908 7.96058 6.57485 6.05891 6.56143C5.72518 6.56143 5.57941 6.64389 5.60243 7.00159C5.6288 7.39561 5.6288 7.79097 5.60243 8.18499C5.57941 8.5379 5.72038 8.63187 6.05795 8.62899C7.66042 8.61461 9.26289 8.62325 10.8654 8.62134C11.0689 8.61434 11.2725 8.63694 11.4695 8.68846C11.6542 8.74144 11.8219 8.84164 11.9561 8.97918C12.0903 9.11672 12.1863 9.28684 12.2347 9.47279C12.2831 9.65875 12.2822 9.85411 12.2321 10.0396C12.182 10.2251 12.0845 10.3944 11.949 10.5307C11.6872 10.7963 11.3612 10.8769 11.0006 10.8759C9.35016 10.8759 7.69973 10.8836 6.04931 10.8682C5.69736 10.8682 5.58133 10.9814 5.60626 11.3218C5.63023 11.6421 5.60626 11.9673 5.60626 12.2895C5.60626 14.5738 5.60626 16.8581 5.60626 19.1424C5.60626 19.2815 5.54585 19.4742 5.68682 19.5433C5.93999 19.6651 6.22768 19.6046 6.49812 19.5835C6.70047 19.5672 6.68225 19.3572 6.72636 19.2182C7.3334 17.3002 9.05479 16.0161 11.0236 16.0132C11.9882 16.0148 12.9265 16.3278 13.6988 16.9056C14.4712 17.4835 15.0364 18.2952 15.3103 19.2201C15.4004 19.5174 15.5347 19.6094 15.8349 19.6085C18.1799 19.5976 20.524 19.5976 22.8671 19.6085C23.2056 19.6085 23.3207 19.5126 23.3217 19.1645C23.3284 13.6877 23.2977 8.20992 23.3696 2.73312C23.3763 2.2613 23.3696 2.26035 22.8959 2.26035L14.5028 2.25843ZM25.5715 18.9861C25.7067 18.7099 25.7834 18.5344 25.8774 18.3685C26.7261 16.8734 28.0255 16.0765 29.7306 16.0199C31.7445 15.9538 33.4956 17.2666 34.117 19.2345C34.1669 19.3917 34.1583 19.6392 34.4258 19.5816C34.6665 19.5299 34.5697 19.3074 34.5706 19.1587C34.5774 17.701 34.5706 16.2424 34.5802 14.7838C34.5802 14.4741 34.492 14.358 34.1736 14.3666C33.5407 14.3858 32.9068 14.3724 32.2729 14.3724C30.1817 14.3724 28.0898 14.3724 25.9973 14.3724C25.7729 14.3724 25.5657 14.3571 25.5676 14.6908C25.5763 16.088 25.5715 17.4853 25.5715 18.9861V18.9861ZM32.9557 12.066C32.8867 11.9788 32.8416 11.9087 32.784 11.8502C31.5949 10.6208 30.4054 9.39236 29.2156 8.16486C29.1522 8.102 29.0759 8.05373 28.9919 8.02342C28.9079 7.99311 28.8184 7.98148 28.7294 7.98935C27.8203 7.98935 26.9074 8.00182 26.003 7.98935C25.6799 7.98264 25.5619 8.07853 25.5676 8.41514C25.5859 9.50359 25.5897 10.592 25.5676 11.6757C25.56 12.0507 25.6904 12.1341 26.0471 12.1312C28.2231 12.1168 30.4 12.1245 32.5769 12.1226C32.6814 12.1236 32.8061 12.1562 32.9519 12.067L32.9557 12.066ZM11.0284 18.2649C10.4366 18.2611 9.86753 18.4924 9.4462 18.908C9.02488 19.3235 8.78578 19.8894 8.78147 20.4812C8.77664 20.7774 8.83077 21.0717 8.94071 21.3469C9.05064 21.6221 9.21419 21.8727 9.42184 22.0841C9.62949 22.2955 9.8771 22.4635 10.1503 22.5783C10.4234 22.6932 10.7167 22.7525 11.013 22.753C11.3092 22.7575 11.6033 22.7028 11.878 22.592C12.1527 22.4813 12.4025 22.3168 12.6128 22.1083C12.8231 21.8997 12.9896 21.6512 13.1025 21.3774C13.2155 21.1036 13.2726 20.81 13.2705 20.5138C13.2764 20.2171 13.2223 19.9223 13.1115 19.647C13.0008 19.3717 12.8356 19.1216 12.6259 18.9116C12.4162 18.7016 12.1663 18.5361 11.8912 18.425C11.616 18.3139 11.3212 18.2594 11.0246 18.2649H11.0284ZM29.8246 18.2649C29.5314 18.2605 29.2403 18.3145 28.9682 18.4239C28.6961 18.5333 28.4486 18.6958 28.2401 18.902C28.0316 19.1082 27.8663 19.3539 27.7539 19.6247C27.6415 19.8955 27.5842 20.186 27.5854 20.4792C27.5791 20.7752 27.6319 21.0694 27.7407 21.3447C27.8495 21.62 28.0121 21.8709 28.219 22.0826C28.4259 22.2943 28.673 22.4626 28.9457 22.5777C29.2184 22.6929 29.5113 22.7524 29.8073 22.753C30.1036 22.7572 30.3977 22.7025 30.6726 22.5919C30.9475 22.4814 31.1976 22.3173 31.4085 22.1092C31.6194 21.9011 31.7868 21.6531 31.9009 21.3797C32.0151 21.1063 32.0737 20.8129 32.0734 20.5167C32.0765 20.2197 32.0202 19.9251 31.9079 19.6502C31.7955 19.3753 31.6293 19.1256 31.4191 18.9158C31.2089 18.7061 30.9589 18.5404 30.6837 18.4287C30.4086 18.3169 30.1139 18.2612 29.8169 18.2649H29.8246Z" fill="#CCCBCB"/>
</svg>
