<svg width="16" height="20" viewBox="0 0 16 20" fill="none" xmlns="http://www.w3.org/2000/svg">
<path d="M14.2718 7.14395L13.9496 16.8939C13.9222 17.7289 13.5704 18.5204 12.969 19.1003C12.3676 19.6802 11.5639 20.0029 10.7284 20H4.60801C3.77308 20.003 2.9698 19.6807 2.36846 19.1015C1.76713 18.5222 1.41501 17.7316 1.38675 16.8971L1.06463 7.14395C1.05758 6.93037 1.13566 6.72273 1.2817 6.56672C1.42775 6.41071 1.62978 6.31911 1.84336 6.31206C2.05695 6.30501 2.26458 6.3831 2.42059 6.52914C2.5766 6.67518 2.6682 6.87721 2.67525 7.0908L2.99738 16.8431C3.01342 17.2595 3.19016 17.6534 3.49049 17.9422C3.79083 18.2309 4.19137 18.3921 4.60801 18.3918H10.7284C11.1456 18.392 11.5466 18.2304 11.847 17.941C12.1474 17.6515 12.3238 17.2568 12.339 16.8399L12.6611 7.0908C12.6682 6.87721 12.7598 6.67518 12.9158 6.52914C13.0718 6.3831 13.2795 6.30501 13.493 6.31206C13.7066 6.31911 13.9087 6.41071 14.0547 6.56672C14.2007 6.72273 14.2788 6.93037 14.2718 7.14395V7.14395ZM15.3372 3.89934C15.3372 4.11292 15.2524 4.31776 15.1013 4.46878C14.9503 4.61981 14.7455 4.70465 14.5319 4.70465H0.805314C0.591731 4.70465 0.386896 4.61981 0.235871 4.46878C0.0848451 4.31776 0 4.11292 0 3.89934C0 3.68576 0.0848451 3.48092 0.235871 3.3299C0.386896 3.17887 0.591731 3.09402 0.805314 3.09402H3.30179C3.55695 3.09471 3.80324 3.00044 3.99273 2.82956C4.18222 2.65867 4.30136 2.4234 4.32695 2.16952C4.38638 1.57398 4.66539 1.0219 5.10963 0.620831C5.55387 0.219766 6.13151 -0.00154887 6.73001 8.16015e-06H8.60639C9.20489 -0.00154887 9.78253 0.219766 10.2268 0.620831C10.671 1.0219 10.95 1.57398 11.0094 2.16952C11.035 2.4234 11.1542 2.65867 11.3437 2.82956C11.5332 3.00044 11.7794 3.09471 12.0346 3.09402H14.5311C14.7447 3.09402 14.9495 3.17887 15.1005 3.3299C15.2516 3.48092 15.3364 3.68576 15.3364 3.89934H15.3372ZM5.72498 3.09402H9.61303C9.50721 2.85222 9.438 2.59601 9.40768 2.33381C9.38773 2.1353 9.2948 1.95127 9.14692 1.81737C8.99903 1.68347 8.8067 1.60922 8.6072 1.60903H6.73081C6.53131 1.60922 6.33898 1.68347 6.19109 1.81737C6.0432 1.95127 5.95028 2.1353 5.93033 2.33381C5.89976 2.59605 5.83027 2.85227 5.72417 3.09402H5.72498ZM6.53593 15.2953V8.43809C6.53593 8.22451 6.45108 8.01967 6.30006 7.86864C6.14903 7.71762 5.9442 7.63277 5.73061 7.63277C5.51703 7.63277 5.3122 7.71762 5.16117 7.86864C5.01015 8.01967 4.9253 8.22451 4.9253 8.43809V15.2986C4.9253 15.5121 5.01015 15.717 5.16117 15.868C5.3122 16.019 5.51703 16.1039 5.73061 16.1039C5.9442 16.1039 6.14903 16.019 6.30006 15.868C6.45108 15.717 6.53593 15.5121 6.53593 15.2986V15.2953ZM10.4127 15.2953V8.43809C10.4127 8.22451 10.3279 8.01967 10.1768 7.86864C10.0258 7.71762 9.82098 7.63277 9.6074 7.63277C9.39381 7.63277 9.18898 7.71762 9.03795 7.86864C8.88693 8.01967 8.80208 8.22451 8.80208 8.43809V15.2986C8.80208 15.5121 8.88693 15.717 9.03795 15.868C9.18898 16.019 9.39381 16.1039 9.6074 16.1039C9.82098 16.1039 10.0258 16.019 10.1768 15.868C10.3279 15.717 10.4127 15.5121 10.4127 15.2986V15.2953Z" fill="black"/>
</svg>
