<svg width="209" height="180" viewBox="0 0 209 180" fill="none" xmlns="http://www.w3.org/2000/svg">
<path d="M68.7772 35.6851C68.7772 36.5562 68.5188 37.4077 68.0349 38.132C67.5509 38.8562 66.8631 39.4207 66.0583 39.7541C65.2536 40.0874 64.3681 40.1746 63.5137 40.0047C62.6594 39.8348 61.8747 39.4153 61.2587 38.7994C60.6428 38.1834 60.2233 37.3987 60.0534 36.5443C59.8834 35.69 59.9707 34.8045 60.304 33.9997C60.6373 33.1949 61.2018 32.5071 61.926 32.0232C62.6503 31.5392 63.5019 31.2809 64.373 31.2809C65.541 31.2809 66.6612 31.7449 67.4872 32.5709C68.3131 33.3968 68.7772 34.5171 68.7772 35.6851V35.6851Z" fill="#E83647" fill-opacity="0.5"/>
<path d="M203.99 97.7562C206.423 97.7562 208.394 95.7844 208.394 93.352C208.394 90.9197 206.423 88.9478 203.99 88.9478C201.558 88.9478 199.586 90.9197 199.586 93.352C199.586 95.7844 201.558 97.7562 203.99 97.7562Z" fill="#E83647"/>
<path d="M8.80841 106.831C8.81104 107.703 8.55497 108.555 8.07263 109.281C7.5903 110.007 6.90339 110.574 6.09886 110.909C5.29433 111.245 4.4084 111.334 3.55319 111.165C2.69799 110.997 1.91196 110.579 1.29469 109.963C0.677423 109.348 0.25663 108.563 0.085612 107.708C-0.0854063 106.854 0.00100868 105.967 0.333958 105.162C0.666907 104.356 1.23145 103.668 1.956 103.183C2.68055 102.699 3.53258 102.44 4.40421 102.44C5.56998 102.44 6.68817 102.902 7.51373 103.725C8.3393 104.548 8.80489 105.665 8.80841 106.831V106.831Z" fill="#E83647" fill-opacity="0.5"/>
<path d="M6.04092 59.3164C8.47329 59.3164 10.4451 57.3445 10.4451 54.9122C10.4451 52.4798 8.47329 50.508 6.04092 50.508C3.60855 50.508 1.63672 52.4798 1.63672 54.9122C1.63672 57.3445 3.60855 59.3164 6.04092 59.3164Z" fill="#E83647"/>
<path d="M137.183 10.4042C137.183 11.2759 136.925 12.1279 136.44 12.8525C135.956 13.577 135.267 14.1415 134.462 14.4744C133.656 14.8074 132.77 14.8938 131.915 14.7228C131.06 14.5518 130.276 14.131 129.66 13.5137C129.045 12.8965 128.626 12.1105 128.458 11.2553C128.29 10.4001 128.379 9.5141 128.714 8.70957C129.049 7.90504 129.616 7.21813 130.342 6.73579C131.068 6.25345 131.921 5.99739 132.793 6.00002C133.37 6.00002 133.942 6.11403 134.476 6.33553C135.009 6.55702 135.494 6.88165 135.902 7.29079C136.31 7.69993 136.633 8.18555 136.853 8.71981C137.073 9.25408 137.185 9.82649 137.183 10.4042V10.4042Z" fill="#E83647"/>
<path d="M168.209 82.2422C168.209 83.1133 167.95 83.9648 167.467 84.6891C166.983 85.4133 166.295 85.9778 165.49 86.3112C164.685 86.6445 163.8 86.7317 162.945 86.5618C162.091 86.3918 161.306 85.9724 160.69 85.3565C160.074 84.7405 159.655 83.9558 159.485 83.1014C159.315 82.2471 159.402 81.3616 159.736 80.5568C160.069 79.752 160.633 79.0642 161.358 78.5802C162.082 78.0963 162.934 77.838 163.805 77.838C164.973 77.838 166.093 78.302 166.919 79.128C167.745 79.9539 168.209 81.0741 168.209 82.2422V82.2422Z" fill="#E83647" fill-opacity="0.5"/>
<path d="M55.9204 11.8288C55.5675 11.8288 55.229 11.6886 54.9795 11.4391C54.73 11.1896 54.5898 10.8511 54.5898 10.4982V1.33057C54.5898 0.977684 54.73 0.639246 54.9795 0.389715C55.229 0.140184 55.5675 0 55.9204 0C56.2733 0 56.6117 0.140184 56.8613 0.389715C57.1108 0.639246 57.251 0.977684 57.251 1.33057V10.4982C57.251 10.8511 57.1108 11.1896 56.8613 11.4391C56.6117 11.6886 56.2733 11.8288 55.9204 11.8288Z" fill="black"/>
<path d="M60.5115 7.23891H51.3306C50.9777 7.23891 50.6393 7.09872 50.3897 6.84919C50.1402 6.59966 50 6.26122 50 5.90833C50 5.55544 50.1402 5.21701 50.3897 4.96747C50.6393 4.71794 50.9777 4.57776 51.3306 4.57776H60.5115C60.8644 4.57776 61.2029 4.71794 61.4524 4.96747C61.7019 5.21701 61.8421 5.55544 61.8421 5.90833C61.8421 6.26122 61.7019 6.59966 61.4524 6.84919C61.2029 7.09872 60.8644 7.23891 60.5115 7.23891Z" fill="black"/>
<path d="M37.8149 145.404C37.4621 145.404 37.1236 145.264 36.8741 145.015C36.6246 144.765 36.4844 144.427 36.4844 144.074V134.893C36.4844 134.54 36.6246 134.202 36.8741 133.952C37.1236 133.703 37.4621 133.562 37.8149 133.562C38.1678 133.562 38.5063 133.703 38.7558 133.952C39.0053 134.202 39.1455 134.54 39.1455 134.893V144.074C39.1455 144.427 39.0053 144.765 38.7558 145.015C38.5063 145.264 38.1678 145.404 37.8149 145.404Z" fill="black"/>
<path d="M42.4588 140.814H33.2778C32.9249 140.814 32.5865 140.674 32.3369 140.425C32.0874 140.175 31.9473 139.837 31.9473 139.484C31.9473 139.131 32.0874 138.792 32.3369 138.543C32.5865 138.293 32.9249 138.153 33.2778 138.153H42.4588C42.8116 138.153 43.1501 138.293 43.3996 138.543C43.6491 138.792 43.7893 139.131 43.7893 139.484C43.7893 139.837 43.6491 140.175 43.3996 140.425C43.1501 140.674 42.8116 140.814 42.4588 140.814Z" fill="black"/>
<path d="M165.163 43.123C164.81 43.123 164.471 42.9829 164.222 42.7333C163.972 42.4838 163.832 42.1454 163.832 41.7925V32.6115C163.832 32.2586 163.972 31.9202 164.222 31.6706C164.471 31.4211 164.81 31.2809 165.163 31.2809C165.515 31.2809 165.854 31.4211 166.103 31.6706C166.353 31.9202 166.493 32.2586 166.493 32.6115V41.7925C166.493 42.1454 166.353 42.4838 166.103 42.7333C165.854 42.9829 165.515 43.123 165.163 43.123Z" fill="black"/>
<path d="M169.754 38.5192H160.573C160.22 38.5192 159.881 38.379 159.632 38.1294C159.382 37.8799 159.242 37.5415 159.242 37.1886C159.242 36.8357 159.382 36.4972 159.632 36.2477C159.881 35.9982 160.22 35.858 160.573 35.858H169.754C170.107 35.858 170.445 35.9982 170.695 36.2477C170.944 36.4972 171.084 36.8357 171.084 37.1886C171.084 37.5415 170.944 37.8799 170.695 38.1294C170.445 38.379 170.107 38.5192 169.754 38.5192Z" fill="black"/>
<path d="M185.282 139.723C184.929 139.723 184.591 139.583 184.341 139.333C184.091 139.084 183.951 138.745 183.951 138.392V129.211C183.951 128.858 184.091 128.52 184.341 128.27C184.591 128.021 184.929 127.881 185.282 127.881C185.635 127.881 185.973 128.021 186.223 128.27C186.472 128.52 186.612 128.858 186.612 129.211V138.392C186.612 138.745 186.472 139.084 186.223 139.333C185.973 139.583 185.635 139.723 185.282 139.723Z" fill="black"/>
<path d="M189.858 135.132H180.69C180.337 135.132 179.999 134.992 179.749 134.742C179.499 134.493 179.359 134.154 179.359 133.801C179.359 133.449 179.499 133.11 179.749 132.861C179.999 132.611 180.337 132.471 180.69 132.471H189.858C190.211 132.471 190.549 132.611 190.798 132.861C191.048 133.11 191.188 133.449 191.188 133.801C191.188 134.154 191.048 134.493 190.798 134.742C190.549 134.992 190.211 135.132 189.858 135.132Z" fill="black"/>
<path d="M95.9464 172.907C95.9464 174.223 95.5562 175.509 94.8252 176.603C94.0941 177.697 93.0551 178.55 91.8394 179.054C90.6238 179.557 89.2861 179.689 87.9956 179.432C86.705 179.176 85.5196 178.542 84.5892 177.612C83.6588 176.681 83.0252 175.496 82.7685 174.205C82.5118 172.915 82.6435 171.577 83.1471 170.361C83.6506 169.146 84.5033 168.107 85.5974 167.376C86.6914 166.645 87.9777 166.254 89.2935 166.254C91.058 166.254 92.7501 166.955 93.9978 168.203C95.2454 169.451 95.9464 171.143 95.9464 172.907V172.907Z" fill="#E83647"/>
<path d="M89.2561 176.061C90.9757 176.061 92.3697 174.667 92.3697 172.947C92.3697 171.227 90.9757 169.833 89.2561 169.833C87.5366 169.833 86.1426 171.227 86.1426 172.947C86.1426 174.667 87.5366 176.061 89.2561 176.061Z" fill="black"/>
<path d="M139.483 172.907C139.483 174.223 139.093 175.509 138.362 176.603C137.631 177.697 136.592 178.55 135.377 179.054C134.161 179.557 132.823 179.689 131.533 179.432C130.242 179.176 129.057 178.542 128.126 177.612C127.196 176.681 126.562 175.496 126.306 174.205C126.049 172.915 126.181 171.577 126.684 170.361C127.188 169.146 128.04 168.107 129.134 167.376C130.228 166.645 131.515 166.254 132.831 166.254C134.595 166.254 136.287 166.955 137.535 168.203C138.783 169.451 139.483 171.143 139.483 172.907V172.907Z" fill="#E83647"/>
<path d="M132.789 176.061C134.509 176.061 135.903 174.667 135.903 172.947C135.903 171.227 134.509 169.833 132.789 169.833C131.07 169.833 129.676 171.227 129.676 172.947C129.676 174.667 131.07 176.061 132.789 176.061Z" fill="black"/>
<path d="M138.125 160.772H80.977C80.7535 160.773 80.5363 160.699 80.3602 160.561C80.1841 160.424 80.0593 160.231 80.0057 160.014L62.309 91.7422C60.6457 85.0893 55.6561 80.6984 50.0145 80.6984H47.9122C47.7706 80.7148 47.6271 80.701 47.4911 80.6579C47.3552 80.6149 47.2299 80.5436 47.1235 80.4487C47.0171 80.3539 46.9319 80.2376 46.8736 80.1075C46.8153 79.9774 46.7852 79.8364 46.7852 79.6939C46.7852 79.5513 46.8153 79.4103 46.8736 79.2802C46.9319 79.1501 47.0171 79.0338 47.1235 78.939C47.2299 78.8441 47.3552 78.7728 47.4911 78.7298C47.6271 78.6867 47.7706 78.6729 47.9122 78.6893H50.0145C56.6673 78.6893 62.3755 83.7322 64.2649 91.2499L67.7777 104.835H151.75C151.904 104.834 152.056 104.869 152.194 104.936C152.332 105.003 152.454 105.1 152.549 105.221C152.64 105.343 152.704 105.484 152.736 105.633C152.768 105.782 152.768 105.937 152.735 106.086L139.096 160.027C139.04 160.242 138.914 160.431 138.738 160.566C138.563 160.701 138.347 160.774 138.125 160.772ZM81.7221 158.763H137.34L150.46 106.871H68.2965L81.7221 158.763Z" fill="black"/>
<path d="M148.345 120.323H70.7988C70.6666 120.323 70.5358 120.297 70.4139 120.246C70.2919 120.195 70.1813 120.12 70.0884 120.026C69.9956 119.932 69.9223 119.821 69.873 119.698C69.8236 119.575 69.7991 119.444 69.8009 119.312C69.7991 119.18 69.8237 119.05 69.8732 118.928C69.9227 118.806 69.9961 118.695 70.0892 118.602C70.1822 118.509 70.293 118.436 70.4148 118.386C70.5367 118.337 70.6673 118.312 70.7988 118.314H148.345C148.477 118.312 148.608 118.337 148.731 118.386C148.853 118.436 148.965 118.509 149.059 118.602C149.153 118.694 149.228 118.805 149.279 118.927C149.33 119.049 149.356 119.18 149.356 119.312C149.356 119.58 149.249 119.837 149.06 120.027C148.87 120.217 148.613 120.323 148.345 120.323V120.323Z" fill="black"/>
<path d="M144.938 133.802H74.165C73.9185 133.773 73.691 133.655 73.5259 133.47C73.3608 133.285 73.2695 133.045 73.2695 132.797C73.2695 132.549 73.3608 132.31 73.5259 132.124C73.691 131.939 73.9185 131.821 74.165 131.793H144.938C145.08 131.776 145.223 131.79 145.359 131.833C145.495 131.876 145.62 131.948 145.727 132.042C145.833 132.137 145.918 132.254 145.977 132.384C146.035 132.514 146.065 132.655 146.065 132.797C146.065 132.94 146.035 133.081 145.977 133.211C145.918 133.341 145.833 133.457 145.727 133.552C145.62 133.647 145.495 133.718 145.359 133.761C145.223 133.804 145.08 133.818 144.938 133.802V133.802Z" fill="black"/>
<path d="M141.414 147.28H78.039C77.9075 147.282 77.777 147.257 77.6551 147.208C77.5332 147.158 77.4224 147.085 77.3294 146.992C77.2364 146.899 77.163 146.788 77.1135 146.666C77.0639 146.544 77.0393 146.414 77.0411 146.282C77.0393 146.15 77.0639 146.019 77.1132 145.896C77.1626 145.774 77.2358 145.662 77.3287 145.568C77.4215 145.474 77.5321 145.399 77.6541 145.348C77.776 145.297 77.9069 145.271 78.039 145.271H141.414C141.68 145.275 141.934 145.383 142.121 145.572C142.308 145.761 142.412 146.016 142.412 146.282C142.412 146.547 142.307 146.801 142.12 146.988C141.933 147.175 141.679 147.28 141.414 147.28V147.28Z" fill="black"/>
<path d="M91.9022 160.772C91.6593 160.771 91.4253 160.681 91.2441 160.519C91.0628 160.358 90.9467 160.135 90.9175 159.894L83.799 105.966C83.7784 105.835 83.7846 105.7 83.8174 105.571C83.8502 105.442 83.9087 105.321 83.9896 105.216C84.0704 105.11 84.1719 105.022 84.2878 104.956C84.4037 104.891 84.5316 104.85 84.6639 104.835C84.7951 104.816 84.9287 104.824 85.0569 104.857C85.1852 104.891 85.3054 104.95 85.4107 105.03C85.516 105.111 85.6042 105.211 85.6702 105.326C85.7361 105.441 85.7785 105.568 85.7948 105.7L92.9001 159.601C92.9207 159.733 92.9144 159.867 92.8816 159.996C92.8489 160.125 92.7903 160.246 92.7094 160.352C92.6286 160.458 92.5272 160.546 92.4113 160.611C92.2954 160.677 92.1675 160.718 92.0352 160.732L91.9022 160.772Z" fill="black"/>
<path d="M105.021 160.772C104.764 160.773 104.517 160.675 104.329 160.5C104.141 160.324 104.027 160.084 104.01 159.827L100.457 105.899C100.439 105.633 100.527 105.37 100.701 105.168C100.876 104.967 101.123 104.842 101.389 104.821C101.656 104.807 101.919 104.897 102.12 105.074C102.322 105.251 102.446 105.499 102.467 105.766L106.019 159.694C106.038 159.96 105.95 160.223 105.776 160.425C105.601 160.627 105.354 160.752 105.088 160.772H105.021Z" fill="black"/>
<path d="M128.293 160.772H128.16C128.028 160.757 127.9 160.716 127.784 160.651C127.668 160.585 127.567 160.497 127.486 160.391C127.405 160.286 127.346 160.165 127.313 160.036C127.281 159.907 127.274 159.773 127.295 159.641L134.4 105.713C134.417 105.581 134.459 105.454 134.525 105.339C134.591 105.224 134.679 105.124 134.784 105.043C134.89 104.963 135.01 104.904 135.138 104.87C135.266 104.837 135.4 104.829 135.531 104.848C135.664 104.863 135.792 104.904 135.907 104.969C136.023 105.035 136.125 105.123 136.206 105.229C136.286 105.334 136.345 105.455 136.378 105.584C136.41 105.713 136.417 105.848 136.396 105.979L129.291 159.907C129.256 160.147 129.136 160.366 128.953 160.525C128.769 160.684 128.535 160.771 128.293 160.772V160.772Z" fill="black"/>
<path d="M116.653 160.772C116.387 160.752 116.139 160.627 115.965 160.425C115.79 160.223 115.703 159.96 115.721 159.694L119.274 105.766C119.294 105.499 119.419 105.251 119.62 105.074C119.821 104.897 120.084 104.807 120.352 104.821C120.618 104.842 120.865 104.967 121.039 105.168C121.214 105.37 121.301 105.633 121.283 105.899L117.65 159.827C117.634 160.082 117.522 160.32 117.337 160.495C117.152 160.67 116.907 160.769 116.653 160.772V160.772Z" fill="black"/>
<path d="M89.2401 173.958H89.0405C88.7792 173.901 88.5508 173.743 88.4041 173.52C88.2574 173.296 88.204 173.023 88.2554 172.761L90.9166 159.575C90.9288 159.433 90.9709 159.295 91.0401 159.17C91.1093 159.046 91.2041 158.937 91.3182 158.852C91.4323 158.767 91.5632 158.706 91.7022 158.675C91.8413 158.644 91.9853 158.642 92.125 158.67C92.2647 158.699 92.3968 158.756 92.5127 158.839C92.6286 158.922 92.7257 159.029 92.7975 159.152C92.8694 159.275 92.9144 159.412 92.9296 159.553C92.9448 159.695 92.9299 159.838 92.8859 159.974L90.2247 173.16C90.1785 173.387 90.055 173.59 89.8755 173.736C89.6959 173.881 89.4713 173.96 89.2401 173.958V173.958Z" fill="black"/>
<path d="M132.792 173.958C132.581 173.959 132.376 173.894 132.204 173.772C132.032 173.65 131.903 173.478 131.833 173.279L127.389 160.08C127.337 159.951 127.313 159.813 127.317 159.674C127.321 159.535 127.355 159.399 127.415 159.274C127.475 159.148 127.56 159.037 127.666 158.947C127.772 158.857 127.895 158.789 128.028 158.75C128.156 158.695 128.294 158.668 128.432 158.671C128.571 158.673 128.708 158.705 128.834 158.764C128.959 158.823 129.071 158.908 129.161 159.013C129.252 159.119 129.319 159.242 129.359 159.375L133.803 172.561C133.855 172.689 133.88 172.826 133.877 172.964C133.873 173.103 133.841 173.238 133.782 173.364C133.724 173.489 133.64 173.6 133.535 173.691C133.431 173.782 133.309 173.85 133.177 173.891C133.055 173.942 132.924 173.965 132.792 173.958Z" fill="black"/>
<path d="M50.4415 82.2422H34.4746C34.138 82.2422 33.8047 82.1757 33.4939 82.0465C33.1831 81.9172 32.9009 81.7279 32.6635 81.4892C32.426 81.2506 32.2382 80.9674 32.1106 80.6559C31.983 80.3444 31.9182 80.0108 31.92 79.6742C31.92 78.9966 32.1891 78.3468 32.6682 77.8677C33.1473 77.3886 33.7971 77.1195 34.4746 77.1195H50.4415V82.2422Z" fill="#E83647"/>
<path d="M107.164 79.5276C119.362 79.5276 129.251 69.6387 129.251 57.4401C129.251 45.2415 119.362 35.3525 107.164 35.3525C94.9651 35.3525 85.0762 45.2415 85.0762 57.4401C85.0762 69.6387 94.9651 79.5276 107.164 79.5276Z" fill="#E83647"/>
<path d="M106.458 68.8701C106.172 68.8699 105.89 68.8079 105.631 68.6885C105.371 68.5691 105.14 68.395 104.954 68.1782L96.971 59.1303C96.7963 58.9328 96.6621 58.7029 96.5763 58.4536C96.4904 58.2043 96.4545 57.9405 96.4705 57.6774C96.4866 57.4142 96.5543 57.1568 96.6699 56.9198C96.7855 56.6828 96.9466 56.4709 97.144 56.2961C97.3415 56.1214 97.5714 55.9873 97.8207 55.9014C98.07 55.8155 98.3337 55.7796 98.5969 55.7956C98.8601 55.8117 99.1174 55.8794 99.3544 55.995C99.5914 56.1105 99.8033 56.2717 99.9781 56.4691L106.085 63.4546L115.253 47.9933C115.528 47.5479 115.966 47.2282 116.475 47.103C116.983 46.9779 117.52 47.0573 117.97 47.3243C118.42 47.5912 118.747 48.0243 118.881 48.5302C119.015 49.0361 118.945 49.5744 118.686 50.0291L108.121 67.8588C107.961 68.1324 107.736 68.3635 107.468 68.5325C107.199 68.7015 106.894 68.8036 106.578 68.8301L106.458 68.8701Z" fill="white"/>
</svg>
