<svg width="32" height="32" viewBox="0 0 32 32" fill="none" xmlns="http://www.w3.org/2000/svg">
<path d="M1 18.7029C1.41298 17.6157 1.98083 17.2239 3.14625 17.2239H5.22445C6.47121 17.2239 7.27136 18.024 7.27996 19.2715C7.27996 19.3584 7.27996 19.4452 7.27996 19.5281C7.40041 19.5766 7.45751 19.4898 7.52712 19.4499C9.93461 18.0993 12.3197 18.1382 14.6823 19.5664C14.8632 19.6812 15.0735 19.7412 15.2877 19.7393C16.1481 19.7338 17.0046 19.7346 17.8634 19.7393C19.344 19.744 20.5227 20.6435 20.9318 22.0693C20.9552 22.1515 20.9811 22.2336 21.0147 22.3454C21.2877 22.117 21.4769 21.8464 21.6889 21.5985C23.0569 19.9966 24.414 18.3846 25.7866 16.7859C26.9184 15.4687 28.6853 15.2599 30.1042 16.2587C30.3034 16.3984 30.4989 16.5442 30.6908 16.6959C31.0451 16.9759 31.1022 17.3216 30.8472 17.6986C29.5958 19.5383 28.3443 21.3766 27.0929 23.2136C26.1425 24.6082 25.211 26.0169 24.2341 27.3919C23.1179 28.9617 21.5575 29.7627 19.6404 29.7783C16.3131 29.8057 12.9866 29.7869 9.65929 29.7853C8.92514 29.7836 8.2003 29.621 7.53573 29.309C7.43014 29.2597 7.30108 29.1432 7.26354 29.3794C7.11727 30.2265 6.60105 30.7435 5.80012 31H2.46342C1.70629 30.7818 1.21666 30.2961 1 29.5366V18.7029ZM14.6542 28.4651C16.303 28.4651 17.9518 28.4752 19.6005 28.4651C21.0968 28.4525 22.3178 27.8456 23.168 26.6145C25.2305 23.6282 27.2618 20.6208 29.3118 17.6267C29.4393 17.439 29.4049 17.3506 29.2258 17.2356C28.8458 16.9976 28.3926 16.9047 27.9495 16.9741C27.5065 17.0435 27.1034 17.2705 26.8144 17.6134C24.882 19.8743 22.9505 22.1371 21.0202 24.4017C20.9178 24.5309 20.7868 24.6343 20.6374 24.7038C20.488 24.7734 20.3245 24.807 20.1598 24.8022C17.9744 24.8022 15.7891 24.8004 13.6037 24.7967C13.1469 24.7967 12.827 24.4987 12.838 24.1233C12.8489 23.7244 13.1399 23.4866 13.6202 23.4858C14.8591 23.4858 16.0983 23.4858 17.3378 23.4858H19.4449C19.5724 23.4858 19.6999 23.4999 19.7155 23.3083C19.8336 21.8104 18.8411 21.0134 17.782 21.0486C16.9044 21.0776 16.0261 21.0533 15.1477 21.0611C14.7664 21.0697 14.3931 20.9514 14.0863 20.7248C12.1591 19.3482 9.31514 19.5023 7.53338 21.0564C7.44989 21.1214 7.38302 21.2053 7.33828 21.3011C7.29354 21.397 7.27221 21.5021 7.27605 21.6079C7.28492 23.5007 7.28492 25.3933 7.27605 27.2856C7.27049 27.3915 7.29428 27.4969 7.34479 27.5902C7.3953 27.6835 7.47057 27.7611 7.56232 27.8143C8.17472 28.2416 8.90397 28.4696 9.65069 28.4674L14.6542 28.4651ZM2.29604 24.1116C2.29604 25.751 2.29604 27.3899 2.29604 29.0282C2.29604 29.5124 2.48689 29.6993 2.97339 29.7024C3.74356 29.7066 4.51424 29.7066 5.28545 29.7024C5.75475 29.7024 5.96046 29.4913 5.96046 29.018C5.96046 25.7596 5.96046 22.5006 5.96046 19.241C5.96046 18.76 5.74145 18.5457 5.25651 18.5426C4.52519 18.5426 3.79309 18.5426 3.06177 18.5426C2.47594 18.5426 2.29447 18.724 2.29369 19.3114C2.29265 20.9112 2.29291 22.5113 2.29447 24.1116H2.29604Z" fill="#CCCBCB" stroke="#CCCBCB" stroke-width="0.2"/>
<path d="M15.9864 1.00101C18.25 1.00101 20.5133 1.00101 22.7763 1.00101C23.9378 1.00101 24.7669 1.7902 24.7701 2.95641C24.7826 6.66332 24.7826 10.3705 24.7701 14.0779C24.7661 15.2402 23.9378 16.0333 22.7771 16.0333C18.251 16.0333 13.7244 16.0333 9.19725 16.0333C8.03653 16.0333 7.20744 15.2418 7.20353 14.0779C7.19257 10.371 7.19257 6.6641 7.20353 2.95719C7.20353 1.79255 8.03262 1.00179 9.19569 1.00179C11.4598 0.999702 13.7233 0.999441 15.9864 1.00101ZM12.261 8.48706V14.3126C12.261 14.7154 12.261 14.7162 12.6638 14.7162H22.6168C23.2793 14.7162 23.4607 14.5324 23.4607 13.8558C23.4607 11.6407 23.4607 9.4246 23.4607 7.20743C23.4607 5.84178 23.4607 4.47562 23.4607 3.10892C23.4607 2.51292 23.2605 2.31112 22.6786 2.30956C22.0442 2.30956 21.4091 2.32207 20.7756 2.30329C20.4877 2.29547 20.3845 2.37291 20.3884 2.67873C20.4072 3.52738 20.3962 4.37681 20.3939 5.22545C20.3939 5.79408 20.1444 6.0514 19.5742 6.05375C18.4322 6.06 17.2905 6.06 16.1491 6.05375C15.5789 6.05375 15.3309 5.79408 15.3294 5.22545C15.3294 4.38619 15.3294 3.54694 15.3294 2.70768C15.3294 2.31035 15.3294 2.30956 14.9195 2.30956C14.1585 2.30956 13.3967 2.32207 12.6364 2.30329C12.34 2.29547 12.2539 2.38699 12.2563 2.68422C12.2696 4.62241 12.261 6.55434 12.261 8.48706ZM10.9462 8.54728V4.30407C10.9462 3.73778 10.9462 3.17228 10.9462 2.60678C10.9462 2.42063 10.9008 2.31113 10.6857 2.31504C10.1593 2.32286 9.63213 2.31502 9.10574 2.32128C8.80226 2.32519 8.61298 2.49102 8.54728 2.78277C8.52118 2.91643 8.5099 3.05257 8.51364 3.1887C8.51364 6.73971 8.51364 10.2905 8.51364 13.8409C8.51364 13.9192 8.51364 13.9974 8.51364 14.0756C8.54493 14.5003 8.7608 14.7099 9.18865 14.7154C9.63761 14.7209 10.0866 14.7154 10.5347 14.7154C10.9415 14.7154 10.943 14.7154 10.943 14.311C10.9456 12.39 10.9467 10.4685 10.9462 8.5465V8.54728ZM17.8675 4.74833C18.189 4.74833 18.5096 4.74285 18.8303 4.74833C19.0024 4.75224 19.0775 4.68966 19.0767 4.51368C19.071 3.8624 19.071 3.2106 19.0767 2.55828C19.0767 2.38308 19.004 2.31504 18.8327 2.31582C18.1809 2.31947 17.5291 2.31947 16.8773 2.31582C16.7208 2.31582 16.6465 2.37995 16.6473 2.54186C16.6505 3.20356 16.6505 3.86502 16.6473 4.52621C16.6473 4.68968 16.7169 4.75146 16.8765 4.74911C17.2058 4.74363 17.5366 4.74754 17.8675 4.74754V4.74833Z" fill="#CCCBCB" stroke="#CCCBCB" stroke-width="0.2"/>
<path d="M15.6139 12.2414C15.8289 12.2414 16.0433 12.2344 16.2576 12.2414C16.4052 12.244 16.547 12.2994 16.6574 12.3975C16.7677 12.4957 16.8393 12.6301 16.8591 12.7764C16.9068 13.1151 16.7347 13.4303 16.4046 13.4952C15.8678 13.5989 15.3161 13.5989 14.7793 13.4952C14.4852 13.4397 14.2936 13.1206 14.3186 12.8296C14.3348 12.6782 14.4027 12.5371 14.5108 12.4299C14.619 12.3228 14.7607 12.2562 14.9123 12.2414C14.9315 12.2402 14.9509 12.2402 14.9701 12.2414C15.1852 12.2414 15.3995 12.2414 15.6139 12.2414Z" fill="#CCCBCB" stroke="#CCCBCB" stroke-width="0.2"/>
</svg>
