<svg width="22" height="23" viewBox="0 0 22 23" fill="none" xmlns="http://www.w3.org/2000/svg">
<path d="M17.7118 3.9647L18.1667 5.32958C18.2994 5.76165 18.5734 6.13659 18.9447 6.39418L20.0958 7.16762C20.4822 7.42699 20.768 7.81102 20.9054 8.25565C21.0429 8.70028 21.0237 9.17858 20.851 9.61075L20.396 10.7163C20.198 11.2051 20.198 11.7517 20.396 12.2404L20.851 13.3187C21.0233 13.7422 21.0478 14.2113 20.9207 14.6505C20.7936 15.0896 20.5222 15.4731 20.1504 15.7391L19.1267 16.4715C18.7515 16.7382 18.4786 17.1251 18.3533 17.568L17.9848 18.8601C17.8565 19.3137 17.5742 19.7085 17.1865 19.9766C16.7988 20.2448 16.3298 20.3696 15.8601 20.3296L14.7545 20.2386C14.2313 20.1952 13.7119 20.3585 13.3078 20.6936L12.2432 21.5534C11.8802 21.8494 11.4262 22.0111 10.9579 22.0111C10.4896 22.0111 10.0356 21.8494 9.67264 21.5534L8.76272 20.8073C8.39798 20.5101 7.94111 20.3493 7.47064 20.3524H5.87373C5.41417 20.3535 4.96786 20.1983 4.60821 19.9123C4.24852 19.6262 3.99688 19.2262 3.89465 18.7782L3.60348 17.5407C3.48965 17.0414 3.19042 16.6039 2.76635 16.3169L1.78819 15.598C1.41794 15.3462 1.14167 14.9787 1.00255 14.5531C0.863423 14.1275 0.869319 13.6678 1.01931 13.2459L1.47427 11.9993C1.6426 11.5458 1.6426 11.047 1.47427 10.5935L1.0648 9.50156C0.901066 9.06789 0.890771 8.59119 1.03563 8.15083C1.18048 7.71047 1.47176 7.33299 1.86098 7.08117L2.93924 6.38509C3.35612 6.11548 3.66026 5.70292 3.79456 5.22494L4.11303 4.07844C4.24065 3.62193 4.52368 3.22439 4.91331 2.95437C5.30289 2.6844 5.77455 2.55901 6.24679 2.59982L7.2659 2.68626C7.79025 2.72757 8.31027 2.56456 8.71723 2.2313L9.68629 1.44878C10.0503 1.15129 10.506 0.98877 10.9761 0.98877C11.4462 0.98877 11.9019 1.15129 12.2659 1.44878L13.1121 2.15851C13.5191 2.49504 14.0418 2.65842 14.568 2.61347L15.6372 2.53612C16.0932 2.50655 16.5459 2.63139 16.9223 2.89058C17.2986 3.14973 17.5768 3.52812 17.7118 3.9647Z" stroke="black" stroke-width="1.3" stroke-miterlimit="10"/>
<path d="M15.3773 7.04023L6.3418 16.0803M8.43011 9.61539C9.37738 9.61539 10.1453 8.84747 10.1453 7.9002C10.1453 6.95288 9.37738 6.185 8.43011 6.185C7.48284 6.185 6.71491 6.95288 6.71491 7.9002C6.71491 8.84747 7.48284 9.61539 8.43011 9.61539ZM13.6621 16.8219C14.6094 16.8219 15.3773 16.0539 15.3773 15.1067C15.3773 14.1594 14.6094 13.3915 13.6621 13.3915C12.7149 13.3915 11.9469 14.1594 11.9469 15.1067C11.9469 16.0539 12.7149 16.8219 13.6621 16.8219Z" stroke="black" stroke-width="1.3" stroke-linecap="round" stroke-linejoin="round"/>
</svg>
