<svg width="13" height="12" viewBox="0 0 13 12" fill="none" xmlns="http://www.w3.org/2000/svg">
<path fill-rule="evenodd" clip-rule="evenodd" d="M8.09026 0.456573C8.20652 0.422829 8.33234 0.420651 8.45014 0.450344C8.56794 0.480036 8.67182 0.540114 8.74727 0.622182L12.8757 5.11159C12.9563 5.19916 13 5.30693 13 5.41787C13 5.52881 12.9563 5.63658 12.8757 5.72415L8.74727 10.2136C8.67179 10.2955 8.56793 10.3555 8.45018 10.3852C8.33243 10.4148 8.20668 10.4126 8.09048 10.3789C7.97428 10.3452 7.87344 10.2816 7.80203 10.197C7.73062 10.1125 7.69221 10.0112 7.69216 9.90728V7.91697C4.51973 7.97284 2.99574 8.48214 2.2302 9.03583C1.50241 9.56209 1.36912 10.1811 1.23052 10.8296L1.19455 10.9967C1.16808 11.1163 1.09086 11.2236 0.977425 11.2983C0.863986 11.3731 0.722144 11.4103 0.578585 11.4028C0.435025 11.3953 0.299645 11.3437 0.197913 11.2577C0.0961812 11.1717 0.0351111 11.0573 0.0261922 10.9359C-0.07525 9.56509 0.0769134 7.57877 1.22168 5.91719C2.33282 4.3045 4.33336 3.06442 7.69216 2.93473V0.92846C7.69212 0.82453 7.73047 0.723186 7.80184 0.638585C7.87321 0.553984 7.97405 0.49035 8.09026 0.456573Z" fill="#D5D4D4"/>
</svg>
