<svg width="62" height="62" viewBox="0 0 62 62" fill="none" xmlns="http://www.w3.org/2000/svg">
<path fill-rule="evenodd" clip-rule="evenodd" d="M18.6318 1.18C21.8309 1.03273 22.8509 1 31 1C39.1491 1 40.1691 1.03545 43.3655 1.18C46.5618 1.32455 48.7436 1.83455 50.6527 2.57364C52.6518 3.32909 54.4655 4.51 55.9655 6.03727C57.4927 7.53455 58.6709 9.34546 59.4236 11.3473C60.1655 13.2564 60.6727 15.4382 60.82 18.6291C60.9673 21.8336 61 22.8536 61 31C61 39.1491 60.9645 40.1691 60.82 43.3682C60.6755 46.5591 60.1655 48.7409 59.4236 50.65C58.6709 52.6521 57.4908 54.466 55.9655 55.9655C54.4655 57.4927 52.6518 58.6709 50.6527 59.4236C48.7436 60.1655 46.5618 60.6727 43.3709 60.82C40.1691 60.9673 39.1491 61 31 61C22.8509 61 21.8309 60.9645 18.6318 60.82C15.4409 60.6755 13.2591 60.1655 11.35 59.4236C9.34797 58.6708 7.53406 57.4907 6.03455 55.9655C4.50831 54.4673 3.32722 52.6542 2.57364 50.6527C1.83455 48.7436 1.32727 46.5618 1.18 43.3709C1.03273 40.1664 1 39.1464 1 31C1 22.8509 1.03545 21.8309 1.18 18.6345C1.32455 15.4382 1.83455 13.2564 2.57364 11.3473C3.32834 9.34568 4.51032 7.53267 6.03727 6.03455C7.53466 4.50864 9.34674 3.32757 11.3473 2.57364C13.2564 1.83455 15.4382 1.32727 18.6291 1.18H18.6318ZM43.1227 6.58C39.9591 6.43545 39.01 6.40546 31 6.40546C22.99 6.40546 22.0409 6.43545 18.8773 6.58C15.9509 6.71364 14.3636 7.20182 13.3055 7.61364C11.9064 8.15909 10.9055 8.80546 9.85546 9.85546C8.86012 10.8238 8.09413 12.0026 7.61364 13.3055C7.20182 14.3636 6.71364 15.9509 6.58 18.8773C6.43545 22.0409 6.40546 22.99 6.40546 31C6.40546 39.01 6.43545 39.9591 6.58 43.1227C6.71364 46.0491 7.20182 47.6364 7.61364 48.6945C8.09364 49.9955 8.86 51.1764 9.85546 52.1445C10.8236 53.14 12.0045 53.9064 13.3055 54.3864C14.3636 54.7982 15.9509 55.2864 18.8773 55.42C22.0409 55.5645 22.9873 55.5945 31 55.5945C39.0127 55.5945 39.9591 55.5645 43.1227 55.42C46.0491 55.2864 47.6364 54.7982 48.6945 54.3864C50.0936 53.8409 51.0945 53.1945 52.1445 52.1445C53.14 51.1764 53.9064 49.9955 54.3864 48.6945C54.7982 47.6364 55.2864 46.0491 55.42 43.1227C55.5645 39.9591 55.5945 39.01 55.5945 31C55.5945 22.99 55.5645 22.0409 55.42 18.8773C55.2864 15.9509 54.7982 14.3636 54.3864 13.3055C53.8409 11.9064 53.1945 10.9055 52.1445 9.85546C51.1762 8.86019 49.9974 8.09421 48.6945 7.61364C47.6364 7.20182 46.0491 6.71364 43.1227 6.58ZM27.1682 40.2482C29.3082 41.139 31.691 41.2592 33.9098 40.5883C36.1286 39.9174 38.0456 38.497 39.3335 36.5698C40.6213 34.6425 41.2001 32.3278 40.971 30.0212C40.7419 27.7146 39.7191 25.559 38.0773 23.9227C37.0306 22.8768 35.7651 22.0759 34.3718 21.5777C32.9785 21.0795 31.4921 20.8964 30.0195 21.0417C28.547 21.1869 27.125 21.6568 25.8558 22.4176C24.5867 23.1784 23.502 24.2111 22.6799 25.4414C21.8578 26.6717 21.3187 28.069 21.1014 29.5326C20.8841 30.9963 20.994 32.4899 21.4233 33.906C21.8525 35.322 22.5904 36.6253 23.5838 37.722C24.5772 38.8186 25.8013 39.6814 27.1682 40.2482ZM20.0964 20.0964C21.5282 18.6645 23.2281 17.5286 25.099 16.7537C26.9698 15.9788 28.975 15.5799 31 15.5799C33.025 15.5799 35.0302 15.9788 36.901 16.7537C38.7719 17.5286 40.4718 18.6645 41.9036 20.0964C43.3355 21.5282 44.4714 23.2281 45.2463 25.099C46.0212 26.9698 46.4201 28.975 46.4201 31C46.4201 33.025 46.0212 35.0302 45.2463 36.901C44.4714 38.7719 43.3355 40.4718 41.9036 41.9036C39.0118 44.7955 35.0897 46.4201 31 46.4201C26.9103 46.4201 22.9882 44.7955 20.0964 41.9036C17.2045 39.0118 15.5799 35.0897 15.5799 31C15.5799 26.9103 17.2045 22.9882 20.0964 20.0964ZM49.84 17.8764C50.1948 17.5416 50.4789 17.1391 50.6754 16.6927C50.8719 16.2462 50.9768 15.7648 50.9839 15.2771C50.991 14.7893 50.9002 14.3051 50.7168 13.8531C50.5334 13.4011 50.2612 12.9905 49.9163 12.6456C49.5713 12.3006 49.1607 12.0284 48.7087 11.845C48.2567 11.6617 47.7725 11.5708 47.2847 11.578C46.797 11.5851 46.3156 11.69 45.8692 11.8864C45.4227 12.0829 45.0202 12.367 44.6855 12.7218C44.0345 13.4119 43.6781 14.3285 43.6919 15.2771C43.7057 16.2257 44.0887 17.1315 44.7595 17.8023C45.4303 18.4731 46.3362 18.8561 47.2847 18.8699C48.2333 18.8837 49.1499 18.5273 49.84 17.8764Z" fill="#E83647" stroke="white" stroke-width="0.5"/>
</svg>
