<svg width="50" height="48" viewBox="0 0 50 48" fill="none" xmlns="http://www.w3.org/2000/svg">
<path d="M0.00256804 20.6375C0.885237 19.594 1.89401 18.674 2.86932 17.7218C2.99332 17.6061 3.14452 17.5235 3.30892 17.4816C3.47333 17.4398 3.64563 17.4401 3.80989 17.4825C4.50213 17.6112 5.20595 17.6935 5.89304 17.8454C6.61873 18.0049 7.1913 17.781 7.66609 17.2561C9.06687 15.712 10.4642 14.1629 11.8581 12.6085C12.1052 12.3345 12.3471 12.054 12.6057 11.7915C12.8643 11.529 12.8759 11.3823 12.5478 11.1571C10.3128 9.62084 8.08941 8.06909 5.86344 6.52506C5.1519 6.02969 4.43651 5.53946 3.73011 5.03765C2.99413 4.51139 2.94266 3.87191 3.58214 3.22084C4.22162 2.56978 4.89328 1.94316 5.51217 1.27279C5.98954 0.758116 6.49006 0.648747 7.1527 0.886785C10.7825 2.21722 14.4225 3.5155 18.0523 4.84722C18.4743 5.00162 18.7432 4.97589 19.0469 4.61947C19.8047 3.72651 20.6089 2.87472 21.3874 1.9972C22.5608 0.674482 24.0186 -0.0151866 25.7968 0.000253675C26.4235 0.00668712 27.0475 0.0272786 27.6716 0.0851796C28.2615 0.129145 28.8171 0.379628 29.2407 0.792616C29.6642 1.2056 29.9287 1.75467 29.9876 2.34332C30.1163 3.65446 30.2128 4.96945 29.7753 6.24971C29.6788 6.53535 29.7753 6.62285 30.0571 6.63571C35.4393 7.02172 39.9646 9.24255 43.6857 13.1039C46.2126 15.7135 47.9842 18.9597 48.8119 22.4967C48.8962 22.7586 48.8962 23.0403 48.8119 23.3022C48.6446 23.7217 48.3384 23.9944 47.8687 24.0073C47.3991 24.0202 47.0118 23.6869 46.8831 23.171C46.5826 21.9227 46.1669 20.705 45.6415 19.5335C44.8217 17.7518 43.7324 16.107 42.4119 14.6569C42.3051 14.5292 42.1702 14.4279 42.0177 14.3609C41.8653 14.2939 41.6994 14.2631 41.5331 14.2709C40.137 14.2889 38.7397 14.2709 37.3436 14.2812C36.4326 14.2812 35.9913 14.7264 35.9655 15.6335C35.9507 15.922 35.9507 16.211 35.9655 16.4995C36.0183 17.2715 36.4017 17.6665 37.1673 17.7334C38.7474 17.8711 39.9337 18.5826 40.6195 20.0495C40.8075 20.4243 40.9136 20.8348 40.9309 21.2538C40.9476 22.8403 41.048 24.4306 40.8756 26.0146C40.7263 27.3939 40.1035 28.5506 39.1372 29.5246C37.4169 31.2552 35.6966 32.9858 33.957 34.6971C33.7218 34.9149 33.5371 35.1815 33.416 35.4783C33.2948 35.775 33.2402 36.0947 33.2558 36.4149C33.2751 37.1534 33.2777 37.8933 33.2558 38.6305C33.2386 38.9512 33.2927 39.2716 33.4142 39.5689C33.5357 39.8661 33.7215 40.1327 33.9583 40.3496C34.9877 41.3467 35.9964 42.3517 36.9833 43.3849C37.305 43.7207 37.5508 43.731 37.9316 43.5045C41.7634 41.2219 44.5079 38.0219 46.124 33.8544C46.4418 32.9972 46.7057 32.1209 46.914 31.2308C47.053 30.6659 47.4184 30.4099 47.9562 30.424C48.1831 30.4239 48.4029 30.5028 48.5779 30.6472C48.7529 30.7916 48.872 30.9925 48.9148 31.2154C48.9491 31.4053 48.9354 31.6008 48.8749 31.7841C47.5162 37.551 44.2596 41.9489 39.2325 45.037C36.5032 46.7224 33.4051 47.7191 30.205 47.941C24.5552 48.3489 19.5963 46.6338 15.3 43.0156C11.6162 39.9147 9.19339 35.9864 8.3519 31.2308C7.92601 28.8221 6.9018 26.6605 6.12722 24.3946C6.03972 24.1373 5.85701 24.0228 5.61897 23.9327C4.10454 23.3575 2.59525 22.7747 1.07953 22.1944C0.669073 22.0387 0.281785 21.8585 0 21.5086L0.00256804 20.6375ZM39.5902 12.2264C39.5543 12.1732 39.5138 12.1232 39.4692 12.0771C36.2706 9.79367 32.43 8.58403 28.5002 8.62236C28.2747 8.62142 28.058 8.70924 27.8967 8.86684C27.1003 9.58738 26.3102 10.3182 25.4893 11.013C25.1303 11.3167 25.0634 11.5908 25.2217 12.0424C26.4518 15.5718 27.6458 19.1192 28.8682 22.6447C29.0406 23.1465 29.0496 23.5879 28.6636 23.979C27.907 24.7433 27.1491 25.5063 26.3797 26.2577C26.0349 26.5948 25.6141 26.6334 25.1754 26.4469C24.8781 26.3182 24.7237 26.0454 24.5539 25.7945C22.6942 23.0607 20.8388 20.3244 18.9877 17.5854C18.7677 17.2599 18.6132 17.1621 18.3057 17.4774C17.9982 17.7926 17.6161 18.1027 17.2764 18.4141C15.7975 19.7462 14.3191 21.078 12.8412 22.4092C12.3265 22.8725 12.0987 23.427 12.2428 24.1334C12.3715 24.7922 12.4333 25.4677 12.5825 26.1226C12.7112 26.6772 12.5439 27.0851 12.1541 27.4608C11.5648 28.0282 10.996 28.6188 10.4106 29.1901C10.3081 29.2795 10.231 29.3944 10.1871 29.5232C10.1433 29.652 10.1343 29.7901 10.161 29.9235C10.3557 31.1948 10.668 32.4452 11.0938 33.6588C11.2135 33.992 11.3357 34.0293 11.5828 33.772C12.0164 33.3204 12.4693 32.8868 12.9081 32.4416C13.1737 32.1614 13.4956 31.9406 13.8527 31.7936C14.2097 31.6466 14.5937 31.5767 14.9796 31.5885C16.2663 31.6065 17.553 31.5306 18.8307 31.6142C19.8112 31.6773 20.5124 31.3891 21.1815 30.6608C22.2855 29.459 23.8076 29.495 24.9721 30.6325C25.5575 31.2051 26.1301 31.7905 26.7091 32.3682C27.9456 33.6112 27.9495 35.123 26.7181 36.357C25.7677 37.3125 24.8138 38.266 23.8565 39.2173C23.7529 39.3045 23.6695 39.4132 23.6119 39.5358C23.5544 39.6585 23.5242 39.7921 23.5233 39.9275C23.5327 41.5651 23.5327 43.2026 23.5233 44.8401C23.5233 45.1579 23.6519 45.2982 23.9479 45.3689C24.8965 45.6037 25.8604 45.7714 26.8326 45.8708C29.5879 46.1391 32.3685 45.7982 34.9774 44.8723C35.3286 44.75 35.4187 44.6522 35.106 44.3473C34.1706 43.4466 33.2571 42.5189 32.3448 41.5938C31.7222 40.9791 31.3409 40.1614 31.2704 39.2893C31.1855 38.3591 31.246 37.4288 31.2189 36.4998C31.1829 35.1732 31.6551 34.0782 32.615 33.1467C34.3315 31.474 36.0042 29.7704 37.6961 28.0797C38.0837 27.7052 38.3895 27.2546 38.5944 26.7561C38.7992 26.2576 38.8986 25.7221 38.8863 25.1833C38.8773 24.0253 38.8863 22.8673 38.8863 21.717C38.8863 20.5307 38.2108 19.8449 37.0155 19.7986C36.2045 19.7693 35.4358 19.4295 34.8683 18.8495C34.3007 18.2695 33.9777 17.4936 33.966 16.6822C33.9609 16.2533 33.9609 15.8201 33.966 15.3826C33.9879 13.589 35.3544 12.238 37.1596 12.2277C37.9445 12.2225 38.7281 12.2264 39.5902 12.2264ZM27.9971 3.95297C27.9971 3.51035 28.0061 3.17324 27.9971 2.83612C27.9804 2.33045 27.7603 2.10142 27.2585 2.08469C26.7567 2.06797 26.2639 2.08469 25.766 2.06797C24.6658 2.02679 23.7664 2.44111 23.0369 3.24787C21.6713 4.76101 20.3065 6.27716 18.9426 7.79631C15.683 11.4222 12.4234 15.0485 9.1638 18.6753C8.54131 19.3807 7.67661 19.8266 6.74096 19.9247C6.13485 19.9875 5.52229 19.928 4.9396 19.7497C4.156 19.5245 3.60273 19.7059 3.09834 20.3287C2.84101 20.6452 2.91049 20.707 3.23602 20.8279C4.40819 21.2641 5.56236 21.7479 6.74225 22.1622C7.02409 22.2496 7.28015 22.4049 7.4879 22.6145C7.69565 22.824 7.84875 23.0814 7.93373 23.364C8.34933 24.5439 8.82025 25.7032 9.28089 26.8663C9.33364 26.995 9.33622 27.3527 9.63601 27.0928C10.1584 26.6412 10.7091 26.1921 10.381 25.3609C10.3079 25.115 10.2592 24.8624 10.2356 24.6069C9.97828 23.0976 10.3759 21.8161 11.557 20.8047C11.862 20.5474 12.1541 20.2682 12.4577 19.9993C17.1336 15.7957 21.7991 11.5792 26.4968 7.39744C27.575 6.42342 28.1939 5.32587 27.9971 3.95297ZM17.4758 33.6588C16.6575 33.6588 15.8404 33.6588 15.0221 33.6588C14.8867 33.6523 14.7514 33.6757 14.626 33.7273C14.5006 33.7789 14.3881 33.8574 14.2964 33.9573C13.6917 34.5775 13.0818 35.1938 12.4564 35.7921C12.2287 36.0083 12.2068 36.1781 12.3638 36.4548C14.336 39.9275 17.3607 42.6837 21.0013 44.3254C21.3719 44.4966 21.4697 44.4271 21.4646 44.0256C21.4478 42.6785 21.4723 41.33 21.453 39.9829C21.4401 39.5742 21.515 39.1674 21.6726 38.7901C21.8302 38.4128 22.0668 38.0737 22.3665 37.7955C23.365 36.8202 24.3455 35.8281 25.3259 34.8361C25.6978 34.4617 25.6965 34.2764 25.3259 33.902C24.9399 33.4992 24.5333 33.1068 24.137 32.7092C22.979 31.5512 23.1488 31.5319 22.014 32.7002C21.7183 33.0176 21.3577 33.2676 20.9567 33.433C20.5557 33.5984 20.1237 33.6754 19.6902 33.6588C18.9517 33.6421 18.2144 33.6511 17.4758 33.6588ZM14.2951 9.85501C14.371 9.78296 14.4431 9.72635 14.5049 9.65558C15.2769 8.79993 16.0489 7.93785 16.8299 7.0822C17.0872 6.79784 17.1233 6.65373 16.6935 6.50061C13.6737 5.42494 10.6461 4.35571 7.65452 3.2157C6.94555 2.94549 6.51065 3.04714 6.06159 3.61328C5.84028 3.89121 5.85058 4.01602 6.12722 4.20902C8.75206 6.02583 11.3735 7.84649 13.9915 9.67102C14.0828 9.74307 14.1819 9.79325 14.2951 9.85501ZM26.7348 22.7631C26.7194 22.7142 26.6924 22.6216 26.6615 22.5315C25.6116 19.4692 24.5642 16.4068 23.5194 13.3445C23.3907 12.9868 23.2749 13.0048 23.0343 13.2249C22.2417 13.9493 21.453 14.6801 20.6359 15.3762C20.3027 15.6618 20.2666 15.8677 20.5253 16.2434C22.1118 18.5376 23.6725 20.8498 25.2397 23.1568C25.7994 23.9816 25.7968 23.9829 26.4942 23.2507C26.6152 23.1285 26.7644 23.0178 26.7348 22.7669V22.7631Z" fill="black"/>
<path d="M48.3692 28.2802C48.2375 28.2882 48.1056 28.2689 47.9817 28.2234C47.8579 28.1778 47.7449 28.1072 47.6497 28.0158C47.5546 27.9244 47.4794 27.8142 47.4289 27.6923C47.3785 27.5704 47.3538 27.4394 47.3566 27.3075C47.3503 27.1758 47.3709 27.0442 47.4171 26.9207C47.4634 26.7973 47.5343 26.6846 47.6256 26.5894C47.7169 26.4943 47.8266 26.4188 47.948 26.3675C48.0694 26.3161 48.2001 26.2901 48.3319 26.291C48.4635 26.2852 48.5949 26.3063 48.7181 26.3531C48.8413 26.3998 48.9537 26.4712 49.0484 26.5628C49.143 26.6545 49.218 26.7645 49.2687 26.8861C49.3194 27.0077 49.3448 27.1384 49.3432 27.2701C49.3509 27.4017 49.3312 27.5335 49.2855 27.6571C49.2397 27.7807 49.1689 27.8935 49.0774 27.9884C48.9859 28.0833 48.8757 28.1582 48.7538 28.2084C48.6319 28.2586 48.501 28.2831 48.3692 28.2802Z" fill="black"/>
</svg>
