<svg width="19" height="22" viewBox="0 0 19 22" fill="none" xmlns="http://www.w3.org/2000/svg">
<path d="M15.5193 3.47771C13.9243 1.89126 11.7609 1 9.50521 1C7.24948 1 5.08615 1.89126 3.49112 3.47771C1.89608 5.06417 1 7.21586 1 9.45945C1 11.703 1.89608 13.8547 3.49112 15.4412L8.77349 20.7051C8.86667 20.7985 8.97753 20.8727 9.09968 20.9233C9.22182 20.9739 9.35284 21 9.48516 21C9.61748 21 9.74849 20.9739 9.87064 20.9233C9.99278 20.8727 10.1036 20.7985 10.1968 20.7051L15.5193 15.3913C17.1077 13.8115 18 11.6688 18 9.43452C18 7.20029 17.1077 5.05757 15.5193 3.47771ZM14.0859 13.9657L9.50521 18.5417L4.92447 13.9657C4.0195 13.0648 3.40339 11.9172 3.15402 10.668C2.90466 9.41891 3.03323 8.12427 3.5235 6.9478C4.01376 5.77132 4.8437 4.76583 5.90841 4.05842C6.97312 3.35101 8.22479 2.97344 9.50521 2.97344C10.7856 2.97344 12.0373 3.35101 13.102 4.05842C14.1667 4.76583 14.9966 5.77132 15.4869 6.9478C15.9772 8.12427 16.1058 9.41891 15.8564 10.668C15.607 11.9172 14.9909 13.0648 14.0859 13.9657ZM6.49816 6.39879C5.68898 7.2061 5.2346 8.29956 5.2346 9.43951C5.2346 10.5795 5.68898 11.6729 6.49816 12.4802C7.09933 13.0792 7.86495 13.4882 8.69897 13.656C9.53298 13.8238 10.3983 13.7429 11.1862 13.4235C11.9742 13.104 12.6498 12.5603 13.1282 11.8604C13.6066 11.1605 13.8666 10.3356 13.8754 9.48936C13.88 8.92429 13.7705 8.36405 13.5536 7.84177C13.3367 7.3195 13.0167 6.84578 12.6125 6.44864C12.2152 6.04446 11.7415 5.7224 11.2186 5.501C10.6958 5.27961 10.134 5.16324 9.56575 5.15861C8.99748 5.15398 8.43389 5.26117 7.90743 5.47401C7.38097 5.68685 6.90203 6.00114 6.49816 6.39879ZM11.1992 11.0645C10.8193 11.4481 10.3173 11.6885 9.77897 11.7447C9.24063 11.8009 8.69938 11.6693 8.24777 11.3725C7.79615 11.0757 7.46222 10.6321 7.30305 10.1175C7.14389 9.60293 7.16938 9.04934 7.37517 8.55137C7.58096 8.05341 7.95427 7.64201 8.43127 7.38751C8.90828 7.13301 9.45935 7.05121 9.99028 7.1561C10.5212 7.26099 10.999 7.54605 11.342 7.96255C11.685 8.37905 11.8719 8.90112 11.8707 9.43951C11.8562 10.0549 11.5966 10.6394 11.1491 11.0645H11.1992Z" fill="black" stroke="white" stroke-width="0.2"/>
</svg>
