<svg width="20" height="15" viewBox="0 0 20 15" fill="none" xmlns="http://www.w3.org/2000/svg">
<path d="M0 13.6053V1.39603C0.0211582 1.33592 0.0442399 1.27629 0.0634746 1.21522C0.172663 0.86089 0.393271 0.551254 0.692508 0.332328C0.991745 0.113402 1.35364 -0.00312901 1.72439 6.39053e-05C7.13032 6.39053e-05 12.5361 6.39053e-05 17.9417 6.39053e-05C18.1694 -0.0014699 18.3952 0.0422621 18.606 0.128716C18.8167 0.21517 19.0081 0.342622 19.1692 0.503679C19.3302 0.664735 19.4577 0.856186 19.5442 1.06691C19.6306 1.27763 19.6743 1.50343 19.6728 1.73119C19.6747 5.57621 19.6747 9.42108 19.6728 13.2658C19.6764 13.3936 19.6638 13.5215 19.6353 13.6462C19.4247 14.4732 18.7577 14.9993 17.9042 14.9998C15.3197 14.9998 12.7352 14.9998 10.1507 14.9998C7.34847 14.9998 4.54645 14.9998 1.74459 14.9998C1.31805 15.0063 0.904009 14.8557 0.58137 14.5766C0.27698 14.3194 0.112523 13.978 0 13.6053ZM2.08649 1.19166L2.04994 1.23349C2.11294 1.28639 2.17978 1.33496 2.23796 1.39266C4.71924 3.85214 7.19988 6.31194 9.67988 8.77207C9.86646 8.9572 9.86646 8.95768 10.0487 8.77543C12.5233 6.30024 14.9976 3.82506 17.4719 1.34986C17.5152 1.30659 17.5767 1.27533 17.5887 1.19166H2.08649ZM17.6219 13.813C17.5666 13.751 17.5392 13.7168 17.5084 13.6861C15.7773 11.953 14.0462 10.2195 12.315 8.48547C12.1972 8.36718 12.1309 8.38352 12.0232 8.49268C11.4803 9.04424 10.9311 9.58954 10.3829 10.1363C10.0237 10.4945 9.71595 10.4945 9.3553 10.1363C8.79076 9.57897 8.22429 9.02356 7.66456 8.46143C7.55781 8.35468 7.49289 8.33448 7.37364 8.45422C5.6345 10.2017 3.89359 11.9455 2.15092 13.6856C2.11823 13.7183 2.061 13.7409 2.07687 13.8135L17.6219 13.813ZM1.18053 2.07646V12.922C1.26228 12.9013 1.29594 12.8426 1.3397 12.7989C3.05896 11.0812 4.77871 9.36418 6.49894 7.6478C6.6432 7.50354 6.62973 7.43718 6.49461 7.30349C4.76925 5.60122 3.04726 3.89558 1.32864 2.18657C1.28873 2.14714 1.25843 2.09425 1.18053 2.07646ZM18.4745 12.9441V2.05722C18.41 2.11733 18.3673 2.15339 18.3273 2.19475L13.196 7.32562C13.0186 7.50306 13.0186 7.50305 13.196 7.68049L18.3254 12.809C18.3672 12.8489 18.41 12.8864 18.4745 12.9465V12.9441Z" fill="white"/>
</svg>
