<svg width="19" height="20" viewBox="0 0 19 20" fill="none" xmlns="http://www.w3.org/2000/svg">
<path d="M15.8927 10.936C15.7045 10.936 15.5078 10.8728 15.3195 10.8277C14.9387 10.7377 14.5642 10.62 14.1988 10.4754C13.8019 10.3229 13.3657 10.3308 12.974 10.4976C12.5823 10.6644 12.2628 10.9782 12.0771 11.3787L11.8889 11.7942C11.058 11.2966 10.2905 10.6896 9.60464 9.98761C8.93977 9.26352 8.36481 8.4531 7.89359 7.57586L8.28713 7.38617C8.66644 7.19008 8.96366 6.85281 9.1216 6.43926C9.27954 6.0257 9.28704 5.56508 9.14266 5.14604C9.00679 4.75676 8.89533 4.35846 8.809 3.95372C8.76622 3.755 8.732 3.54724 8.70634 3.34852C8.60245 2.71227 8.28681 2.13609 7.81627 1.72374C7.34573 1.31139 6.7512 1.08997 6.13976 1.09936H3.56463C3.20296 1.09886 2.84527 1.17907 2.515 1.33474C2.18474 1.49041 1.88937 1.71801 1.64826 2.00264C1.40214 2.29499 1.21888 2.64013 1.11108 3.01434C1.00327 3.38856 0.97347 3.78298 1.02372 4.1705C1.48878 7.93007 3.11566 11.4226 5.65211 14.1066C8.19418 16.7846 11.5021 18.5023 15.0629 18.9933C15.1739 19.0022 15.2855 19.0022 15.3965 18.9933C16.0274 18.9943 16.6365 18.7499 17.1076 18.3068C17.3772 18.0522 17.5927 17.7404 17.7402 17.3917C17.8876 17.043 17.9636 16.6653 17.9631 16.2835V13.5736C17.9585 12.9495 17.75 12.3462 17.3727 11.8656C16.9955 11.385 16.4728 11.0567 15.8927 10.936ZM16.312 16.3557C16.3117 16.4818 16.2864 16.6063 16.2378 16.7215C16.1892 16.8366 16.1183 16.9397 16.0296 17.0241C15.9359 17.1143 15.8243 17.1814 15.7029 17.2204C15.5816 17.2595 15.4536 17.2696 15.3281 17.25C12.1355 16.8097 9.16854 15.2736 6.88407 12.8781C4.59766 10.4641 3.13005 7.32056 2.70911 3.93565C2.69052 3.80317 2.70007 3.66799 2.73706 3.53988C2.77405 3.41178 2.83756 3.29396 2.92299 3.19496C3.00394 3.10026 3.10297 3.02473 3.21357 2.97335C3.32416 2.92197 3.44381 2.89591 3.56463 2.89688H6.13121C6.32897 2.89178 6.5223 2.95919 6.67829 3.08765C6.83427 3.21611 6.94327 3.39768 6.98673 3.60144C6.98673 3.84532 7.06373 4.09824 7.11506 4.34213C7.21394 4.81532 7.34547 5.28024 7.5086 5.73317L6.31087 6.32934C6.105 6.42911 5.94501 6.61102 5.866 6.83517C5.78043 7.05508 5.78043 7.30175 5.866 7.52166C7.09727 10.3062 9.21729 12.5446 11.8547 13.8446C12.063 13.9349 12.2966 13.9349 12.5049 13.8446C12.7172 13.7612 12.8895 13.5923 12.984 13.3749L13.5229 12.1103C13.9643 12.2802 14.4159 12.419 14.8747 12.5258C15.0971 12.58 15.3367 12.6252 15.5676 12.6613C15.7606 12.7072 15.9326 12.8223 16.0543 12.987C16.1759 13.1517 16.2398 13.3558 16.235 13.5646L16.312 16.3557ZM11.2644 1C11.0676 1 10.8623 1 10.6655 1C10.4386 1.02036 10.2286 1.13506 10.0818 1.31885C9.93504 1.50265 9.8634 1.74049 9.88268 1.98006C9.90197 2.21962 10.0106 2.44128 10.1847 2.59628C10.3588 2.75128 10.584 2.82692 10.8109 2.80655H11.2644C12.6258 2.80655 13.9314 3.37755 14.894 4.39394C15.8567 5.41032 16.3975 6.78883 16.3975 8.22622C16.3975 8.38881 16.3975 8.54236 16.3975 8.70495C16.3785 8.94325 16.4498 9.17976 16.5958 9.36263C16.7417 9.5455 16.9504 9.65981 17.176 9.68049H17.2445C17.4586 9.68141 17.6653 9.59748 17.8238 9.44529C17.9822 9.2931 18.0807 9.08372 18.1 8.85851C18.1 8.65076 18.1 8.43397 18.1 8.22622C18.1 6.31127 17.3801 4.47462 16.0984 3.1197C14.8167 1.76478 13.0781 1.00239 11.2644 1ZM12.9754 8.22622C12.9754 8.46578 13.0655 8.69553 13.226 8.86493C13.3864 9.03433 13.604 9.12949 13.8309 9.12949C14.0578 9.12949 14.2754 9.03433 14.4359 8.86493C14.5963 8.69553 14.6865 8.46578 14.6865 8.22622C14.6865 7.26796 14.3259 6.34895 13.6841 5.67136C13.0424 4.99377 12.172 4.61311 11.2644 4.61311C11.0375 4.61311 10.8199 4.70828 10.6594 4.87767C10.499 5.04707 10.4088 5.27682 10.4088 5.51639C10.4088 5.75595 10.499 5.9857 10.6594 6.1551C10.8199 6.3245 11.0375 6.41966 11.2644 6.41966C11.7182 6.41966 12.1534 6.61 12.4743 6.94879C12.7951 7.28759 12.9754 7.74709 12.9754 8.22622Z" fill="black" stroke="white" stroke-width="0.2"/>
</svg>
