<svg width="19" height="24" viewBox="0 0 19 24" fill="none" xmlns="http://www.w3.org/2000/svg">
<path d="M18.7831 12.899C18.7831 15.7851 18.7831 18.6713 18.7831 21.5574C18.7831 22.9603 17.7441 23.9993 16.3427 24H2.45568C1.05213 24 0.0109313 22.9617 0.0109313 21.5625C0.0109313 15.7715 0.0240281 9.98054 1.7173e-05 4.18954C-0.00507605 2.87986 1.12344 1.66767 2.47387 1.73971C2.73653 1.75353 3.00065 1.73461 3.26332 1.74407C3.44231 1.75062 3.50488 1.67713 3.49979 1.50323C3.49106 1.22165 3.49324 0.940069 3.49979 0.659214C3.50852 0.258305 3.77846 -0.00144912 4.17428 6.08285e-06C4.57009 0.00146129 4.83276 0.26267 4.84076 0.667217C4.84658 0.939341 4.85022 1.21219 4.84076 1.48359C4.83494 1.66476 4.88733 1.74844 5.08524 1.7448C5.63894 1.73534 6.19265 1.7368 6.74635 1.7448C6.92098 1.7448 6.99301 1.68659 6.98646 1.50833C6.97773 1.22675 6.98064 0.945163 6.98646 0.664308C6.99447 0.261216 7.2615 0.000734397 7.65659 0.000734397C8.05167 0.000734397 8.3187 0.261215 8.32744 0.66358C8.33326 0.945405 8.33326 1.22675 8.32744 1.5076C8.32744 1.6604 8.36454 1.74553 8.5399 1.74407C9.11082 1.73825 9.68248 1.73825 10.2549 1.74407C10.4258 1.74407 10.4731 1.67131 10.4731 1.51197C10.4666 1.23111 10.468 0.949528 10.4731 0.667945C10.4811 0.264126 10.746 0.0021896 11.1396 0.000734397C11.5333 -0.00072081 11.8054 0.259033 11.8141 0.659214C11.8207 0.950256 11.8199 1.2413 11.8141 1.53234C11.8141 1.67786 11.8687 1.74625 12.0215 1.7448C12.5934 1.74116 13.1653 1.73971 13.7372 1.7448C13.9038 1.7448 13.962 1.67786 13.9554 1.51706C13.9489 1.2362 13.9504 0.954621 13.9554 0.673039C13.9627 0.267036 14.2247 0.0043709 14.6176 0.00146049C15.025 0.00146049 15.2899 0.261214 15.2971 0.683224C15.3015 0.909509 15.2971 1.13652 15.2971 1.36353C15.2971 1.74262 15.2971 1.73534 15.6893 1.74553C16.0961 1.75571 16.5057 1.70041 16.9102 1.79282C17.4419 1.91144 17.9171 2.20793 18.2574 2.63328C18.5977 3.05862 18.7826 3.58736 18.7816 4.13207C18.7845 7.05412 18.785 9.97642 18.7831 12.899ZM9.41302 8.31506H1.70916C1.35554 8.31506 1.35481 8.31506 1.35481 8.67886C1.35481 12.899 1.35481 17.1191 1.35481 21.3392C1.35481 22.2385 1.77391 22.6598 2.67032 22.6598H16.1179C17.0172 22.6598 17.4378 22.2399 17.4385 21.3435C17.4385 17.1157 17.4407 12.8876 17.445 8.65921C17.445 8.37617 17.3577 8.31214 17.0885 8.3136C14.5303 8.31942 11.9713 8.31578 9.41302 8.31578V8.31506ZM9.37737 6.97335H13.5975C14.7864 6.97335 15.9753 6.97335 17.1627 6.97335C17.3497 6.97335 17.4443 6.93552 17.4414 6.71942C17.4319 5.90305 17.4465 5.08595 17.4348 4.26958C17.4247 3.5951 17.071 3.18618 16.4162 3.10542C16.1033 3.06758 15.7825 3.09232 15.4652 3.08868C15.3095 3.08868 15.2957 3.18982 15.2957 3.30696C15.2957 3.598 15.3015 3.88904 15.2957 4.18009C15.2977 4.26633 15.2821 4.35209 15.2498 4.43209C15.2176 4.5121 15.1693 4.58467 15.108 4.64537C15.0467 4.70606 14.9736 4.7536 14.8933 4.78507C14.813 4.81654 14.7271 4.83128 14.6408 4.82838C14.245 4.83348 13.9678 4.57299 13.9584 4.1779C13.9511 3.89705 13.9504 3.61546 13.9584 3.33388C13.9627 3.16872 13.9191 3.08213 13.7313 3.08432C13.1691 3.09208 12.6065 3.09208 12.0433 3.08432C11.8585 3.08432 11.8083 3.1629 11.8134 3.3317C11.8214 3.6031 11.8185 3.87595 11.8134 4.14807C11.8061 4.56935 11.5405 4.83202 11.1323 4.82838C10.7409 4.82838 10.4775 4.56135 10.4717 4.15535C10.4666 3.87377 10.4651 3.59291 10.4717 3.31133C10.476 3.14907 10.4149 3.08359 10.2534 3.08504C9.68151 3.09086 9.10961 3.09014 8.53844 3.08504C8.38419 3.08504 8.32889 3.15053 8.3318 3.29896C8.33689 3.59 8.33762 3.88104 8.3318 4.17208C8.32234 4.57154 8.05095 4.83202 7.65586 4.82693C7.26077 4.82183 7.00102 4.56208 6.99083 4.15826C6.98501 3.8774 6.98428 3.59582 6.99083 3.31424C6.99447 3.15708 6.94281 3.08213 6.77255 3.08359C6.20138 3.08941 5.62948 3.08868 5.05759 3.08359C4.9077 3.08359 4.8444 3.14107 4.84658 3.29314C4.85168 3.58418 4.8524 3.87522 4.84658 4.16626C4.83785 4.5679 4.57009 4.82911 4.17573 4.82838C3.78137 4.82765 3.51361 4.56572 3.50561 4.16481C3.49979 3.88323 3.49688 3.60164 3.50561 3.32079C3.51143 3.14107 3.43867 3.07704 3.26477 3.08504C3.05595 3.0945 2.84713 3.08504 2.63831 3.08504C1.79574 3.09086 1.36573 3.52161 1.36282 4.36417C1.36282 5.11724 1.37446 5.87104 1.35554 6.62338C1.34899 6.90059 1.4283 6.97627 1.70697 6.97481C4.25868 6.96681 6.81839 6.97335 9.37737 6.97335Z" fill="#E83647"/>
<path d="M9.42239 11.328C11.1453 11.328 12.8673 11.328 14.5884 11.328C15.0409 11.328 15.3072 11.6045 15.292 12.0389C15.2898 12.2037 15.224 12.3613 15.1083 12.4787C14.9926 12.5961 14.8361 12.6643 14.6713 12.669C14.6255 12.669 14.5804 12.669 14.5353 12.669H4.25422C3.7871 12.669 3.51134 12.4369 3.49678 12.0382C3.48078 11.6147 3.74417 11.3302 4.172 11.3273C4.83339 11.3215 5.49551 11.3273 6.15763 11.3273L9.42239 11.328Z" fill="#E83647"/>
<path d="M9.4283 14.8139C11.1513 14.8139 12.8733 14.8139 14.5943 14.8139C15.14 14.8139 15.4674 15.3233 15.2309 15.7904C15.1796 15.9026 15.0961 15.9971 14.9911 16.0618C14.8861 16.1266 14.7642 16.1587 14.6408 16.1542H13.0656C10.1178 16.1542 7.17054 16.1542 4.22375 16.1542C3.77118 16.1542 3.50051 15.9032 3.49615 15.4921C3.49178 15.081 3.7559 14.8139 4.17646 14.8125C5.26786 14.8081 6.35272 14.8125 7.44121 14.8125L9.4283 14.8139Z" fill="#E83647"/>
<path d="M9.39262 18.2992C11.1248 18.2992 12.857 18.2992 14.5892 18.2992C15.0519 18.2992 15.3226 18.5902 15.2949 19.0348C15.2866 19.1901 15.222 19.3371 15.1133 19.4483C15.0046 19.5596 14.8592 19.6275 14.7041 19.6395C14.659 19.6395 14.6139 19.6395 14.5688 19.6395C11.1224 19.6395 7.6762 19.6395 4.23027 19.6395C3.78643 19.6395 3.51213 19.4008 3.49685 19.0115C3.48011 18.5881 3.74278 18.3014 4.16915 18.2978C4.88584 18.2919 5.60181 18.2978 6.3185 18.2978L9.39262 18.2992Z" fill="#E83647"/>
</svg>
