<svg width="21" height="24" viewBox="0 0 21 24" fill="none" xmlns="http://www.w3.org/2000/svg">
<g clip-path="url(#clip0_1617_7478)">
<path d="M10.4777 23.9986C7.88747 23.9986 5.69797 23.7135 3.5837 22.95C2.73231 22.6409 1.92468 22.2461 1.22377 21.6596C0.433796 20.9973 -0.030668 20.196 0.00157573 19.1096C0.082185 16.4004 1.06715 14.0915 2.93499 12.1551C3.33957 11.7355 3.89846 11.72 4.29844 12.0894C4.39187 12.1767 4.46677 12.2821 4.51862 12.3994C4.57047 12.5166 4.5982 12.6432 4.60014 12.7715C4.60208 12.8998 4.57818 13.0272 4.52989 13.1459C4.4816 13.2647 4.40992 13.3724 4.31916 13.4625C3.42555 14.4037 2.74459 15.4716 2.32312 16.708C2.04291 17.5371 1.92776 18.3933 1.89551 19.2579C1.88092 19.6582 2.12582 19.9395 2.41755 20.1798C2.96339 20.6342 3.59598 20.9309 4.26005 21.1681C5.57437 21.641 6.93321 21.8921 8.32276 22.0011C10.609 22.1804 12.8707 22.066 15.0955 21.4671C15.7445 21.2994 16.3744 21.064 16.9748 20.7647C17.2568 20.6209 17.5253 20.4518 17.7771 20.2594C18.2085 19.9279 18.415 19.5361 18.3744 18.9458C18.2891 17.7133 17.9951 16.5542 17.4255 15.4639C17.0599 14.763 16.5917 14.1214 16.0367 13.5607C15.7688 13.2887 15.5799 12.9819 15.6643 12.5801C15.6925 12.4069 15.7697 12.2457 15.8867 12.1156C16.0037 11.9855 16.1554 11.8922 16.3238 11.8468C16.4938 11.7916 16.6759 11.7863 16.8487 11.8316C17.0215 11.8769 17.1779 11.9709 17.2996 12.1025C18.0922 12.8887 18.7484 13.8028 19.2411 14.8071C19.8974 16.151 20.2541 17.6232 20.2859 19.1204C20.3151 20.1821 19.8691 20.9749 19.0983 21.6286C18.0934 22.4786 16.8988 22.9423 15.6551 23.2908C13.8464 23.7969 12.0001 24.0202 10.4777 23.9986Z" fill="white"/>
<path d="M10.0791 0.00090125C13.6506 -0.0546697 16.62 2.97318 16.576 6.57603C16.5336 10.0955 13.5828 12.9914 10.083 12.9945C6.55691 12.9945 3.55827 10.0315 3.58217 6.43401C3.60608 2.98167 6.50911 -0.0600725 10.0791 0.00090125ZM10.0375 11.0726C12.5981 11.0781 14.6754 9.0883 14.6576 6.46103C14.6391 3.86231 12.6059 1.88105 10.0367 1.9073C7.39197 1.93662 5.48746 4.01899 5.50288 6.48804C5.52292 9.27277 7.72429 11.048 10.0375 11.0726Z" fill="white"/>
</g>
<defs>
<clipPath id="clip0_1617_7478">
<rect width="21" height="24" fill="white"/>
</clipPath>
</defs>
</svg>
