<svg width="21" height="26" viewBox="0 0 21 26" fill="none" xmlns="http://www.w3.org/2000/svg">
<path d="M7.53831 16.1056C6.92888 15.3978 6.38174 14.743 5.8084 14.1081C4.61964 12.8098 3.84229 11.1884 3.57453 9.44854C3.04933 6.17984 4.85427 2.92106 7.90637 1.61018C12.1915 -0.230147 17.0556 2.26066 18.0282 6.82254C18.4904 8.99625 17.963 11.0057 16.8135 12.8687C16.2685 13.7521 15.5282 14.4833 14.8579 15.2682C13.8266 16.4765 12.7811 17.6748 11.7435 18.8781C11.7045 18.9234 11.6762 18.9772 11.626 19.0515C11.8815 19.1067 12.1172 19.0727 12.3493 19.0791C12.4993 19.0705 12.6493 19.0947 12.7889 19.1499C12.9048 19.2071 12.9996 19.2996 13.0598 19.414C13.1199 19.5285 13.1423 19.659 13.1237 19.7869C13.1025 19.9193 13.0357 20.0401 12.9347 20.1283C12.8337 20.2165 12.7049 20.2665 12.5709 20.2697C11.4143 20.2753 10.2582 20.2753 9.10259 20.2697C8.95555 20.2635 8.81639 20.2016 8.71352 20.0963C8.61065 19.9911 8.55183 19.8505 8.54907 19.7034C8.54595 19.5465 8.6042 19.3946 8.71141 19.2799C8.81862 19.1653 8.96634 19.0971 9.12311 19.0897C9.35103 19.0699 9.58178 19.0897 9.81111 19.0791C9.8819 19.0791 9.98878 19.1216 10.0235 19.031C10.0518 18.9602 9.96612 18.9106 9.92082 18.859C9.53436 18.4116 9.14222 17.9685 8.76 17.5141C8.71416 17.4557 8.65489 17.4093 8.58723 17.3787C8.51958 17.3481 8.44553 17.3344 8.37141 17.3386C7.18794 17.3428 6.00447 17.3457 4.82171 17.3386C4.60936 17.3386 4.50885 17.4143 4.44444 17.6153C3.81826 19.5637 3.18641 21.5107 2.54891 23.4563C2.47388 23.6835 2.52059 23.7465 2.76125 23.7465C8.14774 23.7413 13.5342 23.7413 18.9207 23.7465C19.155 23.7465 19.2109 23.6905 19.1331 23.4577C18.4941 21.5126 17.8618 19.5659 17.2361 17.6175C17.1717 17.4164 17.0747 17.3343 16.8603 17.3393C16.3648 17.3513 15.8693 17.3563 15.3738 17.3393C14.8614 17.3174 14.5839 16.9358 14.7439 16.5062C14.8359 16.2585 15.0114 16.1141 15.2825 16.1134C16.0611 16.1134 16.8362 16.1084 17.6134 16.1134C17.9489 16.1134 18.1145 16.3342 18.2094 16.6251C18.5048 17.5311 18.7997 18.4371 19.0941 19.3431C19.6061 20.9206 20.1172 22.4988 20.6273 24.0777C20.8056 24.6334 20.5345 24.9908 19.9428 24.9908C13.8763 24.9908 7.80988 24.9939 1.74341 25C1.23095 25 0.85864 24.6086 1.05187 24.0345C1.85949 21.628 2.62818 19.203 3.41174 16.7858C3.60568 16.1877 3.71397 16.1105 4.3411 16.1105H7.53902L7.53831 16.1056ZM10.7794 2.25075C10.3768 2.24165 9.97448 2.28062 9.58107 2.36684C7.06974 2.86231 5.03405 5.02823 4.77357 7.57708C4.5768 9.50588 5.11474 11.2733 6.33077 12.7703C7.73579 14.5038 9.23282 16.1601 10.6888 17.8553C10.8226 18.0117 10.8877 17.9806 11.0052 17.8411C11.483 17.2749 11.9728 16.7178 12.4569 16.1565C13.4295 15.024 14.4459 13.9297 15.3632 12.759C16.546 11.2443 17.1278 9.49243 16.8978 7.56363C16.5156 4.38978 13.7699 2.20545 10.7794 2.25075Z" fill="#E83647" stroke="#E83647" stroke-width="0.2"/>
<path d="M10.8343 11.2769C10.4429 11.2805 10.0546 11.2064 9.69201 11.0587C9.32945 10.911 8.99984 10.6928 8.72233 10.4167C8.44482 10.1405 8.22494 9.81204 8.07546 9.45021C7.92598 9.08839 7.84989 8.70048 7.85159 8.309C7.85159 6.64634 9.17663 5.34678 10.8676 5.34961C12.5253 5.34961 13.8234 6.66828 13.8199 8.34227C13.8164 9.97662 12.4913 11.279 10.8343 11.2769ZM12.5784 8.31962C12.5777 7.97588 12.4753 7.64004 12.2841 7.35437C12.0929 7.06871 11.8215 6.84599 11.504 6.71427C11.1865 6.58254 10.8371 6.54769 10.4999 6.61411C10.1626 6.68052 9.85256 6.84523 9.60871 7.08751C9.36487 7.32978 9.19816 7.63877 9.12956 7.9756C9.06097 8.31242 9.09355 8.66201 9.22322 8.98035C9.3529 9.29869 9.57385 9.57155 9.85828 9.76457C10.1427 9.9576 10.4779 10.0622 10.8216 10.0651C11.2858 10.0658 11.7314 9.88255 12.0607 9.55537C12.39 9.22819 12.5761 8.78382 12.5784 8.31962Z" fill="#E83647" stroke="#E83647" stroke-width="0.2"/>
</svg>
