<svg width="28" height="24" viewBox="0 0 28 24" fill="none" xmlns="http://www.w3.org/2000/svg">
<path d="M0 7.18107C0.116134 6.49155 0.223592 5.79939 0.471878 5.14145C1.46369 2.50243 3.28779 0.742435 6.11505 0.166077C8.76744 -0.374095 11.0387 0.416095 12.8995 2.35176C13.1022 2.55971 13.2921 2.77941 13.4682 3.00971C13.6104 3.19854 13.6931 3.16367 13.8233 2.99852C14.5908 2.02411 15.5099 1.22208 16.6425 0.68322C17.9774 0.044357 19.383 -0.116839 20.8434 0.10423C22.4303 0.330629 23.8943 1.07549 25.0008 2.21952C26.2322 3.46961 26.9364 4.98288 27.1994 6.70406C27.397 7.93416 27.3301 9.19147 27.0031 10.3945C26.6387 11.7248 25.9786 12.9072 25.1483 14.0007C23.8902 15.6567 22.3718 17.0686 20.7986 18.4227C18.8124 20.1333 16.808 21.8203 14.8117 23.5178C14.0582 24.1586 13.2286 24.1606 12.4811 23.5244C10.3179 21.6821 8.1227 19.8761 5.99491 17.9944C4.5933 16.7541 3.23707 15.4659 2.1091 13.9678C1.152 12.696 0.430496 11.3123 0.12481 9.74113C0.0780897 9.50164 0.041381 9.25951 0 9.01739V7.18107ZM7.67551 1.63987C7.52534 1.65171 7.37517 1.66619 7.22433 1.67474C5.87744 1.7458 4.70008 2.23136 3.72029 3.13801C2.18518 4.56048 1.60118 6.35469 1.65658 8.39563C1.69729 9.9089 2.24659 11.2432 3.08622 12.4795C4.13744 14.027 5.47565 15.3205 6.86725 16.5587C9.02908 18.4832 11.2723 20.3176 13.4675 22.2013C13.607 22.321 13.6891 22.3144 13.8226 22.2013C16.2494 20.111 18.7503 18.1042 21.1063 15.9343C22.289 14.8441 23.4003 13.6901 24.2953 12.3499C25.5167 10.5228 25.9452 8.54104 25.4527 6.39417C24.8026 3.56501 22.3972 1.44183 19.2182 1.67474C18.0835 1.7583 17.0924 2.18531 16.2214 2.90049C15.5446 3.45579 15.02 4.13216 14.5381 4.85261C14.0789 5.54082 13.2259 5.5316 12.7494 4.85261C12.5365 4.55127 12.3389 4.23743 12.106 3.95123C10.966 2.5531 9.54767 1.66882 7.67218 1.63921L7.67551 1.63987Z" fill="#E83647"/>
</svg>
