<svg width="23" height="24" viewBox="0 0 23 24" fill="none" xmlns="http://www.w3.org/2000/svg">
<path d="M9.44375 24C8.65197 23.7696 8.19999 23.2434 8.04933 22.4357C7.9625 21.9663 7.84047 21.5082 7.74378 21.0427C7.73303 20.9664 7.70208 20.8943 7.65414 20.834C7.6062 20.7737 7.543 20.7273 7.47109 20.6996C6.92107 20.456 6.39973 20.1522 5.91662 19.7937C5.86532 19.7527 5.80397 19.7261 5.73893 19.7168C5.67389 19.7074 5.60754 19.7157 5.54677 19.7407C5.05818 19.9012 4.56631 20.0533 4.0749 20.2063C3.10946 20.5071 2.33833 20.2105 1.82627 19.3366C1.29904 18.4336 0.775093 17.5287 0.254432 16.6219C-0.192386 15.8432 -0.0375015 14.9412 0.629908 14.3465C1.03167 13.9879 1.42216 13.6171 1.82204 13.2562C1.86448 13.2222 1.8975 13.1779 1.91796 13.1276C1.93841 13.0772 1.94563 13.0224 1.93891 12.9685C1.87602 12.3317 1.87602 11.6903 1.93891 11.0536C1.94668 10.9997 1.94045 10.9447 1.9208 10.8939C1.90115 10.843 1.86876 10.7982 1.82674 10.7635C1.41794 10.3979 1.02181 10.0229 0.615359 9.65773C-0.0299919 9.07668 -0.1891 8.17554 0.239882 7.42036C0.781194 6.47134 1.32876 5.52577 1.88259 4.58363C2.32096 3.83643 3.12167 3.52479 3.95616 3.77354C4.48652 3.93171 5.01454 4.09927 5.5402 4.27246C5.60462 4.29838 5.67483 4.30648 5.74345 4.29591C5.81208 4.28534 5.8766 4.25648 5.93023 4.21238C6.41343 3.85409 6.93514 3.55089 7.48564 3.30842C7.64053 3.24083 7.70858 3.13711 7.74237 2.97988C7.86065 2.43121 7.97705 1.88255 8.11363 1.33717C8.31826 0.511118 8.98332 0.000938692 9.83659 0C10.9217 0 12.0067 0 13.0915 0C13.9809 0 14.6371 0.516281 14.845 1.38833C14.9717 1.91916 15.0947 2.45092 15.2069 2.9841C15.2406 3.14556 15.3096 3.24083 15.4641 3.30842C16.0077 3.54693 16.5227 3.84607 16.9993 4.20018C17.0588 4.24956 17.1307 4.28185 17.2071 4.29358C17.2836 4.30532 17.3618 4.29607 17.4334 4.26682C17.8985 4.10912 18.3688 3.96597 18.8368 3.81625C19.8257 3.49991 20.602 3.79231 21.1248 4.68736C21.6477 5.5824 22.1677 6.4826 22.6845 7.38281C23.1257 8.15066 23.013 8.99079 22.3742 9.60704C21.9758 9.99237 21.5632 10.3627 21.1539 10.7335C21.0352 10.841 20.9925 10.9437 21.0084 11.1174C21.0629 11.7078 21.0629 12.302 21.0084 12.8925C20.9925 13.0652 21.0328 13.1694 21.1525 13.2769C21.5468 13.6317 21.9406 13.9879 22.3259 14.354C23.0299 15.027 23.1421 15.8484 22.6544 16.6876C22.1292 17.5916 21.6097 18.4993 21.0812 19.4018C20.6217 20.1866 19.8299 20.4935 18.956 20.2288C18.4482 20.0749 17.9428 19.9139 17.44 19.7459C17.2771 19.6919 17.1467 19.7036 17.0049 19.8083C16.5145 20.1702 15.9856 20.4768 15.4279 20.7226C15.3738 20.7432 15.3261 20.7778 15.2897 20.8228C15.2533 20.8678 15.2294 20.9216 15.2205 20.9788C15.12 21.4435 14.9914 21.903 14.9112 22.3709C14.7704 23.197 14.3292 23.7494 13.5224 23.9977L9.44375 24ZM21.3745 8.30179C21.3723 8.23114 21.3489 8.16279 21.3074 8.1056C20.7996 7.22746 20.288 6.35166 19.7867 5.46976C19.6731 5.26982 19.5408 5.22194 19.3254 5.29281C18.6814 5.5059 18.0304 5.69833 17.387 5.91282C17.0434 6.02734 16.7515 5.97383 16.4708 5.7462C15.8415 5.23104 15.1326 4.82159 14.3719 4.53388C14.0673 4.41936 13.8913 4.20769 13.8218 3.89088C13.673 3.21361 13.5111 2.53916 13.3651 1.86096C13.3182 1.63473 13.2098 1.52678 12.9685 1.52866C11.9691 1.53586 10.9701 1.53586 9.9713 1.52866C9.74319 1.52866 9.63618 1.62253 9.58925 1.84406C9.44845 2.51522 9.28042 3.18076 9.13868 3.85192C9.06546 4.19783 8.88054 4.42405 8.552 4.54749C7.80557 4.82861 7.11079 5.23127 6.49579 5.73916C6.20996 5.97383 5.91099 6.02969 5.5571 5.91141C4.90659 5.69317 4.24903 5.49557 3.59617 5.2853C3.41876 5.22851 3.29016 5.24353 3.18596 5.42611C2.68063 6.31442 2.16842 7.19914 1.64933 8.08026C1.53105 8.28067 1.56015 8.41631 1.72771 8.56603C2.22193 9.00816 2.70113 9.46764 3.19864 9.90601C3.49761 10.1698 3.5957 10.4744 3.53516 10.8668C3.41869 11.6157 3.4179 12.378 3.53281 13.1271C3.59805 13.5495 3.48259 13.8649 3.16203 14.1423C2.68517 14.5568 2.22568 14.9928 1.76197 15.4222C1.5273 15.6386 1.52354 15.7038 1.68687 15.9855C2.17499 16.8303 2.67015 17.6704 3.14654 18.5199C3.27045 18.7414 3.40374 18.794 3.63794 18.7161C4.26687 18.5072 4.90518 18.3261 5.53176 18.1111C5.89315 17.9872 6.19823 18.0351 6.49204 18.274C7.11549 18.7838 7.81731 19.1894 8.5703 19.475C8.88148 19.5928 9.06311 19.8083 9.13352 20.1354C9.27807 20.8061 9.43437 21.474 9.58831 22.1423C9.65871 22.4474 9.70142 22.4812 10.0178 22.4817C10.9856 22.4817 11.9533 22.4817 12.9211 22.4817C13.2497 22.4817 13.2929 22.446 13.3656 22.1283C13.5196 21.4524 13.6749 20.7761 13.8265 20.0993C13.895 19.7914 14.0757 19.5914 14.3695 19.4783C15.1299 19.1895 15.8384 18.7793 16.4675 18.2637C16.7463 18.0337 17.0415 17.9844 17.3846 18.0984C18.0281 18.3125 18.6791 18.5054 19.323 18.7185C19.537 18.7889 19.6708 18.7466 19.7853 18.5453C20.2781 17.6763 20.7777 16.8115 21.2839 15.9507C21.4083 15.7395 21.39 15.5879 21.2018 15.4222C20.7212 14.9998 20.2664 14.5474 19.7783 14.1343C19.446 13.8527 19.3559 13.5172 19.4155 13.1116C19.526 12.3781 19.526 11.6322 19.4155 10.8987C19.3535 10.4922 19.4455 10.1571 19.7769 9.87598C20.2645 9.46201 20.7254 9.01707 21.1971 8.58434C21.2825 8.50924 21.3848 8.44025 21.3745 8.30179Z" fill="#E83647"/>
<path d="M16.4838 12.0096C16.5378 14.6004 14.3825 17.0283 11.474 17.0316C8.7973 17.0373 6.43977 14.8989 6.44728 11.9946C6.45339 9.11328 8.79683 6.97682 11.4791 6.98292C14.3774 6.98949 16.5401 9.40756 16.4838 12.0096ZM11.4759 8.55007C9.56139 8.55007 8.00786 10.0881 8.00551 11.9866C8.0027 13.9161 9.53558 15.4448 11.4566 15.4706C13.158 15.4936 14.9298 14.1658 14.9373 12.0171C14.9438 11.5605 14.8588 11.1072 14.6873 10.6839C14.5157 10.2607 14.2611 9.87613 13.9384 9.55294C13.6158 9.22975 13.2316 8.9745 12.8086 8.80225C12.3857 8.63 11.9325 8.54425 11.4759 8.55007Z" fill="#E83647"/>
</svg>
