<svg width="26" height="24" viewBox="0 0 26 24" fill="none" xmlns="http://www.w3.org/2000/svg">
<path d="M1.67056e-05 12.0144C1.67056e-05 9.6648 1.67056e-05 7.31494 1.67056e-05 4.9648C-0.000427638 3.64994 0.520903 2.38863 1.44956 1.45779C2.37821 0.526949 3.63829 0.00264997 4.95315 0C7.65617 0 10.3595 0 13.063 0C14.3724 0.0043759 15.627 0.525703 16.5538 1.45053C17.4807 2.37535 18.0048 3.62881 18.012 4.93812C18.012 5.3024 18.017 5.66584 18.012 6.03011C18.015 6.16308 17.9909 6.29526 17.9411 6.41859C17.8913 6.54192 17.8169 6.65381 17.7225 6.74742C17.628 6.84103 17.5154 6.91441 17.3916 6.96306C17.2679 7.01172 17.1355 7.03463 17.0025 7.03041C16.4082 7.03041 15.9856 6.61362 15.9747 6.01594C15.9672 5.56914 15.9747 5.12401 15.9289 4.67721C15.7947 3.33849 14.6785 2.21565 13.3448 2.08645C12.9605 2.04894 12.5779 2.03977 12.1936 2.03977C9.89627 2.03977 7.59837 2.03977 5.29992 2.03977C4.59054 2.03977 3.91617 2.17064 3.32267 2.5941C2.4374 3.22595 2.04979 4.11288 2.04812 5.16986C2.03979 9.72676 2.03979 14.2812 2.04812 18.8331C2.05229 20.386 2.96506 21.5522 4.37297 21.8665C4.66695 21.9292 4.96681 21.9602 5.26741 21.959C7.76314 21.9657 10.2586 21.9657 12.7538 21.959C14.3634 21.959 15.5621 21.0637 15.8814 19.625C16.0039 19.074 15.9722 18.5096 15.9772 17.9486C15.9762 17.7176 16.0567 17.4935 16.2044 17.3158C16.3521 17.138 16.5576 17.018 16.785 16.9767C17.3143 16.8867 17.7853 17.1434 17.9595 17.631C17.9799 17.6788 17.9942 17.7289 18.002 17.7802C18.147 19.6358 17.8736 21.3563 16.404 22.6834C15.4737 23.5244 14.3876 23.9921 13.1247 23.9954C10.39 24.0015 7.65533 24.0015 4.92064 23.9954C2.56077 23.9954 0.465987 22.2191 0.066702 19.895C0.0173131 19.6293 -0.00475089 19.3592 0.000851099 19.089C0.000851099 19.0581 0.000851099 19.0265 0.000851099 18.9956L1.67056e-05 12.0144Z" fill="#E83647"/>
<path d="M21.38 13.0206H21.0041C17.3547 13.0206 13.705 13.0206 10.055 13.0206C9.40316 13.0206 8.98137 12.6038 8.98637 11.9852C8.99137 11.3834 9.41317 10.9849 10.0559 10.9849C13.7153 10.9849 17.3752 10.9849 21.0358 10.9849C21.155 10.9849 21.2858 11.0208 21.4434 10.9249L20.3281 9.82377C20.2118 9.71952 20.1192 9.59153 20.0567 9.44844C19.9941 9.30535 19.963 9.15051 19.9654 8.99436C19.9755 8.59257 20.148 8.28999 20.4981 8.1066C20.6584 8.01751 20.84 7.97378 21.0232 7.98009C21.2065 7.98641 21.3846 8.04253 21.5384 8.14244C21.6515 8.2162 21.7553 8.30323 21.8477 8.40168C22.7613 9.31195 23.6729 10.2236 24.5826 11.1367C25.1662 11.7202 25.1662 12.2928 24.5826 12.8747C23.6582 13.8033 22.7279 14.7252 21.8052 15.6555C21.4826 15.9798 21.1075 16.1081 20.6698 15.9789C19.9471 15.7647 19.7179 14.8669 20.2414 14.2843C20.554 13.9367 20.9007 13.6174 21.2267 13.284C21.2933 13.2123 21.4109 13.1681 21.38 13.0206Z" fill="#E83647"/>
</svg>
