<svg width="21" height="24" viewBox="0 0 21 24" fill="none" xmlns="http://www.w3.org/2000/svg">
<path d="M10.4777 23.9987C7.88747 23.9987 5.69797 23.7136 3.5837 22.9502C2.73231 22.6411 1.92468 22.2462 1.22377 21.6597C0.433796 20.9975 -0.030668 20.1962 0.00157573 19.1097C0.082185 16.4006 1.06715 14.0917 2.93499 12.1552C3.33957 11.7356 3.89846 11.7202 4.29844 12.0895C4.39187 12.1769 4.46677 12.2823 4.51862 12.3995C4.57047 12.5168 4.5982 12.6433 4.60014 12.7717C4.60208 12.9 4.57818 13.0273 4.52989 13.1461C4.4816 13.2649 4.40992 13.3725 4.31916 13.4627C3.42555 14.4038 2.74459 15.4717 2.32312 16.7081C2.04291 17.5372 1.92776 18.3934 1.89551 19.2581C1.88092 19.6584 2.12582 19.9396 2.41755 20.1799C2.96339 20.6343 3.59598 20.931 4.26005 21.1683C5.57437 21.6412 6.93321 21.8923 8.32276 22.0012C10.609 22.1805 12.8707 22.0662 15.0955 21.4673C15.7445 21.2996 16.3744 21.0642 16.9748 20.7649C17.2568 20.621 17.5253 20.4519 17.7771 20.2595C18.2085 19.928 18.415 19.5363 18.3744 18.9459C18.2891 17.7134 17.9951 16.5543 17.4255 15.464C17.0599 14.7632 16.5917 14.1216 16.0367 13.5608C15.7688 13.2888 15.5799 12.982 15.6643 12.5802C15.6925 12.4071 15.7697 12.2458 15.8867 12.1157C16.0037 11.9857 16.1554 11.8923 16.3238 11.8469C16.4938 11.7917 16.6759 11.7865 16.8487 11.8318C17.0215 11.8771 17.1779 11.9711 17.2996 12.1027C18.0922 12.8888 18.7484 13.8029 19.2411 14.8072C19.8974 16.1512 20.2541 17.6233 20.2859 19.1205C20.3151 20.1823 19.8691 20.9751 19.0983 21.6288C18.0934 22.4788 16.8988 22.9424 15.6551 23.2909C13.8464 23.7971 12.0001 24.0204 10.4777 23.9987Z" fill="#E83647"/>
<path d="M10.0771 0.000901251C13.6487 -0.0546697 16.618 2.97318 16.5741 6.57603C16.5317 10.0955 13.5808 12.9914 10.081 12.9945C6.55496 12.9945 3.55632 10.0315 3.58022 6.43401C3.60412 2.98167 6.50715 -0.0600725 10.0771 0.000901251ZM10.0355 11.0726C12.5962 11.0781 14.6734 9.0883 14.6557 6.46103C14.6372 3.86231 12.6039 1.88105 10.0347 1.9073C7.39001 1.93662 5.4855 4.01899 5.50092 6.48804C5.52097 9.27277 7.72234 11.048 10.0355 11.0726V11.0726Z" fill="#E83647"/>
</svg>
