<svg width="88" height="88" viewBox="0 0 88 88" fill="none" xmlns="http://www.w3.org/2000/svg">
<rect width="88" height="88" rx="44" fill="#E8E8E8"/>
<path d="M54.6066 48.3934C52.9729 46.7596 51.0283 45.5502 48.9066 44.8181C51.179 43.253 52.6719 40.6337 52.6719 37.6719C52.6719 32.8902 48.7817 29 44 29C39.2183 29 35.3281 32.8902 35.3281 37.6719C35.3281 40.6337 36.821 43.253 39.0935 44.8181C36.9718 45.5502 35.0272 46.7596 33.3934 48.3934C30.5603 51.2265 29 54.9934 29 59H31.3438C31.3438 52.0213 37.0213 46.3438 44 46.3438C50.9787 46.3438 56.6562 52.0213 56.6562 59H59C59 54.9934 57.4397 51.2265 54.6066 48.3934ZM44 44C40.5107 44 37.6719 41.1613 37.6719 37.6719C37.6719 34.1825 40.5107 31.3438 44 31.3438C47.4893 31.3438 50.3281 34.1825 50.3281 37.6719C50.3281 41.1613 47.4893 44 44 44Z" fill="#555555"/>
</svg>
