<svg width="19" height="18" viewBox="0 0 19 18" fill="none" xmlns="http://www.w3.org/2000/svg">
<path d="M8.06125 4.6807C8.05023 5.37068 7.76061 5.92186 7.23498 6.35478L6.94636 6.59379C6.53649 6.93252 6.49089 7.44562 6.84214 7.84998C7.87605 9.03864 8.99128 10.154 10.1798 11.1881C10.6012 11.5544 11.1318 11.4827 11.4665 11.0343C11.9621 10.3664 12.5964 9.94546 13.4623 9.97102C13.8785 9.98526 14.2786 10.1356 14.6012 10.3989C15.4846 11.0954 16.3705 11.7889 17.2359 12.5069C18.2931 13.3843 18.2966 14.88 17.2504 15.7759C16.6677 16.277 16.113 16.8132 15.4606 17.2255C14.7557 17.6724 13.9495 17.9342 13.1166 17.9867C11.8819 18.0723 10.769 17.7441 9.76539 17.0346C7.81776 15.6516 6.00803 14.084 4.36134 12.3536C3.57616 11.5299 2.8496 10.6555 2.12154 9.78111C1.54732 9.09213 1.00265 8.38964 0.606303 7.5804C0.172375 6.69351 -0.0591201 5.76352 0.0130342 4.7744C0.0821821 3.82237 0.444957 2.98057 1.03021 2.23848C1.45161 1.70384 1.89356 1.18623 2.34352 0.673632C3.13521 -0.224789 4.65095 -0.228297 5.42261 0.685658C6.18724 1.5936 6.9163 2.5311 7.65187 3.4631C7.93298 3.81385 8.05373 4.23224 8.06125 4.6807ZM12.7563 16.7736C13.6131 16.7766 14.3823 16.5285 15.0532 15.9964C15.5428 15.6086 16.0183 15.2022 16.4863 14.7888C16.9127 14.413 16.9032 13.8413 16.4647 13.486C15.5962 12.7805 14.7227 12.0819 13.8441 11.3901C13.6828 11.2619 13.4788 11.1995 13.2734 11.2156C13.0679 11.2317 12.8762 11.325 12.7368 11.4767C12.629 11.589 12.5323 11.7127 12.4361 11.834C11.6269 12.8281 10.3005 12.9489 9.32946 12.1051C8.1178 11.0501 6.9805 9.91262 5.92568 8.7008C5.09039 7.74125 5.21667 6.39587 6.20328 5.59065C6.33177 5.4914 6.45488 5.38535 6.57206 5.27297C6.71513 5.13375 6.80181 4.94664 6.8155 4.74749C6.82918 4.54833 6.76891 4.35114 6.64622 4.19366C5.94923 3.31077 5.24322 2.43439 4.54172 1.55752C4.36184 1.33354 4.12433 1.23533 3.8332 1.24535C3.51903 1.25688 3.3186 1.43927 3.1317 1.66074C2.80768 2.04924 2.48131 2.4359 2.15261 2.82072C1.04574 4.117 0.940016 6.00454 1.91009 7.39451C3.1149 9.11581 4.47156 10.7257 5.96376 12.2048C7.37787 13.6113 8.90658 14.8976 10.534 16.0505C11.203 16.5235 11.936 16.7816 12.7583 16.7741L12.7563 16.7736Z" fill="white"/>
</svg>
