<svg width="20" height="20" viewBox="0 0 20 20" fill="none" xmlns="http://www.w3.org/2000/svg">
<path d="M8.92018 0.00175075C13.3743 0.00237363 17.1379 3.18341 17.8421 7.51429C18.2504 10.0245 17.667 12.3055 16.1638 14.3516C16.0429 14.5161 16.0429 14.607 16.1912 14.754C17.3583 15.9051 18.519 17.063 19.6732 18.2278C20.1543 18.7111 20.0951 19.4623 19.556 19.8255C19.1447 20.1027 18.6081 20.0472 18.2354 19.6766C17.1942 18.641 16.1555 17.6028 15.1193 16.5622C14.9822 16.4252 14.837 16.2944 14.7092 16.1486C14.6027 16.024 14.5179 16.0384 14.3976 16.1312C13.0558 17.1564 11.5396 17.7656 9.86186 17.9201C7.38582 18.1487 5.16717 17.466 3.25203 15.8789C1.51388 14.4382 0.447555 12.5839 0.112264 10.3527C-0.293449 7.65381 0.402683 5.2358 2.16514 3.15165C3.57298 1.48669 5.38218 0.491333 7.52916 0.118229C7.98736 0.0300154 8.45368 -0.00903181 8.92018 0.00175075ZM2.05919 8.96559C2.01557 12.7695 5.13975 15.8964 8.95321 15.9132C12.7953 15.9294 15.9027 12.7901 15.9158 8.99923C15.9282 5.3367 13.0365 2.07656 9.04732 2.04292C8.13081 2.02837 7.22063 2.19704 6.37027 2.53901C5.5199 2.88099 4.74649 3.38936 4.09547 4.03428C3.44445 4.6792 2.92896 5.44766 2.57927 6.2945C2.22959 7.14134 2.05276 8.04949 2.05919 8.96559Z" fill="#666666"/>
</svg>
