<svg width="28" height="24" viewBox="0 0 28 24" fill="none" xmlns="http://www.w3.org/2000/svg">
<path d="M0.289062 7.18107C0.405197 6.49155 0.512655 5.79939 0.760941 5.14145C1.75275 2.50243 3.57685 0.742435 6.40411 0.166077C9.0565 -0.374095 11.3278 0.416095 13.1886 2.35176C13.3913 2.55971 13.5812 2.77941 13.7573 3.00971C13.8994 3.19854 13.9822 3.16367 14.1123 2.99852C14.8799 2.02411 15.7989 1.22208 16.9316 0.68322C18.2665 0.0443568 19.6721 -0.116839 21.1324 0.10423C22.7194 0.330629 24.1834 1.07549 25.2899 2.21952C26.5213 3.46961 27.2254 4.98288 27.4884 6.70406C27.6861 7.93416 27.6192 9.19147 27.2922 10.3945C26.9278 11.7248 26.2677 12.9072 25.4374 14.0007C24.1793 15.6567 22.6609 17.0686 21.0877 18.4227C19.1014 20.1333 17.0971 21.8203 15.1008 23.5178C14.3473 24.1586 13.5176 24.1606 12.7701 23.5244C10.607 21.6821 8.41176 19.8761 6.28397 17.9944C4.88236 16.7541 3.52613 15.4659 2.39816 13.9678C1.44106 12.696 0.719559 11.3123 0.413873 9.74113C0.367152 9.50164 0.330444 9.25951 0.289062 9.01739V7.18107ZM7.96458 1.63987C7.8144 1.65171 7.66423 1.66619 7.51339 1.67474C6.1665 1.7458 4.98915 2.23136 4.00935 3.13801C2.47425 4.56048 1.89024 6.35469 1.94564 8.39563C1.98635 9.9089 2.53565 11.2432 3.37529 12.4795C4.4265 14.027 5.76471 15.3205 7.15631 16.5587C9.31814 18.4832 11.5614 20.3176 13.7566 22.2013C13.8961 22.321 13.9782 22.3144 14.1117 22.2013C16.5385 20.111 19.0393 18.1042 21.3954 15.9343C22.5781 14.8441 23.6894 13.6901 24.5844 12.3499C25.8058 10.5228 26.2343 8.54104 25.7417 6.39417C25.0917 3.56501 22.6862 1.44183 19.5072 1.67474C18.3726 1.7583 17.3814 2.18531 16.5104 2.90049C15.8336 3.45579 15.309 4.13216 14.8272 4.85261C14.368 5.54082 13.515 5.5316 13.0384 4.85261C12.8255 4.55127 12.628 4.23743 12.395 3.95123C11.255 2.5531 9.83674 1.66882 7.96124 1.63921L7.96458 1.63987Z" fill="white"/>
</svg>
